<?xml version="1.0" encoding="UTF-8" standalone="no"?>
<!-- Created with Inkscape (http://www.inkscape.org/) -->

<svg
   version="1.1"
   id="svg2"
   xml:space="preserve"
   width="2666.6667"
   height="2666.6667"
   viewBox="0 0 2666.6667 2666.6667"
   sodipodi:docname="Jan-Business_report_1.eps"
   xmlns:inkscape="http://www.inkscape.org/namespaces/inkscape"
   xmlns:sodipodi="http://sodipodi.sourceforge.net/DTD/sodipodi-0.dtd"
   xmlns="http://www.w3.org/2000/svg"
   xmlns:svg="http://www.w3.org/2000/svg"><defs
     id="defs6" /><sodipodi:namedview
     id="namedview4"
     pagecolor="#ffffff"
     bordercolor="#666666"
     borderopacity="1.0"
     inkscape:pageshadow="2"
     inkscape:pageopacity="0.0"
     inkscape:pagecheckerboard="0" /><g
     id="g8"
     inkscape:groupmode="layer"
     inkscape:label="ink_ext_XXXXXX"
     transform="matrix(1.3333333,0,0,-1.3333333,0,2666.6667)"><g
       id="g10"
       transform="scale(0.1)"><path
         d="M 0,0 H 20000 V 20000 H 0 Z"
         style="fill:#ffffff;fill-opacity:1;fill-rule:nonzero;stroke:none"
         id="path12" /><path
         d="m 16390.7,15938.3 c 0,-469.4 -380.6,-850 -850,-850 -469.5,0 -850.1,380.6 -850.1,850 0,469.5 380.6,850.1 850.1,850.1 469.4,0 850,-380.6 850,-850.1"
         style="fill:#d1d1ff;fill-opacity:1;fill-rule:nonzero;stroke:none"
         id="path14" /><path
         d="m 15628.1,15557.9 v -117.7 h -149.4 v 112.4 c -106,6.4 -208.8,34.9 -272.4,74.2 l 80.5,182.3 c 70,-41.4 163.2,-67.9 244.8,-67.9 71.1,0 96.5,14.9 96.5,40.3 0,93.3 -410.1,18.1 -410.1,294.6 0,119.8 86.9,220.5 260.7,244.8 v 115.5 h 149.4 v -113.3 c 78.4,-7.4 154.7,-27.6 215.1,-61.5 l -75.2,-181.2 c -73.2,37.1 -142,55.1 -206.7,55.1 -73.1,0 -96.4,-21.2 -96.4,-46.7 0,-89 410.1,-14.8 410.1,-288.2 0,-114.4 -82.7,-214.1 -246.9,-242.7"
         style="fill:#ffffff;fill-opacity:1;fill-rule:nonzero;stroke:none"
         id="path16" /><path
         d="m 14577.8,14783.5 c 0,-284.4 -230.6,-515 -515,-515 -284.4,0 -515,230.6 -515,515 0,284.4 230.6,515 515,515 284.4,0 515,-230.6 515,-515"
         style="fill:#d1d1ff;fill-opacity:1;fill-rule:nonzero;stroke:none"
         id="path18" /><path
         d="m 14115.8,14553 v -71.2 h -90.6 v 68 c -64.2,3.9 -126.4,21.2 -164.9,45 l 48.7,110.4 c 42.4,-25.1 98.9,-41.1 148.3,-41.1 43.1,0 58.5,9 58.5,24.4 0,56.5 -248.5,10.9 -248.5,178.5 0,72.5 52.7,133.5 157.9,148.3 v 69.9 h 90.6 v -68.6 c 47.4,-4.5 93.7,-16.7 130.3,-37.3 l -45.6,-109.8 c -44.3,22.5 -86,33.4 -125.2,33.4 -44.3,0 -58.4,-12.8 -58.4,-28.2 0,-53.9 248.4,-9 248.4,-174.6 0,-69.4 -50,-129.7 -149.5,-147.1"
         style="fill:#ffffff;fill-opacity:1;fill-rule:nonzero;stroke:none"
         id="path20" /><path
         d="m 15834.4,14453.2 c 0,-219.4 -177.9,-397.3 -397.4,-397.3 -219.4,0 -397.3,177.9 -397.3,397.3 0,219.5 177.9,397.4 397.3,397.4 219.5,0 397.4,-177.9 397.4,-397.4"
         style="fill:#d1d1ff;fill-opacity:1;fill-rule:nonzero;stroke:none"
         id="path22" /><path
         d="m 15477.9,14275.4 v -55 h -69.9 v 52.5 c -49.5,3 -97.5,16.4 -127.3,34.7 l 37.7,85.2 c 32.7,-19.3 76.2,-31.7 114.4,-31.7 33.2,0 45.1,6.9 45.1,18.8 0,43.6 -191.7,8.5 -191.7,137.7 0,56 40.6,103.1 121.8,114.5 v 54 h 69.9 v -53 c 36.6,-3.5 72.3,-12.9 100.6,-28.8 l -35.2,-84.7 c -34.2,17.4 -66.4,25.8 -96.6,25.8 -34.2,0 -45.1,-9.9 -45.1,-21.8 0,-41.6 191.7,-7 191.7,-134.7 0,-53.5 -38.6,-100.1 -115.4,-113.5"
         style="fill:#ffffff;fill-opacity:1;fill-rule:nonzero;stroke:none"
         id="path24" /><path
         d="m 13837.5,15768.5 h -58.1 v 416.5 h 58.1 v -416.5"
         style="fill:#9192ff;fill-opacity:1;fill-rule:nonzero;stroke:none"
         id="path26" /><path
         d="m 14016.7,15947.7 h -416.5 v 58.1 h 416.5 v -58.1"
         style="fill:#9192ff;fill-opacity:1;fill-rule:nonzero;stroke:none"
         id="path28" /><path
         d="m 14355.9,16674 h -87.3 v 625.5 h 87.3 V 16674"
         style="fill:#9192ff;fill-opacity:1;fill-rule:nonzero;stroke:none"
         id="path30" /><path
         d="m 14625,16943.1 h -625.5 v 87.3 h 625.5 v -87.3"
         style="fill:#9192ff;fill-opacity:1;fill-rule:nonzero;stroke:none"
         id="path32" /><path
         d="m 16317.6,13626.9 h -66.1 v 473.6 h 66.1 v -473.6"
         style="fill:#9192ff;fill-opacity:1;fill-rule:nonzero;stroke:none"
         id="path34" /><path
         d="m 16521.4,13830.7 h -473.6 v 66.1 h 473.6 v -66.1"
         style="fill:#9192ff;fill-opacity:1;fill-rule:nonzero;stroke:none"
         id="path36" /><path
         d="m 8452.45,14963.1 c -425.9,0 -771.17,345.3 -771.17,771.2 0,425.9 345.27,771.1 771.17,771.1 425.91,0 771.18,-345.2 771.18,-771.1 0,-425.9 -345.27,-771.2 -771.18,-771.2"
         style="fill:#f5f5ff;fill-opacity:1;fill-rule:nonzero;stroke:none"
         id="path38" /><path
         d="m 10292.9,5563.1 c -479.32,0 -867.9,388.6 -867.9,867.9 0,62.5 6.59,123.4 19.13,182.1 h 1697.57 c 12.5,-58.7 19.1,-119.6 19.1,-182.1 0,-479.3 -388.5,-867.9 -867.9,-867.9"
         style="fill:#f5f5ff;fill-opacity:1;fill-rule:nonzero;stroke:none"
         id="path40" /><path
         d="m 8766.1,8462.5 c -41.2,2 -82.97,2.5 -124,1.4 l -0.65,25 c 41.65,1.1 84.05,0.6 125.85,-1.4 z m -370.52,-23.6 -4.38,24.6 c 41,7.3 82.94,13.2 124.64,17.4 l 2.53,-24.8 c -41.08,-4.2 -82.4,-10 -122.79,-17.2 z m 616.4,-6.9 c -40.22,8.1 -81.39,14.8 -122.36,19.9 l 3.08,24.8 c 41.59,-5.1 83.39,-11.9 124.23,-20.2 z m -856.3,-55 -8.07,23.6 c 39.54,13.5 80.11,25.7 120.6,36.1 l 6.25,-24.2 c -39.88,-10.3 -79.84,-22.2 -118.78,-35.5 z m 1094.74,-12.3 c -38.66,14.1 -78.34,27 -117.93,38.2 l 6.79,24 c 40.21,-11.3 80.5,-24.4 119.76,-38.8 z m -1322.29,-85.2 -11.56,22.2 c 37.09,19.3 75.32,37.4 113.65,53.9 l 9.85,-23 c -37.75,-16.2 -75.41,-34.1 -111.94,-53.1 z m 1547.98,-17.7 c -36.13,19.9 -73.43,38.7 -110.88,55.7 l 10.37,22.8 c 38.01,-17.3 75.88,-36.4 112.57,-56.6 z m -1758.34,-113.1 -14.76,20.2 c 33.7,24.7 68.79,48.3 104.28,70.4 l 13.2,-21.2 c -34.96,-21.8 -69.52,-45.1 -102.72,-69.4 z m 1965.84,-22.5 c -32.65,25 -66.7,49.2 -101.18,71.7 l 13.68,20.9 c 35.01,-22.9 69.57,-47.4 102.72,-72.8 z m -2154.26,-138.4 -17.62,17.7 c 29.67,29.5 60.81,58.2 92.58,85.3 l 16.23,-19 c -31.29,-26.7 -61.97,-55 -91.19,-84 z m 2339.01,-26.9 c -28.56,29.7 -58.58,58.7 -89.26,86.1 l 16.67,18.6 c 31.13,-27.8 61.62,-57.2 90.61,-87.4 z m -2501.25,-160.5 -20.07,14.9 c 24.91,33.5 51.41,66.6 78.78,98.2 l 18.89,-16.4 c -26.95,-31.1 -53.06,-63.7 -77.6,-96.7 z m 2659.09,-30.5 c -23.8,33.7 -49.11,66.8 -75.32,98.5 l 19.27,15.9 c 26.6,-32.2 52.35,-65.8 76.45,-99.9 z m -2791.38,-179.2 -22.09,11.7 c 19.59,36.9 40.83,73.6 63.13,109 l 21.15,-13.4 c -21.98,-34.8 -42.89,-70.9 -62.19,-107.3 z m 2918.78,-33.2 c -18.4,36.7 -38.5,73.2 -59.7,108.6 l 21.5,12.8 c 21.5,-35.8 41.8,-72.9 60.5,-110.2 z m -3017.89,-194.2 -23.62,8.3 c 13.77,39.5 29.22,79 45.94,117.3 l 22.92,-10 c -16.47,-37.8 -31.69,-76.6 -45.24,-115.6 z m 3111.59,-35.1 c -12.6,39.2 -26.9,78.4 -42.5,116.5 l 23.1,9.5 c 15.9,-38.8 30.4,-78.5 43.2,-118.3 z m -3175.01,-204.4 -24.58,4.6 c 7.61,41.1 16.88,82.4 27.56,122.8 l 24.17,-6.4 c -10.52,-39.8 -19.65,-80.5 -27.15,-121 z m 3233.01,-36.5 c -6.5,40.7 -14.8,81.6 -24.4,121.6 l 24.3,5.8 c 9.8,-40.6 18.1,-82.1 24.8,-123.4 z m -3259.51,-209.8 -24.99,0.8 c 1.34,41.8 4.28,84.1 8.74,125.5 l 24.85,-2.7 c -4.39,-40.8 -7.28,-82.4 -8.6,-123.6 z m 3280.51,-37.1 c -0.4,41.3 -2.4,83 -5.9,123.9 l 24.9,2.1 c 3.6,-41.5 5.6,-83.8 6,-125.7 z m 20.4,-142.4 -24.9,1.8 c 3,41 4.6,82.7 4.6,123.9 h 25 c 0,-41.9 -1.6,-84.2 -4.7,-125.7 z m -3315.27,-71.1 c -4.88,41.5 -8.25,83.7 -10,125.5 l 24.98,1 c 1.72,-41.1 5.04,-82.7 9.84,-123.5 z m 3277.67,-177.6 -24.4,5.5 c 9.2,40.1 17,81.1 23.2,121.8 l 24.7,-3.7 c -6.2,-41.4 -14.2,-83 -23.5,-123.6 z M 7079.67,6380 c -11.11,40.3 -20.8,81.6 -28.81,122.6 l 24.54,4.8 c 7.89,-40.4 17.44,-81 28.37,-120.7 z m 3154.53,-171.1 -23.2,9.3 c 15.2,38.2 29.1,77.6 41.4,117 l 23.9,-7.5 c -12.5,-39.9 -26.6,-79.9 -42.1,-118.8 z m -3069.46,-65.5 c -17.08,38.1 -32.9,77.4 -47.02,116.6 l 23.53,8.5 c 13.9,-38.7 29.48,-77.3 46.3,-114.9 z m 2959.06,-160.7 -21.6,12.6 c 20.8,35.6 40.6,72.4 58.6,109.4 l 22.5,-11 c -18.4,-37.6 -38.4,-74.9 -59.5,-111 z m -2839.19,-60.3 c -22.68,35.2 -44.25,71.6 -64.12,108.2 l 21.98,12 c 19.57,-36.1 40.82,-72 63.16,-106.7 z m 2695.86,-146.6 -19.42,15.7 c 25.98,32.1 51.05,65.5 74.45,99.3 l 20.5,-14.3 c -23.7,-34.3 -49.2,-68.2 -75.53,-100.7 z m -2544.04,-54 c -27.67,31.4 -54.48,64.2 -79.69,97.5 l 19.93,15.1 c 24.84,-32.8 51.25,-65.1 78.5,-96 z m 2371.39,-129.1 -16.84,18.5 c 30.38,27.7 60.13,57 88.41,86.9 l 18.19,-17.1 c -28.71,-30.4 -58.91,-60.1 -89.76,-88.3 z m -2191.19,-46.4 c -32.05,26.8 -63.48,55.2 -93.41,84.4 l 17.45,17.9 c 29.48,-28.7 60.44,-56.7 92.01,-83.2 z m 1993.15,-108.6 -13.9,20.8 c 34.26,22.9 68.05,47.3 100.42,72.7 l 15.41,-19.7 c -32.87,-25.8 -67.16,-50.6 -101.93,-73.8 z m -1788.61,-38.1 c -35.67,21.7 -71.01,45.1 -105.05,69.5 l 14.57,20.3 c 33.52,-24 68.34,-47 103.47,-68.4 z m 1569.58,-85.4 -10.6,22.6 c 37.27,17.5 74.33,36.5 110.16,56.7 l 12.27,-21.7 c -36.37,-20.5 -74,-39.9 -111.83,-57.6 z m -1345.19,-28.8 c -38.61,16.1 -77.09,33.9 -114.37,52.9 l 11.33,22.3 c 36.73,-18.7 74.63,-36.2 112.66,-52.1 z m 1109.98,-60.2 -7.04,24 c 39.5,11.6 79.05,24.9 117.54,39.4 l 8.85,-23.4 c -39.08,-14.7 -79.24,-28.2 -119.35,-40 z m -870.93,-18.6 c -40.65,10.1 -81.34,21.8 -120.97,34.9 l 7.83,23.7 c 39.03,-12.9 79.11,-24.4 119.14,-34.3 z m 624.87,-33.7 -3.33,24.8 c 40.84,5.5 81.94,12.6 122.16,21.2 l 5.2,-24.5 c -40.84,-8.7 -82.57,-15.9 -124.03,-21.5 z m -376.79,-7.9 c -41.71,3.7 -83.71,9.2 -124.82,16.1 l 4.14,24.6 c 40.49,-6.8 81.86,-12.1 122.95,-15.8 z m 152.96,-7 c -9.12,0 -18.22,0.1 -27.3,0.2 l 0.41,25 c 41.16,-0.6 82.98,0.3 123.99,2.6 l 1.45,-24.9 c -32.57,-1.9 -65.73,-2.9 -98.55,-2.9"
         style="fill:#9192ff;fill-opacity:1;fill-rule:nonzero;stroke:none"
         id="path42" /><path
         d="m 7171.67,17109.5 -3.64,24.7 c 41.42,6.1 83.78,9.8 125.91,10.9 l 0.67,-25 c -41.14,-1.1 -82.5,-4.6 -122.94,-10.6 z m 368.24,-12 c -40.02,8.6 -81.05,14.9 -121.97,18.7 l 2.3,24.8 c 41.9,-3.8 83.93,-10.2 124.94,-19.1 z m -605.82,-53 -9.45,23.2 c 38.9,15.9 79.17,29.6 119.69,40.6 l 6.59,-24.1 c -39.55,-10.8 -78.85,-24.1 -116.83,-39.7 z m 838.71,-27.6 c -36.88,18 -75.24,34 -114,47.4 l 8.18,23.6 c 39.7,-13.7 79,-30.1 116.79,-48.5 z m -1053.77,-92.2 -14.7,20.2 c 34,24.7 69.82,47.6 106.47,68 l 12.17,-21.8 c -35.78,-20 -70.75,-42.3 -103.94,-66.4 z m 1260.64,-41.7 c -31.55,26.3 -65,50.9 -99.41,73.2 l 13.59,21 c 35.25,-22.8 69.5,-48 101.81,-74.9 z m -1441.21,-125.9 -19.08,16.2 c 27.16,32 56.55,62.7 87.35,91.3 l 17.01,-18.3 c -30.07,-27.9 -58.77,-57.9 -85.28,-89.2 z m 1610.41,-53.1 c -24.39,32.9 -51.05,64.7 -79.24,94.6 l 18.17,17.1 c 28.87,-30.5 56.17,-63.1 81.16,-96.8 z m -1746.16,-152.6 -22.36,11.2 c 18.76,37.6 40.02,74.4 63.2,109.5 l 20.87,-13.7 c -22.64,-34.3 -43.39,-70.3 -61.71,-107 z m 1867.98,-61.4 c -15.84,37.8 -34.16,75 -54.46,110.6 l 21.73,12.4 c 20.79,-36.5 39.55,-74.6 55.79,-113.3 z m -1950.68,-170.7 -24.39,5.5 c 9.22,41 21.05,81.9 35.16,121.5 l 23.55,-8.4 c -13.77,-38.6 -25.32,-78.5 -34.32,-118.6 z m 2017.82,-66.3 c -6.35,40.6 -15.23,81.1 -26.39,120.6 l 24.05,6.8 c 11.44,-40.4 20.54,-82 27.04,-123.5 z m -2067.68,-179.2 c -0.11,6.3 -0.17,12.7 -0.16,19.1 0,35.7 1.81,71.8 5.38,107.1 l 24.87,-2.5 c -3.49,-34.5 -5.25,-69.7 -5.25,-104.6 -0.01,-6.2 0.05,-12.5 0.16,-18.7 z m 2097.6,-107.1 -24.83,3 c 4.85,40.6 7.31,82 7.31,123.2 0,12.4 -0.22,24.9 -0.66,37.3 l 24.98,0.9 c 0.45,-12.7 0.68,-25.5 0.68,-38.2 0,-42.2 -2.52,-84.6 -7.48,-126.2 z m -2063.07,-142.8 c -10.7,40.6 -19.04,82.3 -24.78,123.9 l 24.77,3.4 c 5.6,-40.6 13.74,-81.3 24.18,-120.9 z m 2003.18,-102.3 -23.39,8.8 c 14.48,38.4 26.75,78 36.48,117.9 l 24.28,-5.9 c -9.96,-40.9 -22.54,-81.5 -37.37,-120.8 z m -1909.92,-132.1 c -20.13,36.9 -38.19,75.3 -53.71,114.3 l 23.23,9.3 c 15.14,-38.1 32.78,-75.6 52.42,-111.6 z m 1793.05,-91.7 -20.61,14.1 c 23.24,33.9 44.65,69.5 63.63,105.8 l 22.16,-11.6 c -19.44,-37.2 -41.37,-73.6 -65.18,-108.3 z m -1646.6,-113.7 c -28.3,31 -55.01,64.1 -79.39,98.3 l 20.35,14.5 c 23.81,-33.4 49.89,-65.6 77.52,-96 z m 1479.97,-75.8 -16.67,18.6 c 30.55,27.4 59.78,56.9 86.88,87.7 l 18.76,-16.5 c -27.74,-31.6 -57.68,-61.8 -88.97,-89.8 z m -1288.98,-89.1 c -34.81,23.4 -68.6,49.2 -100.44,76.7 l 16.34,18.9 c 31.08,-26.8 64.08,-52 98.07,-74.9 z m 1082.27,-55.5 -11.77,22.1 c 36.11,19.2 71.48,41 105.12,64.5 l 14.33,-20.5 c -34.46,-24.1 -70.69,-46.3 -107.68,-66.1 z m -857.46,-59.4 c -39.41,14.5 -78.4,31.5 -115.88,50.7 l 11.38,22.2 c 36.58,-18.7 74.63,-35.3 113.1,-49.4 z m 622.15,-31.7 -6.15,24.2 c 39.76,10.1 79.3,22.7 117.53,37.5 l 9.03,-23.3 c -39.16,-15.2 -79.67,-28.1 -120.41,-38.4 z m -376.42,-25.9 c -41.81,4.6 -83.72,11.8 -124.56,21.4 l 5.7,24.3 c 39.87,-9.4 80.79,-16.4 121.6,-20.9 z m 126.2,-6.4 -0.22,25 c 41.15,0.4 82.56,3.2 123.09,8.4 l 3.18,-24.8 c -41.5,-5.3 -83.91,-8.2 -126.05,-8.6"
         style="fill:#9192ff;fill-opacity:1;fill-rule:nonzero;stroke:none"
         id="path44" /><path
         d="m 3125,10338.1 c -172.31,0 -312.5,-140.2 -312.5,-312.5 0,-172.3 140.19,-312.5 312.5,-312.5 172.31,0 312.5,140.2 312.5,312.5 0,172.3 -140.19,312.5 -312.5,312.5 z m 0,-675 c -199.88,0 -362.5,162.6 -362.5,362.5 0,199.9 162.62,362.5 362.5,362.5 199.88,0 362.5,-162.6 362.5,-362.5 0,-199.9 -162.62,-362.5 -362.5,-362.5"
         style="fill:#9192ff;fill-opacity:1;fill-rule:nonzero;stroke:none"
         id="path46" /><path
         d="m 4860.06,6638.1 h 10389.9 v 7681.64 H 4860.06 Z"
         style="fill:#ffffff;fill-opacity:1;fill-rule:nonzero;stroke:none"
         id="path48" /><path
         d="M 4885.06,6663.1 H 15225 v 7631.6 H 4885.06 V 6663.1 M 15275,6613.1 H 4835.06 v 7731.6 H 15275 V 6613.1"
         style="fill:#9192ff;fill-opacity:1;fill-rule:nonzero;stroke:none"
         id="path50" /><path
         d="m 6430.03,7488.1 h -850 V 9133 h 850 V 7488.1"
         style="fill:#d1d1ff;fill-opacity:1;fill-rule:nonzero;stroke:none"
         id="path52" /><path
         d="m 7780.03,7488.1 h -850 v 2465.2 h 850 V 7488.1"
         style="fill:#d1d1ff;fill-opacity:1;fill-rule:nonzero;stroke:none"
         id="path54" /><path
         d="m 9130.03,7488.1 h -850 v 4157 h 850 v -4157"
         style="fill:#d1d1ff;fill-opacity:1;fill-rule:nonzero;stroke:none"
         id="path56" /><path
         d="M 10480,7488.1 H 9630.03 V 10444 H 10480 V 7488.1"
         style="fill:#d1d1ff;fill-opacity:1;fill-rule:nonzero;stroke:none"
         id="path58" /><path
         d="m 11830,7488.1 h -850 v 4259.5 h 850 V 7488.1"
         style="fill:#d1d1ff;fill-opacity:1;fill-rule:nonzero;stroke:none"
         id="path60" /><path
         d="m 13180,7488.1 h -850 v 4037 h 850 v -4037"
         style="fill:#d1d1ff;fill-opacity:1;fill-rule:nonzero;stroke:none"
         id="path62" /><path
         d="m 13680,7488.1 h 850 v 5512.01 h -850 z"
         style="fill:#d1d1ff;fill-opacity:1;fill-rule:nonzero;stroke:none"
         id="path64" /><path
         d="m 5836.34,8140.8 -22.68,44.6 1419.7,722.3 1464.13,1994.2 1340.41,-1403 1378,1378 1336.5,-162.4 1341.3,1540 37.6,-32.8 -1358.7,-1560 -1338.5,162.6 -1397,-1397 -1334.59,1397 -1435.87,-1955.8 -1430.3,-727.7"
         style="fill:#3335cf;fill-opacity:1;fill-rule:nonzero;stroke:none"
         id="path66" /><path
         d="M 12146.7,13321.4 H 7963.36 v 50 h 4183.34 v -50"
         style="fill:#3335cf;fill-opacity:1;fill-rule:nonzero;stroke:none"
         id="path68" /><path
         d="M 10734.6,12771.4 H 9375.43 v 50 h 1359.17 v -50"
         style="fill:#3335cf;fill-opacity:1;fill-rule:nonzero;stroke:none"
         id="path70" /><path
         d="m 4692.22,5169.3 c 81.53,429.8 28.48,887.2 -148.83,1283.1 -177.31,395.9 -477.88,728.1 -843.19,931.9 185.04,-234.7 232.74,-556.8 251.48,-862.3 18.75,-305.6 17.39,-621.1 128.25,-903.7 110.86,-282.6 372.54,-527.2 658.75,-491.8 l -46.46,42.8"
         style="fill:#3335cf;fill-opacity:1;fill-rule:nonzero;stroke:none"
         id="path72" /><path
         d="m 4698.23,5060.9 c -81.54,429.8 -28.48,887.2 148.83,1283.1 177.31,395.9 477.88,728.1 843.19,932 -185.04,-234.8 -232.74,-556.8 -251.49,-862.4 -18.74,-305.5 -17.38,-621 -128.24,-903.6 -110.86,-282.7 -372.54,-527.3 -658.75,-491.8 l 46.46,42.7"
         style="fill:#3335cf;fill-opacity:1;fill-rule:nonzero;stroke:none"
         id="path74" /><path
         d="m 4370.29,5265.4 c -184.38,306.8 -234.72,700.7 -134.04,1048.7 100.67,348 350.55,643.8 665.31,787.6 -66.24,-440.1 260.77,-865.1 202.34,-1306.5 -37.82,-285.6 -252.36,-535.5 -516.6,-601.6 l -217.01,71.8"
         style="fill:#d1d1ff;fill-opacity:1;fill-rule:nonzero;stroke:none"
         id="path76" /><path
         d="m 4504.47,4674.7 c -0.8,438.5 150.05,876 423.16,1227.3 273.1,351.3 666.95,614.5 1104.85,738.3 -248.63,-191.6 -366.06,-497.5 -448.73,-793.2 -82.65,-295.8 -145.52,-605.4 -323.43,-859.5 -177.92,-254.1 -511.7,-439.5 -814.98,-345.1 l 59.13,32.2"
         style="fill:#9192ff;fill-opacity:1;fill-rule:nonzero;stroke:none"
         id="path78" /><path
         d="m 4642.29,4651.2 c 0.74,438.5 -137.75,876 -388.49,1227.3 -250.73,351.3 -612.32,614.5 -1014.34,738.3 228.26,-191.6 336.07,-497.5 411.96,-793.3 75.89,-295.7 133.6,-605.3 296.94,-859.4 163.34,-254.1 469.78,-439.5 748.22,-345.1 l -54.29,32.2"
         style="fill:#9192ff;fill-opacity:1;fill-rule:nonzero;stroke:none"
         id="path80" /><path
         d="M 5377.85,3154.9 H 3794.09 L 3521.8,4804 H 5650.14 L 5377.85,3154.9"
         style="fill:#ffffff;fill-opacity:1;fill-rule:nonzero;stroke:none"
         id="path82" /><path
         d="m 3810,3173.7 h 1551.94 l 266.1,1611.6 H 3543.9 Z m 1583.75,-37.5 H 3778.18 L 3499.7,4822.8 H 5672.24 L 5393.75,3136.2"
         style="fill:#9192ff;fill-opacity:1;fill-rule:nonzero;stroke:none"
         id="path84" /><path
         d="M 7475.6,11798.8 H 2649.79 v 3790.7 H 7475.6 v -3790.7"
         style="fill:#ffffff;fill-opacity:1;fill-rule:nonzero;stroke:none"
         id="path86" /><path
         d="M 2674.79,11823.8 H 7450.6 v 3740.7 H 2674.79 Z m 4825.81,-50 H 2624.79 v 3840.7 H 7500.6 v -3840.7"
         style="fill:#9192ff;fill-opacity:1;fill-rule:nonzero;stroke:none"
         id="path88" /><path
         d="M 4393.79,14352.2 H 3305.38 v 616.3 h 1088.41 v -616.3"
         style="fill:#d1d1ff;fill-opacity:1;fill-rule:nonzero;stroke:none"
         id="path90" /><path
         d="M 6832.91,14882.8 H 4852.77 v 26.3 h 1980.14 v -26.3"
         style="fill:#9192ff;fill-opacity:1;fill-rule:nonzero;stroke:none"
         id="path92" /><path
         d="M 6832.91,14647.2 H 4852.77 v 26.2 h 1980.14 v -26.2"
         style="fill:#d1d1ff;fill-opacity:1;fill-rule:nonzero;stroke:none"
         id="path94" /><path
         d="M 6832.91,14411.6 H 4852.77 v 26.2 h 1980.14 v -26.2"
         style="fill:#d1d1ff;fill-opacity:1;fill-rule:nonzero;stroke:none"
         id="path96" /><path
         d="M 4044.21,12418.4 H 3816.9 v 704.1 h 227.31 v -704.1"
         style="fill:#d1d1ff;fill-opacity:1;fill-rule:nonzero;stroke:none"
         id="path98" /><path
         d="m 4271.51,12418.4 h -227.3 v 1046.8 h 227.3 v -1046.8"
         style="fill:#9192ff;fill-opacity:1;fill-rule:nonzero;stroke:none"
         id="path100" /><path
         d="m 4892.22,12422.8 h -227.31 v 1160.9 h 227.31 v -1160.9"
         style="fill:#d1d1ff;fill-opacity:1;fill-rule:nonzero;stroke:none"
         id="path102" /><path
         d="m 5119.52,12422.8 h -227.3 v 429.6 h 227.3 v -429.6"
         style="fill:#9192ff;fill-opacity:1;fill-rule:nonzero;stroke:none"
         id="path104" /><path
         d="m 5740.22,12419.3 h -227.3 v 803.9 h 227.3 v -803.9"
         style="fill:#d1d1ff;fill-opacity:1;fill-rule:nonzero;stroke:none"
         id="path106" /><path
         d="m 5967.52,12419.3 h -227.3 v 981.7 h 227.3 v -981.7"
         style="fill:#9192ff;fill-opacity:1;fill-rule:nonzero;stroke:none"
         id="path108" /><path
         d="m 6588.23,12424.5 h -227.3 v 560.6 h 227.3 v -560.6"
         style="fill:#d1d1ff;fill-opacity:1;fill-rule:nonzero;stroke:none"
         id="path110" /><path
         d="m 6815.53,12424.5 h -227.3 v 1337.6 h 227.3 v -1337.6"
         style="fill:#9192ff;fill-opacity:1;fill-rule:nonzero;stroke:none"
         id="path112" /><path
         d="M 6815.53,12411.4 H 3316.41 v 1411.9 h 26.23 v -1385.7 h 3472.89 v -26.2"
         style="fill:#9192ff;fill-opacity:1;fill-rule:nonzero;stroke:none"
         id="path114" /><path
         d="m 16813.5,3831.8 150,-670.6 -1018.7,1.9 425,366.8 -31.3,333.2 475,-31.3"
         style="fill:#1b1b43;fill-opacity:1;fill-rule:nonzero;stroke:none"
         id="path116" /><path
         d="m 16526.4,3373.7 -168.7,141.8 24.1,28.8 168.8,-141.8 -24.2,-28.8"
         style="fill:#ebebff;fill-opacity:1;fill-rule:nonzero;stroke:none"
         id="path118" /><path
         d="m 14807.3,3842.4 75,-681.2 h -1093.8 l 500,368.7 v 337.5 l 518.8,-25"
         style="fill:#1b1b43;fill-opacity:1;fill-rule:nonzero;stroke:none"
         id="path120" /><path
         d="m 14445.2,3373.7 -168.8,141.8 24.2,28.8 168.7,-141.8 -24.1,-28.8"
         style="fill:#ebebff;fill-opacity:1;fill-rule:nonzero;stroke:none"
         id="path122" /><path
         d="m 16994.8,3750.6 -162.5,-2.3 -482.3,-6.5 -267.7,-3.7 c -262.5,907.2 -508.3,1796.5 -709.3,2636.7 -39.5,164.8 -77.2,327.8 -112.7,488.3 -132.3,595.2 -237.8,1161.5 -305,1686.2 -14.5,112.8 -27.3,223.5 -38,332.3 -8.8,86.7 -16.3,172.2 -22.5,256.5 l 1200,-200 c 12,-113.8 24.7,-227.8 38.2,-342.5 180.8,-1549.3 489.5,-3177.5 861.8,-4845"
         style="fill:#3335cf;fill-opacity:1;fill-rule:nonzero;stroke:none"
         id="path124" /><path
         d="m 15457.3,8975.6 -38,-408 -153.3,-1642 -5.7,-62.5 -290.5,-3112.5 H 14074 c 17.8,1800.5 76.5,3512 312.5,4776.2 17.3,93.3 35.8,183.8 55,272 l 475.8,82.8 540,94"
         style="fill:#3335cf;fill-opacity:1;fill-rule:nonzero;stroke:none"
         id="path126" /><path
         d="m 15382.5,6260.7 -341.7,1758.3 24.6,4.8 341.6,-1758.3 -24.5,-4.8"
         style="fill:#1b1b43;fill-opacity:1;fill-rule:nonzero;stroke:none"
         id="path128" /><path
         d="m 15419.3,8567.6 v 0 l 37.9,407.5 c 106.5,-3.3 213,-5.3 319.5,-5.3 8.2,0 16.4,0 24.6,0 2,0.1 4,0.1 6.1,0.1 33.8,0 70,-0.9 107.6,-1.8 l 179.8,-30 c 12,-113.8 24.7,-227.8 38.2,-342.5 l -713.7,-28"
         style="fill:#2c2da5;fill-opacity:1;fill-rule:nonzero;stroke:none"
         id="path130" /><path
         d="m 14917.3,8881.6 v 0 c -3.8,37.4 -7.4,74.6 -10.7,111.6 l 119.4,1.1 c 142.9,-7.7 285.9,-14.6 428.9,-19.1 l -537.6,-93.6"
         style="fill:#2c2da5;fill-opacity:1;fill-rule:nonzero;stroke:none"
         id="path132" /><path
         d="m 14386.5,8526.8 c 17.3,93.3 35.8,183.8 55,272 l 475.8,82.8 v 0 l 537.6,93.6 c 0.8,0 1.6,-0.1 2.3,-0.1 l -37.9,-407.5 -464,-18.3 -568.8,-22.5"
         style="fill:#2c2da5;fill-opacity:1;fill-rule:nonzero;stroke:none"
         id="path134" /><path
         d="m 14797.8,10850.4 459.8,57.5 959.7,-201.2 5.5,-1730.1 c 0.1,-47.4 -19.3,-92.8 -53.8,-125.4 -31.7,-30 -73.7,-46.7 -117.3,-46.9 l -1610.2,-5.5 -310.3,936.7 298.9,885 367.7,229.9"
         style="fill:#ffa121;fill-opacity:1;fill-rule:nonzero;stroke:none"
         id="path136" /><path
         d="m 15371.3,10471.3 c -99.3,0 -195.5,35.3 -270.5,105.8 l 12.9,13.7 c 142.8,-134.4 367.2,-134.2 533.5,0.4 l 11.8,-14.6 c -86.8,-70.2 -188.7,-105.3 -287.7,-105.3"
         style="fill:#1b1b43;fill-opacity:1;fill-rule:nonzero;stroke:none"
         id="path138" /><path
         d="m 16398.9,10575.5 c -35.1,157.8 -164.6,277.2 -324.8,299.2 l -612.7,84.2 370.9,-633.3 114.5,-396.4 577.4,81.5 -125.3,564.8"
         style="fill:#ffa121;fill-opacity:1;fill-rule:nonzero;stroke:none"
         id="path140" /><path
         d="m 16647.8,9333.1 c -14.5,-214.3 -144,-305.5 -308.5,-343 -128.1,-29.1 -277.3,-25.8 -410.1,-22.4 -45,1.1 -88.1,2.3 -127.9,2.1 -258.5,-0.7 -517,10.5 -775.3,24.5 l -656.2,-6.2 -75,116.7 c 85.5,120.8 316.7,279 720.7,183.3 l 1048,237.5 -116.7,403.7 577.5,81.3 118.2,-533.3 c 7,-53.5 8.5,-101.2 5.3,-144.2"
         style="fill:#ffbc96;fill-opacity:1;fill-rule:nonzero;stroke:none"
         id="path142" /><path
         d="m 13832.3,9769.3 412.5,-518.7 75,-18.8 61.8,603.8 -422.1,199.2 -127.2,-265.5"
         style="fill:#ffbc96;fill-opacity:1;fill-rule:nonzero;stroke:none"
         id="path144" /><path
         d="m 15207.3,10963.1 -602.5,-95.3 c -166.7,-26.4 -309.9,-133.1 -382.8,-285.4 l -262.5,-547.6 422.1,-199.2 44.4,433.8 781.3,693.7"
         style="fill:#ffa121;fill-opacity:1;fill-rule:nonzero;stroke:none"
         id="path146" /><path
         d="m 16339.3,8990.1 c -32.8,40.2 -52.8,91.7 -52.8,148 0,128.7 104.5,233.3 233.3,233.3 47.2,0 91.2,-14.3 128,-38.3 -14.5,-214.3 -144,-305.5 -308.5,-343 v 0"
         style="fill:#ffa988;fill-opacity:1;fill-rule:nonzero;stroke:none"
         id="path148" /><path
         d="m 14304.1,9103.8 -18.7,2.1 131.3,1164.5 18.6,-2.1 -131.2,-1164.5"
         style="fill:#1b1b43;fill-opacity:1;fill-rule:nonzero;stroke:none"
         id="path150" /><path
         d="m 16054.5,9523 -231.2,800 18,5.2 231.2,-800 -18,-5.2"
         style="fill:#1b1b43;fill-opacity:1;fill-rule:nonzero;stroke:none"
         id="path152" /><path
         d="m 15597.4,12331.7 c -3.3,42.2 -1.2,85.6 11.7,127.1 12.8,41.2 39.6,79.7 78,102.4 19,11.2 40.1,18.8 61.8,22.5 21.7,3.8 43.8,3.8 65.5,1.3 43.4,-5.1 85,-20.8 121.6,-44.4 36.5,-23.6 67.8,-56.4 87.2,-96.1 19.7,-39.5 23.9,-86.9 11.6,-129.1 -12.1,-42.5 -37.5,-79.1 -66.9,-110.1 -30,-30.6 -64.2,-56.4 -100.3,-78.6 l -4,6.1 c 34.2,24.2 67,50.6 94.7,81.5 27.7,30.6 50.7,66.1 60.7,105.3 10.2,39 6.5,81.1 -11.9,117.1 -17.8,36.2 -47.3,66 -81.3,88.3 -34,22.4 -73.2,37.5 -113.5,42.6 -40.3,5.2 -82.2,-0.5 -117.3,-20.1 -35.2,-19.7 -60.6,-54.1 -73.8,-92.8 -7,-19.3 -11.3,-39.6 -13.9,-60.2 -2.4,-20.6 -2.9,-41.5 -2.6,-62.5 l -7.3,-0.3"
         style="fill:#1b1b43;fill-opacity:1;fill-rule:nonzero;stroke:none"
         id="path154" /><path
         d="m 16002.4,12322 c 0,-110.7 -89.7,-200.4 -200.4,-200.4 -110.7,0 -200.5,89.7 -200.5,200.4 0,110.7 89.8,200.5 200.5,200.5 110.7,0 200.4,-89.8 200.4,-200.5"
         style="fill:#1b1b43;fill-opacity:1;fill-rule:nonzero;stroke:none"
         id="path156" /><path
         d="m 15953.8,11213.1 -107.5,164.5 41.5,-182 -371,-98 -697,-28.2 56.2,553.2 c -178,87.5 -304.2,651.5 371.5,746.5 122.8,17.2 248.8,6.3 362.8,-42 347.5,-147 465,-536.7 497,-1073.5 l -153.5,-40.5"
         style="fill:#1b1b43;fill-opacity:1;fill-rule:nonzero;stroke:none"
         id="path158" /><path
         d="m 15374.6,10627.7 c -150.4,0 -272.3,121.9 -272.3,272.3 v 590.2 h 544.5 V 10900 c 0,-150.4 -121.9,-272.3 -272.2,-272.3"
         style="fill:#ffbc96;fill-opacity:1;fill-rule:nonzero;stroke:none"
         id="path160" /><path
         d="m 15471,11242.3 c -58.3,-171.9 -194.9,-252.3 -368.8,-295.9 v 256.3 l 368.8,39.6"
         style="fill:#1b1b43;fill-opacity:1;fill-rule:nonzero;stroke:none"
         id="path162" /><path
         d="m 15635.3,12063.1 -17.6,-764.6 c 0,0 -321.4,-233.9 -546.4,-166.6 -75.5,22.5 -126.8,108.2 -161.5,214.9 -16.5,50.8 -29.3,106.5 -39.3,162.5 -35.2,201.3 -33.5,406.8 -33.5,406.8 l 798.3,147"
         style="fill:#ffbc96;fill-opacity:1;fill-rule:nonzero;stroke:none"
         id="path164" /><path
         d="m 14977.7,11592.9 c 0,-22.8 -13.6,-41.2 -30.5,-41.2 -16.8,0 -30.4,18.4 -30.4,41.2 0,22.7 13.6,41.1 30.4,41.1 16.9,0 30.5,-18.4 30.5,-41.1"
         style="fill:#1b1b43;fill-opacity:1;fill-rule:nonzero;stroke:none"
         id="path166" /><path
         d="m 15213,11611 c 0,-26.3 -15.4,-47.7 -34.4,-47.7 -19,0 -34.4,21.4 -34.4,47.7 0,26.3 15.4,47.6 34.4,47.6 19,0 34.4,-21.3 34.4,-47.6"
         style="fill:#1b1b43;fill-opacity:1;fill-rule:nonzero;stroke:none"
         id="path168" /><path
         d="m 15290.7,11708 c -1.2,-11.7 -40.3,-14.4 -83.6,-6.8 -43.4,7.6 -80.4,5.4 -73.4,34.2 5.7,23.6 40,21.6 83.4,14 43.3,-7.5 74.7,-31.2 73.6,-41.4"
         style="fill:#1b1b43;fill-opacity:1;fill-rule:nonzero;stroke:none"
         id="path170" /><path
         d="m 14866.6,11681.8 c 1.5,-11.6 34.8,-11 71.3,0 36.5,11.1 68,11.9 60.9,40.1 -5.8,23 -34.8,18.2 -71.3,7.1 -36.5,-11.1 -62.2,-37.2 -60.9,-47.2"
         style="fill:#1b1b43;fill-opacity:1;fill-rule:nonzero;stroke:none"
         id="path172" /><path
         d="m 15351,11422.5 c -49.2,0 -89.1,39.9 -89.1,89 0,49.2 39.9,89.1 89.1,89.1 49.2,0 89.1,-39.9 89.1,-89.1 0,-49.1 -39.9,-89 -89.1,-89"
         style="fill:#ffa988;fill-opacity:1;fill-rule:nonzero;stroke:none"
         id="path174" /><path
         d="m 14909.8,11346.8 v 0 c -16.5,50.8 -29.3,106.5 -39.3,162.5 44.5,-4.9 79,-42.7 79,-88.5 0,-31 -15.7,-57.9 -39.7,-74"
         style="fill:#ffa988;fill-opacity:1;fill-rule:nonzero;stroke:none"
         id="path176" /><path
         d="m 15048.1,11556.5 c 1,-7.9 -0.9,-16.1 -4,-23.2 -3.1,-7.3 -7.2,-13.5 -11.3,-19.2 -8.2,-11.5 -16.2,-21.4 -18.3,-30.4 -1.1,-4.3 -0.7,-8.9 0.4,-13.4 1,-4.5 3.5,-8.5 7.1,-12.4 7.2,-7.7 18.6,-13.5 31,-18.1 l -0.9,-9.7 c -14.7,-1.7 -30.7,1.1 -44.5,11.3 -6.8,5 -12.7,12.5 -15.8,21.2 -2.7,8.5 -3.9,18.1 -1.4,27.1 5.2,17.9 16.9,28.7 26,38.1 9.6,9.6 17.8,17.8 21.9,29.4 l 9.8,-0.7"
         style="fill:#1b1b43;fill-opacity:1;fill-rule:nonzero;stroke:none"
         id="path178" /><path
         d="m 15024.4,11353.7 c 32.9,-104.7 173.5,-51.5 184.4,46.9 l -184.4,-46.9"
         style="fill:#ffffff;fill-opacity:1;fill-rule:nonzero;stroke:none"
         id="path180" /><path
         d="m 14810.4,11794.4 c 235.3,0.4 432.7,22 618.7,112.5 20.1,-153.6 86,-227.7 175,-268.8 l 187.5,156.3 -96.8,315.6 -509.4,28.1 -393.8,-196.9 18.8,-146.8"
         style="fill:#1b1b43;fill-opacity:1;fill-rule:nonzero;stroke:none"
         id="path182" /><path
         d="m 15751.2,11526.3 c -50.6,-72 -132.4,-101.8 -182.5,-66.5 -50.1,35.2 -49.7,122.2 1,194.3 50.7,72 132.4,101.8 182.5,66.5 50.2,-35.2 49.7,-122.2 -1,-194.3"
         style="fill:#ffbc96;fill-opacity:1;fill-rule:nonzero;stroke:none"
         id="path184" /><path
         d="m 15616.7,11538.3 c -3.6,13 -4.7,26.7 -3.1,40.6 1.5,13.9 6.2,28.2 14.8,40.4 8.6,12.3 20.8,21.8 34,27.4 13.2,5.6 27.1,7.8 40.7,7 l 1.7,-9.7 c -11.7,-5.4 -22.6,-10.5 -32.2,-16.8 -9.5,-6.2 -17.6,-13.5 -23.9,-22.2 -6.4,-8.7 -10.7,-19.1 -14.2,-30.3 -3.4,-11.2 -5.5,-23.3 -8,-35.9 l -9.8,-0.5"
         style="fill:#1b1b43;fill-opacity:1;fill-rule:nonzero;stroke:none"
         id="path186" /><path
         d="m 15865.6,12129.8 c -26,15.1 -48.2,32.6 -70.2,49.8 l -63.4,52.3 c -20.8,17.2 -41.4,34.3 -62.8,50.7 -21.4,16.7 -43.5,32.2 -68.2,49.3 30,3.2 60.1,-3.9 87.7,-15.1 27.6,-11.6 52.8,-27.7 75.3,-46.5 22.6,-18.9 42.5,-40.3 59.7,-63.6 17,-23.6 32,-48.6 41.9,-76.9"
         style="fill:#ffa121;fill-opacity:1;fill-rule:nonzero;stroke:none"
         id="path188" /><path
         d="m 14978.1,8796.4 h -662.5 v 195.9 h 662.5 v -195.9"
         style="fill:#1b1b43;fill-opacity:1;fill-rule:nonzero;stroke:none"
         id="path190" /><path
         d="m 14528.1,8796.4 h -1500 l -658.3,1421.9 h 1500 l 658.3,-1421.9"
         style="fill:#ebebff;fill-opacity:1;fill-rule:nonzero;stroke:none"
         id="path192" /><path
         d="m 13972.9,8860 c -35.2,-6.4 -56.2,-35.3 -57.9,-69.6 v 155 c 0,31.3 -22.3,59.8 -53.3,63.3 -35.6,4.1 -65.6,-22.8 -67.2,-57.1 v 62.5 c 0,31.6 -22.8,60.4 -54.2,63.5 -36.2,3.7 -66.7,-24.6 -66.7,-60.1 v -65.9 c -1.6,34.3 -31.6,61.2 -67.2,57.1 -31,-3.5 -53.3,-32 -53.3,-63.3 v -123 c -1.7,31.5 -25.6,70.5 -58.3,73.5 -67.2,6.3 -52.4,-111.8 -52.4,-111.8 19.5,-119.4 54.8,-132.6 126.4,-137.7 111.7,-8 224.9,-7.7 339.3,0.1 72,4.8 83.3,12.6 114.8,119.7 10.6,46.1 1.5,103.1 -50,93.8"
         style="fill:#ffbc96;fill-opacity:1;fill-rule:nonzero;stroke:none"
         id="path194" /><path
         d="m 13554.7,8906.9 c 5,-25.2 6.8,-50.5 7.7,-75.8 0.4,-12.7 0.5,-25.4 0,-38.1 -0.5,-12.7 -1.4,-25.4 -3.6,-38.1 l -7.3,-0.2 c -2.8,12.6 -4.4,25.2 -5.6,37.9 -1.2,12.6 -1.8,25.3 -2.1,37.9 -0.5,25.4 -0.1,50.8 3.5,76.2 l 7.4,0.2"
         style="fill:#d28572;fill-opacity:1;fill-rule:nonzero;stroke:none"
         id="path196" /><path
         d="m 13677.3,8951.7 c 5,-26.8 6.9,-53.7 7.9,-80.5 0.4,-13.5 0.5,-27 0,-40.4 -0.4,-13.5 -1.4,-27 -3.4,-40.5 l -7.4,-0.2 c -2.8,13.4 -4.5,26.8 -5.6,40.2 -1.3,13.4 -1.9,26.9 -2.3,40.3 -0.5,26.9 -0.1,53.9 3.5,80.9 l 7.3,0.2"
         style="fill:#d28572;fill-opacity:1;fill-rule:nonzero;stroke:none"
         id="path198" /><path
         d="m 13798.1,8951.8 c 5.4,-25.4 7.6,-50.8 9,-76.3 0.6,-12.8 0.8,-25.6 0.5,-38.4 -0.3,-12.8 -1,-25.6 -2.9,-38.4 l -7.4,-0.3 c -3,12.6 -4.8,25.3 -6.1,38 -1.4,12.8 -2.3,25.5 -2.8,38.3 -0.8,25.5 -0.8,51.1 2.4,76.7 l 7.3,0.4"
         style="fill:#d28572;fill-opacity:1;fill-rule:nonzero;stroke:none"
         id="path200" /><path
         d="m 13954.7,8852.3 c -5.7,-7.2 -9.6,-16 -13.4,-25 -3.7,-9.1 -7.3,-18.4 -10.8,-27.8 -3.5,-9.3 -7,-18.8 -10.9,-28.2 -3.8,-9.4 -7.9,-18.7 -13,-27.9 l -7,1.9 c 0.3,10.6 2,20.9 4.3,31 2.4,10.1 5.4,20.1 9.2,29.9 3.9,9.7 8.2,19.4 14,28.5 5.8,8.9 12.7,18.2 23.4,23.6 l 4.2,-6"
         style="fill:#d28572;fill-opacity:1;fill-rule:nonzero;stroke:none"
         id="path202" /><path
         d="m 17068.6,12059.8 v -686.5 l -316.6,-225 h 1494.6 v 911.5 h -1178"
         style="fill:#ffffff;fill-opacity:1;fill-rule:nonzero;stroke:none"
         id="path204" /><path
         d="m 16791.1,11160.8 h 1443 v 886.5 h -1153 v -680.5 z m 1468,-25 h -1546.3 l 343.3,243.9 v 692.6 h 1203 v -936.5"
         style="fill:#9192ff;fill-opacity:1;fill-rule:nonzero;stroke:none"
         id="path206" /><path
         d="m 17641.5,11361.7 -192.3,185.2 34.7,36 145.1,-139.7 246.8,452.4 43.9,-23.9 -278.2,-510"
         style="fill:#9192ff;fill-opacity:1;fill-rule:nonzero;stroke:none"
         id="path208" /><path
         d="M 18288.2,3136.2 H 2127.66 v 37.5 H 18288.2 v -37.5"
         style="fill:#1b1b43;fill-opacity:1;fill-rule:nonzero;stroke:none"
         id="path210" /></g></g></svg>
