<?xml version="1.0" encoding="UTF-8" standalone="no"?>
<!-- Created with Inkscape (http://www.inkscape.org/) -->

<svg
   version="1.1"
   id="svg2"
   xml:space="preserve"
   width="2666.6667"
   height="2666.6667"
   viewBox="0 0 2666.6667 2666.6667"
   sodipodi:docname="MyApril6.eps"
   xmlns:inkscape="http://www.inkscape.org/namespaces/inkscape"
   xmlns:sodipodi="http://sodipodi.sourceforge.net/DTD/sodipodi-0.dtd"
   xmlns="http://www.w3.org/2000/svg"
   xmlns:svg="http://www.w3.org/2000/svg"><defs
     id="defs6"><clipPath
       clipPathUnits="userSpaceOnUse"
       id="clipPath156"><path
         d="m 9864.11,13117.6 c 0,-531.5 -430.92,-962.5 -962.49,-962.5 -531.58,0 -962.5,431 -962.5,962.5 0,531.6 430.92,962.5 962.5,962.5 531.57,0 962.49,-430.9 962.49,-962.5"
         id="path154" /></clipPath><clipPath
       clipPathUnits="userSpaceOnUse"
       id="clipPath194"><path
         d="m 5398.38,9614.2 -4.63,19.6 -11.41,48.6 c 203.73,4.9 430.48,26.6 664.72,74.8 -94.44,-24.4 -360.73,-90.9 -648.68,-143"
         id="path192" /></clipPath><clipPath
       clipPathUnits="userSpaceOnUse"
       id="clipPath328"><path
         d="m 15233.6,9771.1 c -10.6,0 -21.2,0.5 -31.9,1.7 v 0 c -1.2,8.2 -1.7,16.7 -1.7,25.2 0,107 86.7,193.8 193.7,193.8 50.3,0 96.3,-19.3 130.5,-50.5 -77.2,-113.3 -183.9,-170.2 -290.6,-170.2"
         id="path326" /></clipPath></defs><sodipodi:namedview
     id="namedview4"
     pagecolor="#ffffff"
     bordercolor="#666666"
     borderopacity="1.0"
     inkscape:pageshadow="2"
     inkscape:pageopacity="0.0"
     inkscape:pagecheckerboard="0" /><g
     id="g8"
     inkscape:groupmode="layer"
     inkscape:label="ink_ext_XXXXXX"
     transform="matrix(1.3333333,0,0,-1.3333333,0,2666.6667)"><g
       id="g10"
       transform="scale(0.1)"><path
         d="M 0,0 H 20000 V 20000 H 0 Z"
         style="fill:#ffffff;fill-opacity:1;fill-rule:nonzero;stroke:none"
         id="path12" /><path
         d="m 16285.6,4506 -21.2,13 c 1211.4,1970.2 1842.6,3750.2 1876.3,5290.7 34.8,1593.2 -583,2567.3 -1107.3,3104 -503.6,515.4 -1162.8,873.9 -1856.4,1009.5 -650.1,127.1 -1286.4,46.4 -1745.7,-221.5 l -12.6,21.6 c 464.5,270.9 1107.2,352.8 1763.1,224.5 698.5,-136.6 1362.4,-497.6 1869.5,-1016.6 527.7,-540.1 1149.4,-1520.2 1114.4,-3122 -33.7,-1545 -666.3,-3329.3 -1880.1,-5303.2"
         style="fill:#e5e5ff;fill-opacity:1;fill-rule:nonzero;stroke:none"
         id="path14" /><path
         d="M 15865.5,3787.5 H 7791.75 v 1100.3 h 112.93 v 268.5 H 6670.99 L 6612.63,6901 H 13597 c 16.1,-429.1 26,-775.9 11.3,-926 -50.3,-512.2 -73,-1098 262,-1220 14.7,-5.3 30.2,-9.7 46.4,-13.2 0,0 159.3,-11.2 297.5,-11.2 69.1,0 133,2.8 169.1,11.2 5.5,1.2 11.4,2.7 17.9,4.9 135.5,39.6 436.8,213.8 357.1,611.6 -50,250 -142.1,1471.7 -207.6,2409.2 268.8,-972.8 608.1,-2061.5 909,-2610 49.1,-89.2 152.9,-123.9 259.1,-123.9 20.9,0 42,1.3 62.7,3.9 25.2,3 50,7.8 73.8,14.3 135,36.5 288.7,68.7 402.7,156.5 22.3,16.7 43,35.9 61.7,57.7 125,144.3 40,367.5 3.5,533.7 -68.7,314.1 -224.9,581.5 -328.2,881.3 -172,500.5 -611.2,1809 -834.2,2760.8 -22.8,96.2 -43,189 -60.8,277 l -562.5,-17.1 v 1789.6 l 500,-122.5 c 272.9,325 63.9,491.9 -66.7,677 -114.6,162.5 -10.4,331.3 -141.6,654.2 -68.2,167.8 -180.4,244.2 -291.7,274.9 v 810 c 1221.5,-263.8 2197.3,-1166.7 2719.2,-2297.5 624.6,-1353.1 628.7,-2875.7 240.8,-4295.5 -109.5,-400.7 -248.4,-797.2 -411.7,-1186.9 -235,-482.1 -508.9,-977.7 -821.4,-1486 l 21.2,-13 c 217.6,353.8 416.6,701.6 596.7,1043 -288.8,-610.2 -634.4,-1200.8 -1016.8,-1761.5 m -663.8,5985.3 v 0 c 10.7,-1.2 21.3,-1.7 31.9,-1.7 106.7,0 213.4,56.9 290.6,170.2 v 0 0 c 57.8,84.2 99.6,199.7 113.3,346.2 41.7,445.8 132.5,1018 200,1150 95.7,187.5 250,362.5 229.2,391.8 -5.2,7.3 -13.6,10.4 -24.3,10.4 -74.3,0 -259.1,-152.2 -259.1,-152.2 0,0 -24.1,94.9 -69,94.9 -15,0 -32.3,-10.5 -51.8,-38.6 0,0 -26.7,44 -59.1,44 -17.2,0 -36.1,-12.4 -53.4,-50.3 0,0 -22.5,23.8 -48.6,23.8 -15.1,0 -31.4,-8 -45.2,-33.3 0,0 -13.6,13.1 -32.1,13.1 -25,0 -58.8,-23.7 -80.3,-134.8 -33.5,-173.8 -72.3,-435 -97.8,-665.3 -3,-26.7 -6,-52.7 -8.5,-78.5 0,0 -187.5,-9.5 -306.2,-75 0,0 -6.6,-43.7 -13.5,-112.7 -22.5,-229.3 -48.3,-738.8 153,-858.1 41.7,-24.7 85.9,-39.5 130.9,-43.9 M 6258.25,3787.5 H 3972.8 c -91.04,0 -394.71,832.9 -438.76,937.6 -899.16,2136.7 -1462.76,4894.7 -442.38,7087.4 414.44,890.6 1322.05,1998.9 2270.84,2376.2 v -1161.2 l -175,-2.5 -158.33,-487.5 204.16,-229.2 129.17,-5.3 v -447.7 l -104.16,28 -219.51,-65.5 -45.08,-9.5 v 0 l -338.16,-136.1 c -98.25,-39.5 -176.68,-116.6 -217.88,-214.2 l -283.84,-679.3 c -56.88,-136.2 -19.01,-293.5 93.6,-388.8 62.09,-52.6 139.86,-80.2 218.73,-80.2 39.24,0 78.74,6.9 116.74,20.8 l 107.76,39.6 c 1.64,-142.7 -4.17,-257.2 -24.04,-293.8 -66.66,-122.8 -216.66,-219.3 -125,-289.5 12.25,-9.4 35.8,-19.7 69.27,-30.1 -5.87,-33.2 -10.96,-68.4 -15.43,-105.5 -3.25,-27.7 -6.25,-56.5 -9,-86.5 -44,-481 -15.75,-1239.2 -186.5,-2227.2 l -662.5,-2400 712.5,-275 847.75,2344.7 c 28.82,79.7 50.47,162 64.75,245.5 v -31.2 c 0,-176.7 143.8,-320.5 320.55,-320.5 h 73.68 l 135.02,-2301 366.5,28.8 v -841.3"
         style="fill:#f5f5ff;fill-opacity:1;fill-rule:nonzero;stroke:none"
         id="path16" /><path
         d="m 16285.6,4506 -21.2,13 c 312.5,508.3 586.4,1003.9 821.4,1486 -64.2,-153.1 -132.1,-305.1 -203.5,-456 -180.1,-341.4 -379.1,-689.2 -596.7,-1043"
         style="fill:#e5e5ff;fill-opacity:1;fill-rule:nonzero;stroke:none"
         id="path18" /><path
         d="M 2788.1,7083.7 C 2321.14,8539.8 2115.54,9806 2177,10847.1 c 51.12,865.9 286.86,1585 700.65,2137.5 948.11,1265.8 2531.72,1240.8 2547.67,1240.4 l -0.64,-25 c -15.38,0.5 -1587.03,24.9 -2527.22,-1230.6 -410.73,-548.5 -644.74,-1263.2 -695.52,-2124.1 -61.23,-1037.9 143.98,-2300.9 609.96,-3754 l -23.8,-7.6"
         style="fill:#e5e5ff;fill-opacity:1;fill-rule:nonzero;stroke:none"
         id="path20" /><path
         d="M 14217,6913.5 H 5683.05 c -170.13,0 -308.05,137.9 -308.05,308 v 8301 c 0,170.2 137.92,308.1 308.05,308.1 H 14217 c 170.1,0 308,-137.9 308,-308.1 v -8301 c 0,-170.1 -137.9,-308 -308,-308"
         style="fill:#e5e5ff;fill-opacity:1;fill-rule:nonzero;stroke:none"
         id="path22" /><path
         d="m 5683.05,15818.1 c -162.97,0 -295.55,-132.6 -295.55,-295.6 v -8301 c 0,-162.9 132.58,-295.5 295.55,-295.5 h 8533.85 c 163,0 295.6,132.6 295.6,295.5 v 8301 c 0,163 -132.6,295.6 -295.6,295.6 H 5683.05 M 14216.9,6901 H 5683.05 c -176.75,0 -320.55,143.8 -320.55,320.5 v 8301 c 0,176.8 143.8,320.6 320.55,320.6 h 8533.85 c 176.8,0 320.6,-143.8 320.6,-320.6 v -8301 c 0,-176.7 -143.8,-320.5 -320.6,-320.5"
         style="fill:#cbcbff;fill-opacity:1;fill-rule:nonzero;stroke:none"
         id="path24" /><path
         d="m 13475,14649.4 h -1950 v 142.3 h 1950 v -142.3"
         style="fill:#9192ff;fill-opacity:1;fill-rule:nonzero;stroke:none"
         id="path26" /><path
         d="m 14019.4,14036.9 h -3106.9 v 142.3 h 3106.9 v -142.3"
         style="fill:#b7b7ff;fill-opacity:1;fill-rule:nonzero;stroke:none"
         id="path28" /><path
         d="m 13710.8,13616.1 h -2798.3 v 142.2 h 2798.3 v -142.2"
         style="fill:#b7b7ff;fill-opacity:1;fill-rule:nonzero;stroke:none"
         id="path30" /><path
         d="m 13389.5,13195.2 h -2477 v 142.3 h 2477 v -142.3"
         style="fill:#cbcbff;fill-opacity:1;fill-rule:nonzero;stroke:none"
         id="path32" /><path
         d="m 14019.4,12774.4 h -3106.9 v 142.3 h 3106.9 v -142.3"
         style="fill:#cbcbff;fill-opacity:1;fill-rule:nonzero;stroke:none"
         id="path34" /><path
         d="m 13205.9,12353.6 h -2293.4 v 142.2 h 2293.4 v -142.2"
         style="fill:#cbcbff;fill-opacity:1;fill-rule:nonzero;stroke:none"
         id="path36" /><path
         d="m 6034.57,10045.2 h 2981.9 v 142.289 h -2981.9 z"
         style="fill:#b7b7ff;fill-opacity:1;fill-rule:nonzero;stroke:none"
         id="path38" /><path
         d="m 6043.14,9657.7 h 7710.06 v 142.301 H 6043.14 Z"
         style="fill:#cbcbff;fill-opacity:1;fill-rule:nonzero;stroke:none"
         id="path40" /><path
         d="m 6039.26,10991.4 h 3590.88 v 3800.26 H 6039.26 Z"
         style="fill:#ffffff;fill-opacity:1;fill-rule:nonzero;stroke:none"
         id="path42" /><path
         d="m 6613.64,11407.3 h -249.66 v 874 h 249.66 v -874"
         style="fill:#b7b7ff;fill-opacity:1;fill-rule:nonzero;stroke:none"
         id="path44" /><path
         d="m 7062.27,11407.3 h -249.66 v 750.8 h 249.66 v -750.8"
         style="fill:#e0e0ff;fill-opacity:1;fill-rule:nonzero;stroke:none"
         id="path46" /><path
         d="m 7510.9,11407.3 h -249.65 v 1226.9 h 249.65 v -1226.9"
         style="fill:#b7b7ff;fill-opacity:1;fill-rule:nonzero;stroke:none"
         id="path48" /><path
         d="m 7709.87,11407.3 h 249.66 v 1139.08 h -249.66 z"
         style="fill:#e0e0ff;fill-opacity:1;fill-rule:nonzero;stroke:none"
         id="path50" /><path
         d="M 8408.16,11407.3 H 8158.5 v 1532.3 h 249.66 v -1532.3"
         style="fill:#b7b7ff;fill-opacity:1;fill-rule:nonzero;stroke:none"
         id="path52" /><path
         d="M 8856.79,11407.3 H 8607.13 V 13152 h 249.66 v -1744.7"
         style="fill:#e0e0ff;fill-opacity:1;fill-rule:nonzero;stroke:none"
         id="path54" /><path
         d="m 9305.42,11407.3 h -249.66 v 1934.1 h 249.66 v -1934.1"
         style="fill:#b7b7ff;fill-opacity:1;fill-rule:nonzero;stroke:none"
         id="path56" /><path
         d="m 6893.84,12760.5 -471.49,188.6 9.01,22.5 458.1,-183.3 466.79,386.3 435.42,-10.1 1312.52,810.5 12.74,-20.6 -1318.64,-814.3 -433.54,10.1 -470.91,-389.7"
         style="fill:#b7b7ff;fill-opacity:1;fill-rule:nonzero;stroke:none"
         id="path58" /><path
         d="m 6830.75,13825.8 h -512.23 v 213 h 512.23 v -213"
         style="fill:#b7b7ff;fill-opacity:1;fill-rule:nonzero;stroke:none"
         id="path60" /><path
         d="M 7479.16,13891.7 H 7000 v 25 h 479.16 v -25"
         style="fill:#b7b7ff;fill-opacity:1;fill-rule:nonzero;stroke:none"
         id="path62" /><path
         d="m 13700.2,11290.8 c 0,-308.9 -250.3,-559.2 -559.2,-559.2 -308.8,0 -559.2,250.3 -559.2,559.2 0,308.8 250.4,559.2 559.2,559.2 308.9,0 559.2,-250.4 559.2,-559.2"
         style="fill:#ffffff;fill-opacity:1;fill-rule:nonzero;stroke:none"
         id="path64" /><path
         d="m 11547.5,10731.6 c -308.8,0 -559.2,250.3 -559.2,559.1 0,279.3 204.9,511 472.7,552.8 28.1,4.3 57,6.6 86.5,6.6 165.5,0 314.1,-72 416.3,-186.2 88.9,-99.1 142.9,-229.9 142.9,-373.2 0,-308.8 -250.4,-559.1 -559.2,-559.1"
         style="fill:#ffffff;fill-opacity:1;fill-rule:nonzero;stroke:none"
         id="path66" /><path
         d="m 11547.5,11290.7 -86.5,552.8 c 28.1,4.3 57,6.6 86.5,6.6 165.5,0 314.1,-72 416.3,-186.2 l -416.3,-373.2"
         style="fill:#b7b7ff;fill-opacity:1;fill-rule:nonzero;stroke:none"
         id="path68" /><path
         d="m 13774,9125.2 v -1475 H 6100.2 v 1475 H 13774"
         style="fill:#ffffff;fill-opacity:1;fill-rule:nonzero;stroke:none"
         id="path70" /><path
         d="M 6122.67,7646.9 H 13777.5 V 9103.1 H 6122.67 Z m 7673.63,-18.8 H 6103.92 V 9121.9 H 13796.3 V 7628.1"
         style="fill:#b7b7ff;fill-opacity:1;fill-rule:nonzero;stroke:none"
         id="path72" /><path
         d="M 13786.9,7923.1 H 6113.29 v 18.8 h 7673.61 v -18.8"
         style="fill:#b7b7ff;fill-opacity:1;fill-rule:nonzero;stroke:none"
         id="path74" /><path
         d="M 13786.9,8218.1 H 6113.29 v 18.8 h 7673.61 v -18.8"
         style="fill:#b7b7ff;fill-opacity:1;fill-rule:nonzero;stroke:none"
         id="path76" /><path
         d="M 13786.9,8513.1 H 6113.29 v 18.8 h 7673.61 v -18.8"
         style="fill:#b7b7ff;fill-opacity:1;fill-rule:nonzero;stroke:none"
         id="path78" /><path
         d="M 13786.9,8808.1 H 6113.29 v 18.8 h 7673.61 v -18.8"
         style="fill:#b7b7ff;fill-opacity:1;fill-rule:nonzero;stroke:none"
         id="path80" /><path
         d="m 12517.4,7637.5 h -18.8 v 1475 h 18.8 v -1475"
         style="fill:#b7b7ff;fill-opacity:1;fill-rule:nonzero;stroke:none"
         id="path82" /><path
         d="m 11238.4,7637.5 h -18.7 v 1475 h 18.7 v -1475"
         style="fill:#b7b7ff;fill-opacity:1;fill-rule:nonzero;stroke:none"
         id="path84" /><path
         d="m 9959.48,7637.5 h -18.75 v 1475 h 18.75 v -1475"
         style="fill:#b7b7ff;fill-opacity:1;fill-rule:nonzero;stroke:none"
         id="path86" /><path
         d="m 8680.54,7637.5 h -18.75 v 1475 h 18.75 v -1475"
         style="fill:#b7b7ff;fill-opacity:1;fill-rule:nonzero;stroke:none"
         id="path88" /><path
         d="m 7401.6,7637.5 h -18.75 v 1475 h 18.75 v -1475"
         style="fill:#b7b7ff;fill-opacity:1;fill-rule:nonzero;stroke:none"
         id="path90" /><path
         d="m 6324.05,7871.1 c 111.56,155.4 135.67,355.5 235.32,519.2 48.62,79.8 112.98,159 202.03,194.7 153.51,61.5 192.67,-136.6 195.93,-246.6 4.81,-161.8 -22.04,-337.4 111.65,-459 44.62,-40.5 103.65,-64.6 163.9,-48.6 72.21,19.2 117.14,85.3 152.88,146.1 102.33,174 167.34,373.4 238.42,561.6 35.91,95 81.56,216.8 175.61,270 134.06,76 148.73,-92 148.4,-180.5 -0.35,-97.1 0.67,-194.1 1.51,-291.1 0.4,-46.6 -9.2,-143.9 45.61,-169.9 32.25,-15.3 57.81,13.9 75.9,37.4 15.73,20.4 26.67,44.3 42.36,64.5 14.79,19.2 27.94,30.7 54.59,32.9 24.49,2 36.2,2.3 52.84,-20.2 9.26,-12.6 13.57,-30.3 17.48,-45 19.27,-72.8 -0.53,-155.3 40.71,-222.5 22.95,-37.4 72.32,-74.7 118.73,-67.4 93.67,14.8 117.48,167.4 128.72,240.8 15.04,98.2 29.1,195.8 56.14,291.6 27.23,96.5 62.55,211.8 135.92,284 27.94,27.4 66.4,54.8 107.73,50.2 60.36,-6.8 79.25,-74.9 94.01,-123.7 33.3,-110.3 53.25,-225.6 53.16,-340.9 -0.06,-79.7 -23.23,-179.4 29.86,-248.3 28.48,-37 76.81,-58.2 123.06,-46.7 67.57,16.8 83.91,82.5 97.63,141.9 2.73,11.9 4.8,24.1 9.25,35.4 13.17,33.6 18.41,37.5 54.59,39 39.82,1.6 41.38,-7.8 47.78,-40.8 6.45,-33.2 3.11,-66.8 13.12,-99.7 12.66,-41.6 41.89,-79.9 90.03,-65.5 44.43,13.2 68.2,60.7 82.88,100.9 42.19,115.4 38.27,243.2 44.56,364 4.17,80.1 10.61,166 47.57,238.7 24.04,47.2 95.06,123.7 149.94,73.9 71.44,-64.9 64.47,-223 66.11,-310.3 3.5,-187.3 -27.93,-375.4 -1.74,-562 9.79,-69.8 29.61,-174 107.07,-200.5 107.29,-36.5 186.29,80.3 214.79,165.7 22.7,67.9 27.9,139 44,208.4 8.5,36.4 21.4,103 71.2,82.2 42.9,-17.9 60.6,-78.6 98.4,-106.1 121.8,-88.6 196.4,84.3 210.8,177.9 20.9,136.8 -0.7,287.5 50.5,418.3 13,33.1 33.3,68.2 63.7,88.2 74.4,49.1 147.8,-18.7 170.2,-88.1 17,-52.5 13.8,-111.6 14.8,-166.2 1.1,-59.2 2.7,-118.4 3.8,-177.7 1.8,-97.9 -7,-197.8 -0.7,-295.3 4.3,-67.8 30,-129.5 88.6,-167.8 147,-96 318.9,53.8 412.7,159 106.6,119.5 178.3,261.5 233.5,410.5 27.9,75.3 55.8,152.3 99.4,220.2 23.9,37.3 90.5,126.8 145.1,102.1 35.6,-16.1 47.4,-80.5 55.1,-113.6 12.9,-56 19.1,-113.4 23.7,-170.6 8.9,-108.7 9.5,-217.7 11.5,-326.8 1.7,-92.3 9.5,-231.5 112.1,-268.9 160.2,-58.3 236.6,171.1 281,277.1 36.7,87.8 81.5,206.8 166.9,259 72.7,44.4 123.3,-24 150.1,-84.9 25.8,-58.4 39.1,-123.3 39.9,-187 0.6,-44.4 -2.9,-100.2 45.8,-121.6 106.3,-46.9 203.1,129 244.5,198.3 37.6,63.2 66.2,129.4 97.8,195.7 39.7,83.3 169.6,242.5 223.6,82.9 20.4,-60.2 13.3,-125.2 9.3,-187.5 -4.6,-70.5 -9.6,-141.3 -7.4,-212.1 2.5,-81.8 17.4,-260.1 140.7,-241.2 74.8,11.5 151.8,93.8 207.8,140.5 82.1,68.4 159.5,142 233,219.5 11,11.7 -6.6,29.4 -17.7,17.7 -73.5,-77.6 -150.9,-151.1 -233,-219.5 -43.9,-36.7 -88.7,-73.8 -136.1,-105.8 -61.8,-41.6 -122.2,-22.8 -146.9,41 -48.4,125 -18.9,279.7 -12.4,409.9 3.9,77.3 -5.8,254.5 -124.4,233 -71,-12.9 -120.1,-89.5 -149.8,-148.6 -33.6,-67 -61.2,-135.9 -99,-200.9 -37.6,-64.4 -80.9,-141 -143.4,-184.3 -47.2,-32.6 -102.5,-17.2 -107.8,46.2 -2.4,28.9 0.7,57.7 -2.7,86.8 -9.9,83.9 -41.8,222.6 -132.7,256.5 -126,47.2 -217.9,-165 -253.8,-248 -36.7,-85.1 -65.2,-194 -133.1,-260.3 -47.9,-46.8 -125.6,-63 -174.6,-8.9 -35.8,39.6 -44.8,101.9 -49.8,152.8 -19.5,197.6 10,401.8 -46.4,595.5 -16.3,55.9 -47.2,124.9 -116.4,100.4 -115.9,-41 -168.7,-191.6 -208.2,-295.4 -63.1,-165.9 -133,-324.7 -256.1,-456.5 -71,-76.1 -173.9,-170.2 -284.9,-167.9 -145.8,2.9 -164,148.4 -159.8,259.9 4.1,109 -0.2,218.4 -2.6,327.4 -1.9,87.9 9.9,192.6 -33.5,273 -27.6,51.1 -86.2,91.9 -146.6,81.2 -51.4,-9.1 -89.5,-57.4 -110.3,-101.9 -55.8,-119.7 -41,-264 -53.6,-392.1 -7.2,-73.1 -20.2,-198.5 -105.8,-224 -107.7,-32 -111.1,129.8 -201.7,132.9 -96,3.3 -96.8,-227.3 -113.4,-288 -20.5,-74.9 -59.5,-164.2 -144.77,-180.5 -52.74,-10 -87.87,23.2 -108.35,68.5 -46.58,103.1 -40.85,233.1 -37.96,343.6 2.16,82.5 9.53,164.7 10.98,247.3 1.56,88.9 19.26,471.1 -150.44,430.1 -117.4,-28.3 -147.46,-179.9 -157.9,-280.4 -13.91,-133.8 -2.15,-270.9 -40.34,-401.6 -9.93,-34 -23.11,-73.3 -51.55,-96.4 -29.64,-24 -64.98,-3.5 -79.58,27.5 -9.91,21 -9.44,47.5 -11.38,69.9 -3.29,38.1 -8.08,94.7 -50.47,110.7 -49.02,18.4 -89.2,-31.7 -103.95,-71.9 -18.27,-49.9 -12.3,-115.4 -62.94,-148.5 -50.83,-33.1 -110.48,-1.9 -134.99,47.2 -25.54,51.1 -16.32,113.4 -13.84,168.4 2.52,55.8 0.13,111.6 -6.29,167.2 -10.88,94.1 -28.5,197.3 -67.19,284.5 -53.39,120.2 -172.32,88.2 -243.11,1.9 -120.16,-146.6 -150.4,-369.5 -176.44,-550.4 -8.35,-58 -19.39,-118.2 -45.33,-171.3 -13.31,-27.2 -32.4,-59.3 -64.77,-64.8 -54.14,-9.2 -98.94,53.2 -110.82,97.6 -19.32,72.1 -1.08,328 -151.28,249.5 -46.63,-24.4 -51.09,-82.6 -90.85,-111.9 -62.18,-45.7 -66,55.4 -66.44,94.6 -0.67,58.7 -1.02,117.5 -1.52,176.2 -0.68,78.9 5.33,160.8 -4.28,239.3 -6.14,50.1 -21.42,108.4 -73.14,129.1 -139.99,55.9 -244.44,-170.1 -282,-264.8 -79.66,-200.9 -143.48,-415.6 -255.54,-601.4 -61.53,-102 -166.45,-178.5 -271.86,-83 -75.32,68.3 -103.04,168.5 -105.01,266.8 -2.57,127.6 35.65,385.7 -117.37,452 -133.34,57.8 -274.66,-126.1 -331.06,-220.7 -96.36,-161.6 -121.28,-359 -230.76,-511.5 -9.39,-13.1 12.28,-25.6 21.59,-12.6"
         style="fill:#9192ff;fill-opacity:1;fill-rule:nonzero;stroke:none"
         id="path92" /><path
         d="m 13778.8,3787.5 h -1889 c -72.4,0 -131.2,58.7 -131.2,131.2 v 1243.8 c 0,72.5 58.8,131.2 131.2,131.2 h 1889 c 72.5,0 131.3,-58.7 131.3,-131.2 V 3918.7 c 0,-72.5 -58.8,-131.2 -131.3,-131.2"
         style="fill:#e0e0ff;fill-opacity:1;fill-rule:nonzero;stroke:none"
         id="path94" /><path
         d="M 13862.6,4617.3 H 11806 v 23.8 h 2056.6 v -23.8"
         style="fill:#b7b7ff;fill-opacity:1;fill-rule:nonzero;stroke:none"
         id="path96" /><path
         d="m 12685.4,4617.3 v -21.9 c 0,-82.1 66.8,-148.8 148.9,-148.8 82.1,0 148.9,66.7 148.9,148.8 v 21.9 z m 148.9,-194.6 c -95.2,0 -172.7,77.5 -172.7,172.7 v 45.7 h 345.4 v -45.7 c 0,-95.2 -77.4,-172.7 -172.7,-172.7"
         style="fill:#b7b7ff;fill-opacity:1;fill-rule:nonzero;stroke:none"
         id="path98" /><path
         d="m 13241.3,5216.8 h -23.8 v 308.9 c 0,41.6 -33.9,75.5 -75.5,75.5 h -615.3 c -41.6,0 -75.5,-33.9 -75.5,-75.5 v -308.9 h -23.8 v 308.9 c 0,54.8 44.5,99.3 99.3,99.3 h 615.3 c 54.7,0 99.3,-44.5 99.3,-99.3 v -308.9"
         style="fill:#b7b7ff;fill-opacity:1;fill-rule:nonzero;stroke:none"
         id="path100" /><path
         d="m 12498,5168.7 h -116.1 v 125 h 116.1 v -125"
         style="fill:#b7b7ff;fill-opacity:1;fill-rule:nonzero;stroke:none"
         id="path102" /><path
         d="m 13287.1,5168.7 h -116.2 v 125 h 116.2 v -125"
         style="fill:#b7b7ff;fill-opacity:1;fill-rule:nonzero;stroke:none"
         id="path104" /><path
         d="m 6258.25,3787.5 h 1533.5 v 1278.3 h -1533.5 z"
         style="fill:#e0e0ff;fill-opacity:1;fill-rule:nonzero;stroke:none"
         id="path106" /><path
         d="m 6145.31,4887.8 h 1759.37 v 268.5 H 6145.31 Z"
         style="fill:#b7b7ff;fill-opacity:1;fill-rule:nonzero;stroke:none"
         id="path108" /><path
         d="m 7791.75,3787.5 h -1533.5 v 841.3 l 194.25,15.2 c 251.43,-289.2 730.45,-742.6 1339.25,-856.5"
         style="fill:#c7c7ff;fill-opacity:1;fill-rule:nonzero;stroke:none"
         id="path110" /><path
         d="m 16306.6,14711.5 c -525.1,0 -950.8,-425.7 -950.8,-950.8 0,-327.4 165.5,-616.1 417.4,-787.1 l -36.5,-438 356.9,298.6 c 68.5,-15.7 139.7,-24.3 213,-24.3 525.1,0 950.8,425.7 950.8,950.8 0,525.1 -425.7,950.8 -950.8,950.8"
         style="fill:#ffffff;fill-opacity:1;fill-rule:nonzero;stroke:none"
         id="path112" /><path
         d="m 16306.6,14699 c -517.4,0 -938.3,-420.9 -938.3,-938.3 0,-311.3 154,-601.6 411.9,-776.8 l 6,-4.1 -34.6,-415.4 338.7,283.4 6,-1.4 c 69.4,-15.9 140.1,-24 210.3,-24 517.4,0 938.3,421 938.3,938.3 0,517.4 -420.9,938.3 -938.3,938.3 z m -584.9,-2192.2 38.4,460.6 c -261.1,180.2 -416.8,476.2 -416.8,793.3 0,531.2 432.1,963.3 963.3,963.3 531.2,0 963.3,-432.1 963.3,-963.3 0,-531.1 -432.1,-963.3 -963.3,-963.3 -70,0 -140.5,7.8 -209.8,23.2 l -375.1,-313.8"
         style="fill:#5254cf;fill-opacity:1;fill-rule:nonzero;stroke:none"
         id="path114" /><path
         d="m 16468.4,13267.3 h -282.7 v 293.4 h 282.7 v -293.4"
         style="fill:#ffffff;fill-opacity:1;fill-rule:nonzero;stroke:none"
         id="path116" /><path
         d="m 16198.2,13279.8 h 257.7 v 268.4 h -257.7 z m 282.7,-25 h -307.7 v 318.4 h 307.7 v -318.4"
         style="fill:#5254cf;fill-opacity:1;fill-rule:nonzero;stroke:none"
         id="path118" /><path
         d="m 16556.4,13763.4 c 0,130.3 -108.6,235.2 -240.2,229.1 -119.8,-5.5 -217,-106.3 -218.5,-226.2 -0.5,-42.7 10.6,-82.6 30.5,-117 35.6,-61.8 57.5,-130.5 57.5,-201.8 v -52.2 h 282.7 v 54.3 c 0,70.3 21.7,138.1 57.1,199 19.7,33.7 30.9,72.9 30.9,114.8"
         style="fill:#ffffff;fill-opacity:1;fill-rule:nonzero;stroke:none"
         id="path120" /><path
         d="m 16198.2,13407.8 h 257.7 v 41.8 c 0,69.1 19.8,138.2 58.8,205.2 19.1,32.9 29.2,70.4 29.2,108.6 0,59.8 -23.8,115.5 -67.1,156.9 -43.2,41.3 -99.5,62.6 -160,59.8 -112.5,-5.2 -205.2,-101.2 -206.6,-214 -0.5,-38.8 9.5,-77.1 28.8,-110.5 39.3,-68.2 59.2,-138.2 59.2,-208.1 z m 282.7,-25 h -307.7 v 64.7 c 0,65.5 -18.8,131.3 -55.9,195.6 -21.5,37.3 -32.6,80 -32.1,123.3 1.5,125.8 104.9,232.9 230.4,238.6 67.4,3.1 130.3,-20.6 178.5,-66.7 48.3,-46 74.8,-108.2 74.8,-174.9 0,-42.6 -11.3,-84.5 -32.6,-121.1 -36.7,-63.2 -55.4,-128 -55.4,-192.7 v -66.8"
         style="fill:#5254cf;fill-opacity:1;fill-rule:nonzero;stroke:none"
         id="path122" /><path
         d="m 16274.7,13790.3 c -17.7,-25.3 -47.5,-35 -66.5,-21.7 -19,13.3 -20,44.7 -2.3,70 17.8,25.3 47.6,35 66.6,21.7 19,-13.3 20,-44.6 2.2,-70"
         style="fill:#ffffff;fill-opacity:1;fill-rule:nonzero;stroke:none"
         id="path124" /><path
         d="m 16252.8,13853.8 c -3.2,0 -6.6,-0.6 -10.1,-1.7 -9.9,-3.3 -19.6,-10.8 -26.5,-20.7 -7,-9.9 -10.8,-21.5 -10.4,-31.9 0.3,-9.2 3.7,-16.5 9.6,-20.6 5.9,-4.1 13.9,-4.9 22.6,-2 10,3.2 19.4,10.6 26.5,20.6 7,9.9 10.7,21.6 10.4,31.9 -0.3,9.2 -3.7,16.5 -9.6,20.7 -3.5,2.4 -7.8,3.7 -12.5,3.7 z m -25,-103.7 c -9.8,0 -19,2.8 -26.8,8.3 -12.5,8.7 -19.7,23.1 -20.2,40.3 -0.5,15.9 4.8,32.6 14.9,47.1 10.2,14.4 24,25.1 39.2,30 16.2,5.3 32.5,3.4 44.8,-5.2 12.3,-8.7 19.7,-23.4 20.2,-40.4 0.5,-15.9 -4.8,-32.6 -14.9,-47 -10.2,-14.5 -24.1,-25.2 -39.2,-30.1 -6.1,-2 -12.2,-3 -18,-3"
         style="fill:#5254cf;fill-opacity:1;fill-rule:nonzero;stroke:none"
         id="path126" /><path
         d="m 16013.6,14032.6 -142.4,113.1 15.5,19.6 142.4,-113.1 -15.5,-19.6"
         style="fill:#5254cf;fill-opacity:1;fill-rule:nonzero;stroke:none"
         id="path128" /><path
         d="m 16301,14159.1 -7.8,244 25,0.8 7.8,-244 -25,-0.8"
         style="fill:#5254cf;fill-opacity:1;fill-rule:nonzero;stroke:none"
         id="path130" /><path
         d="m 16608.4,14052.9 -17.4,18 147.4,143.5 17.5,-17.9 -147.5,-143.6"
         style="fill:#5254cf;fill-opacity:1;fill-rule:nonzero;stroke:none"
         id="path132" /><path
         d="m 4376.08,13510.5 c 0,461.7 -374.27,836 -835.96,836 -461.69,0 -835.96,-374.3 -835.96,-836 0,-461.7 374.27,-835.9 835.96,-835.9 75.86,0 149.28,10.3 219.15,29.2 l 290.19,-242.8 -30.38,364.6 c 215.78,151.1 357,401.5 357,684.9"
         style="fill:#ffffff;fill-opacity:1;fill-rule:nonzero;stroke:none"
         id="path134" /><path
         d="m 3762.3,12717.6 272.22,-227.8 -28.49,341.9 5.87,4.1 c 220.22,154.3 351.68,406.5 351.68,674.7 0,454.1 -369.4,823.5 -823.45,823.5 -454.06,0 -823.47,-369.4 -823.47,-823.5 0,-454 369.41,-823.4 823.47,-823.4 72.75,0 145.38,9.7 215.88,28.8 z m 302.1,-285.4 -308.16,257.9 c -70.65,-18.6 -143.32,-28 -216.11,-28 -467.85,0 -848.47,380.6 -848.47,848.4 0,467.9 380.62,848.5 848.47,848.5 467.84,0 848.45,-380.6 848.45,-848.5 0,-273.9 -133.11,-531.7 -356.45,-691 l 32.27,-387.3"
         style="fill:#5254cf;fill-opacity:1;fill-rule:nonzero;stroke:none"
         id="path136" /><path
         d="m 3529.1,13249.8 -237.02,237 17.68,17.6 211.16,-211.1 244.75,557.5 22.9,-10 -259.47,-591"
         style="fill:#5254cf;fill-opacity:1;fill-rule:nonzero;stroke:none"
         id="path138" /><path
         d="m 8086.89,12414.8 -224.2,-131.2 -2383.62,-1396.8 c -73.34,-43 -159.2,-32.8 -193.23,22.9 l -0.1,0.2 c -34.03,55.7 -3.82,136.7 67.93,182.3 l 2326.69,1479.4 223.88,142.3 182.65,-299.1"
         style="fill:#5254cf;fill-opacity:1;fill-rule:nonzero;stroke:none"
         id="path140" /><path
         d="m 7862.69,12283.6 c -43.75,41.9 -82.2,89.5 -114.63,142.6 -28.32,46.4 -50.81,95.2 -67.7,145.4 l 223.88,142.3 182.65,-299.1 -224.2,-131.2"
         style="fill:#31327b;fill-opacity:1;fill-rule:nonzero;stroke:none"
         id="path142" /><path
         d="m 7771.93,12340 c -35.34,-21.6 -81.49,-10.4 -103.08,24.9 -21.58,35.3 -10.42,81.5 24.92,103.1 35.35,21.6 81.5,10.4 103.09,-24.9 21.58,-35.4 10.42,-81.5 -24.93,-103.1"
         style="fill:#ffffff;fill-opacity:1;fill-rule:nonzero;stroke:none"
         id="path144" /><path
         d="m 9520,12104.9 c -559.32,-341.5 -1289.59,-165 -1631.12,394.4 -341.52,559.3 -164.97,1289.5 394.35,1631.1 559.32,341.5 1289.6,164.9 1631.12,-394.4 341.55,-559.3 164.95,-1289.6 -394.35,-1631.1"
         style="fill:#5254cf;fill-opacity:1;fill-rule:nonzero;stroke:none"
         id="path146" /><path
         d="m 9864.12,13117.6 c 0,-531.5 -430.93,-962.5 -962.5,-962.5 -531.58,0 -962.5,431 -962.5,962.5 0,531.6 430.92,962.5 962.5,962.5 531.57,0 962.5,-430.9 962.5,-962.5"
         style="fill:#ffffff;fill-opacity:1;fill-rule:nonzero;stroke:none"
         id="path148" /><g
         id="g150"><g
           id="g152"
           clip-path="url(#clipPath156)"><path
             d="m 8510.31,10940.6 h -301.69 v 1851.7 h 301.69 v -1851.7"
             style="fill:#b7b7ff;fill-opacity:1;fill-rule:nonzero;stroke:none"
             id="path158" /><path
             d="m 9052.47,10928.1 h -301.7 v 2108.4 h 301.7 v -2108.4"
             style="fill:#e0e0ff;fill-opacity:1;fill-rule:nonzero;stroke:none"
             id="path160" /><path
             d="m 9594.61,10961.5 h -301.69 v 2337.2 h 301.69 v -2337.2"
             style="fill:#b7b7ff;fill-opacity:1;fill-rule:nonzero;stroke:none"
             id="path162" /><path
             d="m 7886.52,13174.5 -11.42,35.7 1382.48,442 11.42,-35.7 -1382.48,-442"
             style="fill:#b7b7ff;fill-opacity:1;fill-rule:nonzero;stroke:none"
             id="path164" /><path
             d="m 9240.31,13634.7 -0.55,-0.8 z m 5.29,-16.3 1.2,-0.4 z m -74.08,-144.9 -30.54,21.8 91.04,127.8 -131.85,45.1 12.16,35.5 145.57,-49.9 c 7.67,-2.1 14.44,-8.7 17.09,-17.3 2.65,-8.7 0.72,-17.9 -5.14,-24.8 l -98.33,-138.2"
             style="fill:#b7b7ff;fill-opacity:1;fill-rule:nonzero;stroke:none"
             id="path166" /></g></g><path
         d="m 6527.25,4284.7 c -151,-2.2 -367.5,-5.7 -507.5,-7.7 1.5,67.7 4,135.2 7,197 6.75,154 15.5,273 15.5,273 l 432.75,3 c 0,0 -2,-43 0,-107.5 2.75,-95.5 14,-238 52.25,-357.8"
         style="fill:#ffbc96;fill-opacity:1;fill-rule:nonzero;stroke:none"
         id="path168" /><path
         d="m 6694.87,4073.1 c -83.02,25.7 -134.98,110.5 -167.51,211.7 -151.1,-2.3 -367.59,-5.7 -507.7,-7.8 -3.76,-159.5 -2.36,-319.9 12.94,-410 6.62,-39.1 40.13,-67.7 79.75,-67.7 h 743.69 c 60.62,0 112.92,50.7 106.64,111 -7.52,72.1 -92.61,108.6 -267.81,162.8"
         style="fill:#1b1b43;fill-opacity:1;fill-rule:nonzero;stroke:none"
         id="path170" /><path
         d="M 6475,4642.5 6026.75,4474 c 6.75,154 15.5,273 15.5,273 l 432.75,3 c 0,0 -2,-43 0,-107.5"
         style="fill:#d28572;fill-opacity:1;fill-rule:nonzero;stroke:none"
         id="path172" /><path
         d="m 6250.27,3805.8 c -15.87,75.3 -47.41,127.7 -93.77,155.7 -60.72,36.6 -127.39,18.4 -128.06,18.2 l -6.91,24 c 3.12,0.9 77.34,21.6 147.57,-20.6 52.72,-31.7 88.25,-89.6 105.63,-172.2 l -24.46,-5.1"
         style="fill:#656590;fill-opacity:1;fill-rule:nonzero;stroke:none"
         id="path174" /><path
         d="m 4304.75,4831 c 0,0 -48,-111.5 -82.5,-248.8 -16.5,-65.5 -29.75,-136.9 -33.25,-204.7 -142.25,51.2 -345.75,124.7 -477.75,172.5 61.25,150.5 126.75,298 162,375.5 l 1,2 c 15.25,34 24.5,54 24.5,54 l 406,-150.5"
         style="fill:#ffbc96;fill-opacity:1;fill-rule:nonzero;stroke:none"
         id="path176" /><path
         d="m 4270.73,4120.2 c -68.55,53.5 -87.14,151.1 -81.75,257.3 -142.15,51.3 -345.82,124.8 -477.61,172.4 -59.94,-147.8 -115.42,-298.4 -133.01,-388.1 -7.62,-38.8 13.57,-77.5 50.63,-91.5 l 695.56,-263.2 c 56.68,-21.5 123.54,7.4 139,66 18.5,70.2 -48.15,134.4 -192.82,247.1"
         style="fill:#1b1b43;fill-opacity:1;fill-rule:nonzero;stroke:none"
         id="path178" /><path
         d="m 4304.75,4831 c 0,0 -48,-111.5 -82.5,-248.8 l -362.75,305.3 13.75,38 1,2 c 15.25,34 24.5,54 24.5,54 l 406,-150.5"
         style="fill:#d28572;fill-opacity:1;fill-rule:nonzero;stroke:none"
         id="path180" /><path
         d="m 3740.24,4031.7 -22.16,11.6 c 93.15,178.5 -71,267 -78.03,270.6 l 11.57,22.2 c 1.95,-1 193.19,-104 88.62,-304.4"
         style="fill:#656590;fill-opacity:1;fill-rule:nonzero;stroke:none"
         id="path182" /><path
         d="M 6687.5,4662.5 5891.75,4600 5725,7441.7 5478.5,8376 5156,9597.8 l -16.75,63.7 -77.75,294.5 -11.5,44 152.25,13.8 822.75,73.7 49.75,-225 v -0.3 L 6567.5,7634 c 16,-72.5 25.5,-146.5 28,-220.7 l 92,-2750.8"
         style="fill:#5254cf;fill-opacity:1;fill-rule:nonzero;stroke:none"
         id="path184" /><path
         d="M 5541.75,9008.3 5478.5,8376 5376,7352.5 c -11.75,-117.8 -38,-234 -78.25,-345.3 L 4450,4662.5 l -712.5,275 662.5,2400 c 170.75,988 142.5,1746.2 186.5,2227.2 2.75,30 5.75,58.8 9,86.5 17.75,147.3 45.25,264.1 92,348.8 l 374,-44 263.5,-31 57.25,-242.2 11.5,-49 148,-625.5"
         style="fill:#5254cf;fill-opacity:1;fill-rule:nonzero;stroke:none"
         id="path186" /><g
         id="g188"><g
           id="g190"
           clip-path="url(#clipPath194)"><path
             d="m 5382.34,9614.2 h 664.719 v 143 H 5382.34 Z"
             style="fill:#31327b;fill-opacity:1;fill-rule:nonzero;stroke:none"
             id="path196" /></g></g><path
         d="m 4785.21,9545 c -77.35,0 -145.29,6 -198.71,19.7 2.75,30 5.75,58.8 9,86.5 4.47,37.1 9.56,72.3 15.43,105.5 119.79,-37.2 366.88,-75.4 678.26,-75.4 30.45,0 61.52,0.3 93.15,1.1 l 11.41,-48.6 4.63,-19.6 C 5185.67,9575.7 4961.15,9545 4785.21,9545"
         style="fill:#31327b;fill-opacity:1;fill-rule:nonzero;stroke:none"
         id="path198" /><path
         d="m 5712.88,7428.2 -373.29,1474.5 -305.9,97.9 7.62,23.8 319.1,-102.1 1.71,-6.7 375,-1481.3 -24.24,-6.1"
         style="fill:#1b1b43;fill-opacity:1;fill-rule:nonzero;stroke:none"
         id="path200" /><path
         d="m 6285.64,7363.3 -8.78,23.4 c 196.18,73.6 302.8,141.9 303.85,142.5 l 13.58,-20.9 c -4.39,-2.9 -109.67,-70.4 -308.65,-145"
         style="fill:#1b1b43;fill-opacity:1;fill-rule:nonzero;stroke:none"
         id="path202" /><path
         d="m 5330,7112.6 c -1.87,0.1 -190.65,19.4 -376.97,69.1 l 6.44,24.1 c 184.39,-49.1 371.16,-68.2 373.03,-68.4 l -2.5,-24.8"
         style="fill:#1b1b43;fill-opacity:1;fill-rule:nonzero;stroke:none"
         id="path204" /><path
         d="m 4520.68,4863.3 -725,266.6 8.64,23.5 725,-266.7 -8.64,-23.4"
         style="fill:#1b1b43;fill-opacity:1;fill-rule:nonzero;stroke:none"
         id="path206" /><path
         d="m 5882.13,4793.8 -1.76,24.9 793.75,56.3 1.76,-25 -793.75,-56.2"
         style="fill:#1b1b43;fill-opacity:1;fill-rule:nonzero;stroke:none"
         id="path208" /><path
         d="m 4993.75,11808.3 -338.16,-136.1 c -98.25,-39.5 -176.68,-116.6 -217.88,-214.2 l -283.84,-679.3 c -56.88,-136.2 -19.01,-293.5 93.6,-388.8 92.98,-78.7 221.12,-101.4 335.47,-59.4 l 239.98,88.3 170.83,1389.5"
         style="fill:#ffb147;fill-opacity:1;fill-rule:nonzero;stroke:none"
         id="path210" /><path
         d="m 7332.51,12425.5 c -63.2,-31.2 -136.1,-164.2 -108.43,-212 22.67,-39.2 75.45,13.8 92.86,32 31.98,33.4 114.54,122.7 68.96,173.4 -14.53,16.2 -33.48,16.5 -53.39,6.6"
         style="fill:#ffbc96;fill-opacity:1;fill-rule:nonzero;stroke:none"
         id="path212" /><path
         d="m 7179.55,12377.5 c -52.46,-47.1 -86.87,-194.8 -47.35,-233.4 32.38,-31.7 68.93,33.6 80.8,55.8 21.81,40.8 77.29,149 19.74,185.6 -18.36,11.7 -36.67,6.8 -53.19,-8"
         style="fill:#ffbc96;fill-opacity:1;fill-rule:nonzero;stroke:none"
         id="path214" /><path
         d="m 7077.99,12303.3 c -52.99,-45.5 -90.3,-185.2 -51.99,-220.7 31.38,-29.1 69.01,33.2 81.26,54.3 22.49,38.9 79.81,141.9 23.59,175.1 -17.93,10.6 -36.17,5.6 -52.86,-8.7"
         style="fill:#ffbc96;fill-opacity:1;fill-rule:nonzero;stroke:none"
         id="path216" /><path
         d="m 6981.24,12268.7 c -52.99,-45.4 -90.3,-185.2 -52,-220.6 31.39,-29.1 69.03,33.1 81.27,54.3 22.49,38.9 79.81,141.9 23.6,175 -17.93,10.6 -36.18,5.6 -52.87,-8.7"
         style="fill:#ffbc96;fill-opacity:1;fill-rule:nonzero;stroke:none"
         id="path218" /><path
         d="m 4993.75,11804.4 -352.08,-605.3 c 0,0 91.66,-1000 24.99,-1122.8 -66.66,-122.8 -216.66,-219.3 -125,-289.5 91.67,-70.2 816.67,-193 1600.01,-8.8 216.66,61.4 66.66,175.5 16.66,228.1 -50,52.6 -116.67,1377.2 -116.67,1377.2 l -450.48,410.5 -332.84,89.5 -264.59,-78.9"
         style="fill:#ffb147;fill-opacity:1;fill-rule:nonzero;stroke:none"
         id="path220" /><path
         d="m 4993.13,11803.3 0.62,5 v 0 l 45.08,9.5 -45.08,-13.4 -0.62,-1.1"
         style="fill:#c9c9d9;fill-opacity:1;fill-rule:nonzero;stroke:none"
         id="path222" /><path
         d="m 4957.26,11741.7 c 1.89,18.2 13.3,40.2 36.49,66.6 l -0.62,-5 -35.87,-61.6"
         style="fill:#d19346;fill-opacity:1;fill-rule:nonzero;stroke:none"
         id="path224" /><path
         d="m 5124.13,11668.9 c -98.7,0 -172.31,20.3 -166.87,72.8 l 35.87,61.6 0.62,1.1 45.08,13.4 167.42,35.3 378.12,-59.3 c -35.39,-62 -286.64,-124.9 -460.24,-124.9"
         style="fill:#d19346;fill-opacity:1;fill-rule:nonzero;stroke:none"
         id="path226" /><path
         d="m 6537.5,11081.3 -290.27,430.5 c -67.33,109.4 -177.09,185.9 -303.04,211.2 l -352.52,70.8 208.33,-781.3 c 0,0 325,-456.2 618.75,-562.5 263.63,-95.4 613.29,61.3 806.09,1091.7 l -437.12,59.6 -250.22,-520"
         style="fill:#ffb147;fill-opacity:1;fill-rule:nonzero;stroke:none"
         id="path228" /><path
         d="m 7464.58,12154.2 c -44.17,5.6 -195.83,-222.9 -195.83,-222.9 l -245.09,-83.5 c -89.76,-30.6 -163.48,-95.9 -204.6,-181.4 l -31.34,-65.1 437.12,-59.6 c 7.2,38.5 14.25,77.8 20.99,118.7 150,135.4 316.67,481.3 218.75,493.8"
         style="fill:#ffbc96;fill-opacity:1;fill-rule:nonzero;stroke:none"
         id="path230" /><path
         d="m 5651.66,12759.6 88.64,-122.6 c 15.09,-20.9 5.73,-49.1 -19.47,-58.9 l -94.61,-36.5 -66.78,148.3 92.22,69.7"
         style="fill:#d28572;fill-opacity:1;fill-rule:nonzero;stroke:none"
         id="path232" /><path
         d="m 5078.5,12086 c 22.25,225.5 13.25,451.5 13.25,451.5 l 404,-29.2 c -3.5,-45 -4,-91.5 -2.25,-138.3 2.75,-73.7 11,-148.5 22.5,-220.7 6.25,-39.8 13.5,-78.8 21.25,-116.3 l -458.75,53"
         style="fill:#ffbc96;fill-opacity:1;fill-rule:nonzero;stroke:none"
         id="path234" /><path
         d="m 5516,12149.3 c -171,71 -236.75,223.7 -236.75,223.7 l 214.25,-3 c 2.75,-73.7 11,-148.5 22.5,-220.7"
         style="fill:#d28572;fill-opacity:1;fill-rule:nonzero;stroke:none"
         id="path236" /><path
         d="m 5078.43,12086.1 -84.68,-277.8 c 194.94,-46.9 394.54,-48.9 597.92,-14.5 l -54.38,239.3 -458.86,53"
         style="fill:#fff5e8;fill-opacity:1;fill-rule:nonzero;stroke:none"
         id="path238" /><path
         d="m 5641.67,12966.7 41.84,-559 c 3.74,-23.9 -10.87,-45.8 -31.5,-65.1 -35.41,-33.1 -84.02,-48.2 -132.42,-46.2 l -286.26,11.9 -204.16,229.2 158.33,487.5 287.5,4.2 166.67,-62.5"
         style="fill:#ffbc96;fill-opacity:1;fill-rule:nonzero;stroke:none"
         id="path240" /><path
         d="m 5171.88,12634.4 c 0,0 75,-234.4 -84.38,-353.1 -171.87,56.2 -490.62,578.1 -93.75,743.7 0,0 109.38,278.1 406.25,175 262.05,-91 331.25,-250 331.25,-250 0,0 -184.37,-137.5 -400,-9.4 0,0 21.88,-278.1 -159.37,-306.2"
         style="fill:#1b1b43;fill-opacity:1;fill-rule:nonzero;stroke:none"
         id="path242" /><path
         d="m 5277.64,12730.1 c 46.67,-57.8 42.05,-138.9 -10.32,-181.2 -52.35,-42.3 -132.63,-29.7 -179.3,28.1 -46.66,57.8 -42.05,138.9 10.31,181.2 52.37,42.3 132.65,29.7 179.31,-28.1"
         style="fill:#ffbc96;fill-opacity:1;fill-rule:nonzero;stroke:none"
         id="path244" /><path
         d="m 5220.07,12595.6 c -1.03,4.1 -25.97,99.4 -93.09,84.8 l -3.96,18.4 c 67.87,14.6 105.11,-58.1 115.24,-98.6 l -18.19,-4.6"
         style="fill:#1b1b43;fill-opacity:1;fill-rule:nonzero;stroke:none"
         id="path246" /><path
         d="m 5495.83,12533.3 c -46.02,0 -83.33,37.3 -83.33,83.4 0,46 37.31,83.3 83.33,83.3 46.03,0 83.34,-37.3 83.34,-83.3 0,-46.1 -37.31,-83.4 -83.34,-83.4"
         style="fill:#ff957b;fill-opacity:1;fill-rule:nonzero;stroke:none"
         id="path248" /><path
         d="m 4632.52,9735.2 c -75.85,18 -118.75,46.2 -131.16,86 -20.21,64.9 46.82,139.3 105.95,204.9 9.23,10.2 18.15,20.1 26.32,29.6 16.36,18.8 27.62,41.2 32.58,64.7 54.83,259.9 -36.04,1069.2 -36.96,1077.3 l 24.83,2.8 c 3.79,-33.4 92.26,-821.4 36.59,-1085.2 -5.82,-27.7 -19.01,-53.9 -38.14,-76 -8.28,-9.6 -17.32,-19.6 -26.64,-29.9 -51.96,-57.7 -116.64,-129.4 -100.66,-180.7 9.43,-30.3 47.48,-53.6 113.08,-69.2 l -5.79,-24.3"
         style="fill:#1b1b43;fill-opacity:1;fill-rule:nonzero;stroke:none"
         id="path250" /><path
         d="m 6083.9,9754.2 -1.13,25 c 85.42,3.8 137.65,24.1 151.07,58.9 13.52,35.1 -11.13,87.3 -67.64,143.3 -14.47,14.4 -24.55,32.9 -29.14,53.6 -44.93,202 -92.8,869.9 -93.27,876.6 l 24.92,1.8 c 0.48,-6.7 48.21,-672.7 92.76,-873 3.54,-16 11.27,-30.2 22.33,-41.2 64.82,-64.3 90.88,-124.7 73.35,-170.1 -17.5,-45.4 -75.8,-70.6 -173.25,-74.9"
         style="fill:#1b1b43;fill-opacity:1;fill-rule:nonzero;stroke:none"
         id="path252" /><path
         d="m 6492.48,10969.5 -22.46,11 310.44,634.4 446.06,-60.8 -3.37,-24.8 -428.17,58.4 -302.5,-618.2"
         style="fill:#1b1b43;fill-opacity:1;fill-rule:nonzero;stroke:none"
         id="path254" /><path
         d="m 14012.5,12529.2 c -147.9,89.6 -181.3,345.8 -43.7,422.9 137.4,77.1 225,8.3 225,8.3 0,0 461.1,168.2 635.4,-260.4 131.2,-322.9 27,-491.7 141.6,-654.2 130.6,-185.1 339.6,-352 66.7,-677 l -637.5,156.2 -166.7,785.4 -220.8,218.8"
         style="fill:#1b1b43;fill-opacity:1;fill-rule:nonzero;stroke:none"
         id="path256" /><path
         d="M 16218.8,5330.1 15750,5123.9 c 0,0 67.3,-174.1 125,-376.5 l 482,154 -138.2,428.7"
         style="fill:#ffbc96;fill-opacity:1;fill-rule:nonzero;stroke:none"
         id="path258" /><path
         d="m 16357,4901.4 -482,-154 c 66,-231.9 119.3,-501.1 44,-588.9 -98,-114.2 -183.4,-208.6 -203.9,-288 -12,-46.7 35.9,-86.1 78.9,-64.4 l 622.8,314.1 c 103.2,52.1 147.7,175.7 101.3,281.6 l -161.1,499.6"
         style="fill:#1b1b43;fill-opacity:1;fill-rule:nonzero;stroke:none"
         id="path260" /><path
         d="m 15924.6,4563.1 -7.5,23.8 491.7,154.2 7.4,-23.9 -491.6,-154.1"
         style="fill:#656590;fill-opacity:1;fill-rule:nonzero;stroke:none"
         id="path262" /><path
         d="m 15827.6,4033.6 -5.2,24.5 c 119.4,25.3 188.8,69.1 206.5,130.3 29,100.5 -90.6,218.1 -91.8,219.3 l 17.4,17.9 c 5.4,-5.2 131.5,-129.4 98.4,-244.2 -20.4,-70.7 -96.2,-120.4 -225.3,-147.8"
         style="fill:#656590;fill-opacity:1;fill-rule:nonzero;stroke:none"
         id="path264" /><path
         d="m 14408.3,4875 -541.6,-50 c 0,0 14,-192.3 -2.6,-385.3 l 521,7.7 23.2,427.6"
         style="fill:#ffbc96;fill-opacity:1;fill-rule:nonzero;stroke:none"
         id="path266" /><path
         d="m 13864.1,4439.7 c -14.7,-170.8 -53.5,-342.2 -147.4,-381.4 -200,-83.3 -358.4,-141.6 -341.7,-258.3 h 768.9 c 115.6,0 211,90.4 217.3,205.8 l 23.9,441.6 -521,-7.7"
         style="fill:#1b1b43;fill-opacity:1;fill-rule:nonzero;stroke:none"
         id="path268" /><path
         d="m 14366.5,4287.5 -500,8.3 0.4,25 500,-8.3 -0.4,-25"
         style="fill:#656590;fill-opacity:1;fill-rule:nonzero;stroke:none"
         id="path270" /><path
         d="m 13703.9,3963.7 c -33.2,0 -71.9,4.9 -116,14.7 l 5.5,24.4 c 109.5,-24.5 184.1,-16.9 215.2,21.8 41.5,51.5 -0.8,144.2 -1.2,145.1 l 22.7,10.6 c 2,-4.4 49.1,-107.9 -2,-171.4 -24.2,-30.1 -65.8,-45.2 -124.2,-45.2"
         style="fill:#656590;fill-opacity:1;fill-rule:nonzero;stroke:none"
         id="path272" /><path
         d="m 14401.2,4746.7 c -6.5,-2.2 -12.4,-3.7 -17.9,-4.9 -108.3,-25.1 -466.6,0 -466.6,0 -16.2,3.5 -31.7,7.9 -46.4,13.2 -335,122 -312.3,707.8 -262,1220 46.2,469.7 -150,2866.7 -14.6,3681.3 l 848,185.4 5,-142.7 10.3,-291.5 18,-515.8 c 0,0 32,-498.9 75.7,-1124.2 65.5,-937.5 157.6,-2159.2 207.6,-2409.2 79.7,-397.8 -221.6,-572 -357.1,-611.6"
         style="fill:#5254cf;fill-opacity:1;fill-rule:nonzero;stroke:none"
         id="path274" /><path
         d="m 16319.7,5266 c -18.7,-21.8 -39.4,-41 -61.7,-57.7 -114,-87.8 -267.7,-120 -402.7,-156.5 -23.8,-6.5 -48.6,-11.3 -73.8,-14.3 -125.7,-15.5 -263,13.3 -321.8,120 -300.9,548.5 -640.2,1637.2 -909,2610 -196.5,710.3 -355.2,1359 -434.2,1689.7 -34.8,146.3 -54,230.3 -54,230.3 l 384.2,11.5 653.3,19.8 c 17.8,-88 38,-180.8 60.8,-277 223,-951.8 662.2,-2260.3 834.2,-2760.8 103.3,-299.8 259.5,-567.2 328.2,-881.3 36.5,-166.2 121.5,-389.4 -3.5,-533.7"
         style="fill:#5254cf;fill-opacity:1;fill-rule:nonzero;stroke:none"
         id="path276" /><path
         d="m 14116.5,9457.2 v 0 c -342.3,75.6 -522.8,199.1 -522.8,199.1 l 848,185.4 5,-142.7 -384.2,-11.5 c 0,0 19.2,-84 54,-230.3 v 0"
         style="fill:#31327b;fill-opacity:1;fill-rule:nonzero;stroke:none"
         id="path278" /><path
         d="m 14661.8,9399.9 c -71.7,0 -140,2.7 -204.8,7.6 -127,9.5 -240.7,27.5 -340.5,49.7 v 0 c -34.8,146.3 -54,230.3 -54,230.3 l 384.2,11.5 653.3,19.8 c 17.8,-88 38,-180.8 60.8,-277 -181.1,-29.7 -347.6,-41.9 -499,-41.9"
         style="fill:#31327b;fill-opacity:1;fill-rule:nonzero;stroke:none"
         id="path280" /><path
         d="m 14538.7,7764.1 -261.5,926.3 -269,97.9 8.6,23.4 281,-102.1 1.7,-6.2 263.3,-932.5 -24.1,-6.8"
         style="fill:#1b1b43;fill-opacity:1;fill-rule:nonzero;stroke:none"
         id="path282" /><path
         d="m 16144.2,5152.1 -21.7,12.5 c 126.2,219 -126.8,894.2 -447,1749 -310.9,830 -697.9,1862.9 -837.9,2784.5 l 24.8,3.8 c 139.5,-919 526,-1950.7 836.5,-2779.6 322.6,-860.9 577.3,-1540.9 445.3,-1770.2"
         style="fill:#1b1b43;fill-opacity:1;fill-rule:nonzero;stroke:none"
         id="path284" /><path
         d="m 13775.5,10443.5 c -30.2,-211.2 -75.5,-487.3 -75.5,-487.3 h -493.7 l 120.2,660.8 29.8,164.3 c 0,0 425,-100 443.7,-100 7.2,0 -5.8,-106.5 -24.5,-237.8"
         style="fill:#ffbc96;fill-opacity:1;fill-rule:nonzero;stroke:none"
         id="path286" /><path
         d="m 13775.5,10443.5 -22.5,-49.7 -426.5,223.2 29.8,164.3 c 0,0 425,-100 443.7,-100 7.2,0 -5.8,-106.5 -24.5,-237.8"
         style="fill:#d28572;fill-opacity:1;fill-rule:nonzero;stroke:none"
         id="path288" /><path
         d="m 13668.8,10593.8 c 0,0 81.2,-475 -75,-937.6 0,0 775,-237.5 1506.2,62.5 l -168.7,1068.8 56.2,543.8 -1118.7,-12.5 -381.3,-125 181.3,-600"
         style="fill:#1b1b43;fill-opacity:1;fill-rule:nonzero;stroke:none"
         id="path290" /><path
         d="m 15303.6,11392.1 c -49.4,141.1 -163.2,250.1 -306.4,293.3 l -210.1,63.5 c -84.5,-123.2 -235.5,-280.1 -455.8,-280.1 -259.1,0 -421.6,148.7 -511.2,270.2 l -145.1,-35.4 c -155.8,-38 -276.9,-160.6 -312.9,-316.8 l -162.1,-703.5 468.8,-89.5 12.5,537.5 1218.7,56.2 31.3,-400 c 0,0 352,154.2 585.4,-4.2 l -213.1,608.8"
         style="fill:#1b1b43;fill-opacity:1;fill-rule:nonzero;stroke:none"
         id="path292" /><path
         d="m 15837.5,11437.5 c -67.5,-132 -158.3,-704.2 -200,-1150 -13.7,-146.5 -55.5,-262 -113.3,-346.2 -85,-124.6 -205.4,-181 -322.5,-168.5 -45,4.4 -89.2,19.2 -130.9,43.9 -201.3,119.3 -175.5,628.8 -153,858.1 6.9,69 13.5,112.7 13.5,112.7 118.7,65.5 306.2,75 306.2,75 2.5,25.8 5.5,51.8 8.5,78.5 25.5,230.3 64.3,491.5 97.8,665.3 37.5,193.7 112.4,121.7 112.4,121.7 37.5,69 93.8,9.5 93.8,9.5 50,109.5 112.5,6.3 112.5,6.3 78,112.5 120.8,-56.3 120.8,-56.3 0,0 242.2,199.5 283.4,141.8 20.8,-29.3 -133.5,-204.3 -229.2,-391.8"
         style="fill:#ffbc96;fill-opacity:1;fill-rule:nonzero;stroke:none"
         id="path294" /><path
         d="m 13918.8,9956.2 h -1050 v 126.1 h 1050 v -126.1"
         style="fill:#ffffff;fill-opacity:1;fill-rule:nonzero;stroke:none"
         id="path296" /><path
         d="m 13318.4,9955.1 h -1083 c -52.1,0 -99.5,30.3 -121.2,77.7 l -421.8,915.7 c -14,30.4 8.2,65.1 41.7,65.1 H 12750 c 49.3,0 94.1,-28.7 114.8,-73.5 l 453.6,-985"
         style="fill:#5254cf;fill-opacity:1;fill-rule:nonzero;stroke:none"
         id="path298" /><path
         d="m 13675,9956.3 c -13.3,-49.3 -31,-94.6 -55,-134.8 -58,-98 -151,-165.2 -294.2,-183.2 -49.1,-6.6 -103.8,-6.8 -165.3,-0.8 -496.3,49.2 -639.7,320.8 -639.7,320.8 0,0 -55.3,115.2 62,88.7 0,0 21.9,73.3 112.5,-3.2 0,0 -10.8,90.7 78.2,7.7 0,0 -12.5,92.3 84.3,12.5 96.9,-79.5 171.9,-103 289.2,-107.7 117,-4.8 528,0 528,0"
         style="fill:#ffbc96;fill-opacity:1;fill-rule:nonzero;stroke:none"
         id="path300" /><path
         d="m 13656.3,10593 -31.3,537.5 25,1.5 31.2,-537.5 -24.9,-1.5"
         style="fill:#5254cf;fill-opacity:1;fill-rule:nonzero;stroke:none"
         id="path302" /><path
         d="m 14277.3,11275 c -59.2,0 -111.3,7.1 -155.1,17 -149.1,33.6 -234.9,103.7 -238.5,106.7 l 15.9,19.3 c 3.4,-2.8 341.2,-273.9 827.3,17.7 l 12.8,-21.4 c -178.2,-107 -336.3,-139.3 -462.4,-139.3"
         style="fill:#5254cf;fill-opacity:1;fill-rule:nonzero;stroke:none"
         id="path304" /><path
         d="m 14918.8,10786.6 -18.8,245.8 25,1.9 18.7,-245.9 -24.9,-1.8"
         style="fill:#5254cf;fill-opacity:1;fill-rule:nonzero;stroke:none"
         id="path306" /><path
         d="m 14393.1,10959.2 17.1,-152.1 c 7.7,-68.1 65.4,-118.4 133.6,-117.5 69.3,1 126.4,56.1 130.1,125.2 l 8.7,163.5 z m 148.6,-294.7 c -80.4,0 -147.3,59.7 -156.3,139.8 l -20.1,178.1 343.8,22.7 -10.3,-191.6 c -4.3,-82.2 -72.3,-147.7 -154.6,-148.9 l -2.5,-0.1"
         style="fill:#5254cf;fill-opacity:1;fill-rule:nonzero;stroke:none"
         id="path308" /><path
         d="m 15158.2,10231.6 -24.8,3.5 89.6,628.1 24.8,-3.5 -89.6,-628.1"
         style="fill:#d28572;fill-opacity:1;fill-rule:nonzero;stroke:none"
         id="path310" /><path
         d="m 15672,11639 -18.7,103.1 18.4,3.3 18.8,-103.1 -18.5,-3.3"
         style="fill:#d28572;fill-opacity:1;fill-rule:nonzero;stroke:none"
         id="path312" /><path
         d="m 15559.5,11635.8 -18.7,103.2 18.4,3.3 18.8,-103.1 -18.5,-3.4"
         style="fill:#d28572;fill-opacity:1;fill-rule:nonzero;stroke:none"
         id="path314" /><path
         d="m 15465.8,11629.6 -18.8,103.1 18.5,3.3 18.7,-103.1 -18.4,-3.3"
         style="fill:#d28572;fill-opacity:1;fill-rule:nonzero;stroke:none"
         id="path316" /><path
         d="m 15806.8,11594.6 -58.3,156.3 17.6,6.5 58.3,-156.2 -17.6,-6.6"
         style="fill:#d28572;fill-opacity:1;fill-rule:nonzero;stroke:none"
         id="path318" /><path
         d="m 15237.2,10862.7 -321,-187.1 c 7,69.1 13.5,112.8 13.5,112.8 118.7,65.5 307.5,74.3 307.5,74.3"
         style="fill:#d28572;fill-opacity:1;fill-rule:nonzero;stroke:none"
         id="path320" /><g
         id="g322"><g
           id="g324"
           clip-path="url(#clipPath328)"><path
             d="m 15200,9771.1 h 324.199 v 220.699 H 15200 Z"
             style="fill:#ff957b;fill-opacity:1;fill-rule:nonzero;stroke:none"
             id="path330" /></g></g><path
         d="m 13325.8,9638.3 c -0.5,5.9 -0.8,12 -0.8,18 0,107 86.7,193.7 193.8,193.7 37,0 71.7,-10.5 101.2,-28.5 -4.3,-7.3 -8.9,-14.5 -13.6,-21.5 -44.3,-65.3 -106.4,-114.8 -191.3,-142.3 -27.3,-8.8 -57.1,-15.4 -89.3,-19.4 v 0"
         style="fill:#ff957b;fill-opacity:1;fill-rule:nonzero;stroke:none"
         id="path332" /><path
         d="m 12897.1,9921 c -49.4,9.7 -111.2,86.1 -131.9,126.2 l 16.6,8.6 c 21.4,-41.2 79.7,-108.7 119,-116.4 l -3.7,-18.4"
         style="fill:#d28572;fill-opacity:1;fill-rule:nonzero;stroke:none"
         id="path334" /><path
         d="m 12779.7,9908 c -41.9,43.1 -80.5,96.8 -96.1,133.6 l 17.3,7.3 c 14.7,-34.9 51.8,-86.2 92.3,-127.8 l -13.5,-13.1"
         style="fill:#d28572;fill-opacity:1;fill-rule:nonzero;stroke:none"
         id="path336" /><path
         d="m 12664.1,9911.2 c -41.9,43 -80.5,96.7 -96.1,133.5 l 17.3,7.3 c 14.7,-34.8 51.8,-86.2 92.2,-127.8 l -13.4,-13"
         style="fill:#d28572;fill-opacity:1;fill-rule:nonzero;stroke:none"
         id="path338" /><path
         d="m 14787.2,11749 c -84.7,-123.2 -235.7,-280.2 -456,-280.2 -259,0 -421.5,148.7 -510.9,270.2 l 267.2,65.3 c 6.5,48 12,94.7 16.5,139 3.5,34.7 6.5,68 9.3,99.5 4.5,51.7 7.5,98.5 9.9,138.5 3.3,54.7 4.8,96.2 5.5,119.2 0.5,13.3 0.5,20.3 0.5,20.3 l 375,150 c 0,0 -12.4,-487.5 100,-666.5 l 183,-55.3"
         style="fill:#ffbc96;fill-opacity:1;fill-rule:nonzero;stroke:none"
         id="path340" /><path
         d="m 14427.1,12139.6 c 0,0 -100.4,-117.3 -323.1,-196.3 3.5,34.7 6.5,68 9.3,99.5 4.5,51.7 7.5,98.5 10,138.5 l 303.8,-41.7"
         style="fill:#d28572;fill-opacity:1;fill-rule:nonzero;stroke:none"
         id="path342" /><path
         d="m 14029.2,12775 c 0,0 -191.7,-520.8 -54.2,-616.7 122.3,-85.2 283.3,-95.8 441.7,-54.1 l 104.1,354.1 -62.5,345.9 -429.1,-29.2"
         style="fill:#ffbc96;fill-opacity:1;fill-rule:nonzero;stroke:none"
         id="path344" /><path
         d="m 14466.7,12454.2 c 0,0 -135.4,-51.9 -191.7,137.5 -45.8,154.1 -245.8,183.3 -245.8,183.3 l 81.2,75 385.4,10.4 141.7,-172.9 -47.9,-225 -122.9,-8.3"
         style="fill:#1b1b43;fill-opacity:1;fill-rule:nonzero;stroke:none"
         id="path346" /><path
         d="m 14641.6,12345.8 c -43.7,-75.7 -127.6,-109.1 -187.4,-74.6 -59.8,34.5 -72.8,123.9 -29.1,199.6 43.7,75.8 127.6,109.2 187.4,74.6 59.8,-34.5 72.8,-123.8 29.1,-199.6"
         style="fill:#ffbc96;fill-opacity:1;fill-rule:nonzero;stroke:none"
         id="path348" /><path
         d="m 14489.1,12340.5 -18.8,0.2 c 0,1.2 2.5,117.8 118.2,131.1 l 2.1,-18.6 c -99.1,-11.4 -101.5,-108.5 -101.5,-112.7"
         style="fill:#1b1b43;fill-opacity:1;fill-rule:nonzero;stroke:none"
         id="path350" /><path
         d="m 14025,12522.4 c 0,-11.8 -9.6,-21.4 -21.4,-21.4 -11.7,0 -21.3,9.6 -21.3,21.4 0,11.8 9.6,21.4 21.3,21.4 11.8,0 21.4,-9.6 21.4,-21.4"
         style="fill:#1b1b43;fill-opacity:1;fill-rule:nonzero;stroke:none"
         id="path352" /><path
         d="m 14170.7,12492.8 c 0,-14.3 -11.6,-25.9 -25.8,-25.9 -14.3,0 -25.9,11.6 -25.9,25.9 0,14.3 11.6,25.8 25.9,25.8 14.2,0 25.8,-11.5 25.8,-25.8"
         style="fill:#1b1b43;fill-opacity:1;fill-rule:nonzero;stroke:none"
         id="path354" /><path
         d="m 14050.4,12571.1 h -63.8 c -9,0 -16.3,7.3 -16.3,16.2 v 0 c 0,9 7.3,16.3 16.3,16.3 h 63.8 c 9,0 16.3,-7.3 16.3,-16.3 v 0 c 0,-8.9 -7.3,-16.2 -16.3,-16.2"
         style="fill:#1b1b43;fill-opacity:1;fill-rule:nonzero;stroke:none"
         id="path356" /><path
         d="m 14210.6,12526.3 -70.5,29.8 c -8.3,3.5 -12.2,13.1 -8.7,21.3 3.5,8.3 13.1,12.2 21.3,8.7 l 70.6,-29.8 c 8.3,-3.5 12.2,-13 8.7,-21.3 -3.5,-8.3 -13.1,-12.2 -21.4,-8.7"
         style="fill:#1b1b43;fill-opacity:1;fill-rule:nonzero;stroke:none"
         id="path358" /><path
         d="m 13993.8,12360.2 c -3.7,0 -7.2,2.1 -8.7,5.8 -12.5,30.4 -12.9,53.7 -1,69.4 12.4,16.5 34.4,18.8 45.5,18.8 l 23.8,46.2 c 2.4,4.6 8.1,6.4 12.6,4 4.6,-2.3 6.4,-8 4,-12.6 l -29.5,-57.3 -6.4,0.7 c -0.2,0 -24.8,2.5 -35.1,-11.1 -7.4,-9.9 -6.2,-27.5 3.4,-51 2,-4.8 -0.3,-10.3 -5.1,-12.2 -1.2,-0.5 -2.4,-0.7 -3.5,-0.7"
         style="fill:#1b1b43;fill-opacity:1;fill-rule:nonzero;stroke:none"
         id="path360" /><path
         d="m 13998.2,12278.7 c 36.3,-51.1 82.2,-29.3 113.6,-3.1 -42.5,-2.7 -82.6,-0.3 -113.6,3.1"
         style="fill:#1b1b43;fill-opacity:1;fill-rule:nonzero;stroke:none"
         id="path362" /><path
         d="m 14111.8,12275.6 c 18.1,15.2 31.3,31.8 34.9,36.4 l -0.9,1.2 c -93.1,-5.6 -156.1,1.2 -165.6,2.3 l -0.7,-1.3 c 5.8,-14.5 12.1,-26.1 18.7,-35.5 31,-3.4 71.1,-5.8 113.6,-3.1"
         style="fill:#ffffff;fill-opacity:1;fill-rule:nonzero;stroke:none"
         id="path364" /><path
         d="m 14266.7,12312.5 c -36.1,0 -65.4,29.3 -65.4,65.4 0,36.1 29.3,65.3 65.4,65.3 36.1,0 65.3,-29.2 65.3,-65.3 0,-36.1 -29.2,-65.4 -65.3,-65.4"
         style="fill:#ff957b;fill-opacity:1;fill-rule:nonzero;stroke:none"
         id="path366" /><path
         d="M 18350,3787.5 H 1650 v 25 h 16700 v -25"
         style="fill:#1b1b43;fill-opacity:1;fill-rule:nonzero;stroke:none"
         id="path368" /></g></g></svg>
