<?xml version="1.0" encoding="UTF-8" standalone="no"?>
<!-- Created with Inkscape (http://www.inkscape.org/) -->

<svg
   version="1.1"
   id="svg2"
   xml:space="preserve"
   width="2666.6667"
   height="2666.6667"
   viewBox="0 0 2666.6667 2666.6667"
   sodipodi:docname="In_progress_concept.eps"
   xmlns:inkscape="http://www.inkscape.org/namespaces/inkscape"
   xmlns:sodipodi="http://sodipodi.sourceforge.net/DTD/sodipodi-0.dtd"
   xmlns="http://www.w3.org/2000/svg"
   xmlns:svg="http://www.w3.org/2000/svg"><defs
     id="defs6" /><sodipodi:namedview
     id="namedview4"
     pagecolor="#ffffff"
     bordercolor="#666666"
     borderopacity="1.0"
     inkscape:pageshadow="2"
     inkscape:pageopacity="0.0"
     inkscape:pagecheckerboard="0" /><g
     id="g8"
     inkscape:groupmode="layer"
     inkscape:label="ink_ext_XXXXXX"
     transform="matrix(1.3333333,0,0,-1.3333333,0,2666.6667)"><g
       id="g10"
       transform="scale(0.1)"><path
         d="M 0,0 H 20000 V 20000 H 0 Z"
         style="fill:#ffffff;fill-opacity:1;fill-rule:nonzero;stroke:none"
         id="path12" /><path
         d="m 7944.26,7342.9 v 25 h -2215.4 c -20.56,0 -38.95,8.3 -52.46,21.7 -13.46,13.5 -21.71,31.9 -21.72,52.5 v 209.1 c 0.01,20.6 8.26,39 21.72,52.5 13.51,13.4 31.9,21.7 52.46,21.7 h 2215.4 c 20.56,0 38.95,-8.3 52.45,-21.7 13.46,-13.5 21.71,-31.9 21.73,-52.5 v -209.1 c -0.02,-20.6 -8.27,-39 -21.73,-52.5 -13.5,-13.4 -31.89,-21.7 -52.45,-21.7 v -25 -25 c 68.59,0 124.16,55.6 124.18,124.2 v 209.1 c -0.02,68.6 -55.59,124.2 -124.18,124.2 h -2215.4 c -68.59,0 -124.17,-55.6 -124.18,-124.2 v -209.1 c 0.01,-68.6 55.59,-124.2 124.18,-124.2 h 2215.4 v 25"
         style="fill:#dee5f8;fill-opacity:1;fill-rule:nonzero;stroke:none"
         id="path14" /><path
         d="m 9264.14,7347.1 v 18.7 h -901.65 c -29.18,0 -55.41,11.8 -74.55,30.9 -19.11,19.1 -30.87,45.4 -30.88,74.6 v 159.1 c 0.01,29.2 11.77,55.4 30.88,74.6 19.14,19.1 45.37,30.8 74.55,30.8 h 901.65 c 29.17,0 55.41,-11.7 74.54,-30.8 19.11,-19.2 30.87,-45.4 30.88,-74.6 v -159.1 c -0.01,-29.2 -11.77,-55.5 -30.88,-74.6 -19.13,-19.1 -45.37,-30.9 -74.54,-30.9 v -18.7 -18.8 c 78.94,0 142.91,64 142.92,143 v 159.1 c -0.01,79 -63.98,142.9 -142.92,142.9 h -901.65 c -78.95,0 -142.92,-63.9 -142.93,-142.9 v -159.1 c 0.01,-79 63.98,-143 142.93,-143 h 901.65 v 18.8"
         style="fill:#dee5f8;fill-opacity:1;fill-rule:nonzero;stroke:none"
         id="path16" /><path
         d="m 8713.36,12850.8 v 25 h -901.65 c -27.46,0 -52.1,11.1 -70.12,29.1 -17.99,18 -29.04,42.6 -29.05,70.1 v 159.2 c 0.01,27.4 11.06,52.1 29.05,70.1 18.02,18 42.66,29 70.12,29 h 901.65 c 27.47,0 52.1,-11 70.13,-29 17.99,-18 29.04,-42.7 29.05,-70.1 V 12975 c -0.01,-27.5 -11.06,-52.1 -29.05,-70.1 -18.03,-18 -42.66,-29.1 -70.13,-29.1 v -25 -25 c 82.4,0.1 149.16,66.8 149.18,149.2 v 159.2 c -0.02,82.4 -66.78,149.1 -149.18,149.1 h -901.65 c -82.39,0 -149.16,-66.7 -149.17,-149.1 V 12975 c 0.01,-82.4 66.78,-149.1 149.17,-149.2 h 901.65 v 25"
         style="fill:#dee5f8;fill-opacity:1;fill-rule:nonzero;stroke:none"
         id="path18" /><path
         d="m 10073.8,12850.8 v 25 h -901.71 c -27.46,0 -52.1,11.1 -70.12,29.1 -17.99,18 -29.04,42.6 -29.05,70.1 v 159.2 c 0.01,27.4 11.06,52.1 29.05,70.1 18.02,18 42.66,29 70.12,29 h 901.71 c 27.4,0 52,-11 70.1,-29 18,-18 29,-42.7 29,-70.1 V 12975 c 0,-27.5 -11,-52.1 -29,-70.1 -18.1,-18 -42.7,-29.1 -70.1,-29.1 v -25 -25 c 82.3,0.1 149.1,66.8 149.1,149.2 v 159.2 c 0,82.4 -66.8,149.1 -149.1,149.1 h -901.71 c -82.39,0 -149.15,-66.7 -149.17,-149.1 V 12975 c 0.02,-82.4 66.78,-149.1 149.17,-149.2 h 901.71 v 25"
         style="fill:#dee5f8;fill-opacity:1;fill-rule:nonzero;stroke:none"
         id="path20" /><path
         d="m 13528.4,9185 v 25 h -901.6 c -27.5,0 -52.1,11 -70.2,29 -18,18 -29,42.7 -29,70.1 v 159.2 c 0,27.5 11,52.1 29,70.1 18.1,18 42.7,29.1 70.2,29.1 h 901.6 c 27.5,0 52.1,-11.1 70.1,-29.1 18,-18 29.1,-42.6 29.1,-70.1 v -159.2 c 0,-27.4 -11.1,-52.1 -29.1,-70.1 -18,-18 -42.6,-29 -70.1,-29 v -25 -25 c 82.4,0 149.2,66.7 149.2,149.1 v 159.2 c 0,82.4 -66.8,149.2 -149.2,149.2 h -901.6 c -82.4,0 -149.2,-66.8 -149.2,-149.2 v -159.2 c 0,-82.4 66.8,-149.1 149.2,-149.1 h 901.6 v 25"
         style="fill:#dee5f8;fill-opacity:1;fill-rule:nonzero;stroke:none"
         id="path22" /><path
         d="m 17845.6,14669.3 c -75.1,0 -166.4,-28.7 -273.4,-90.9 -49.1,-28.5 -89.9,-68.7 -89.9,-125.4 v -276 c 0,-46.9 -38.1,-85 -85,-85 h -353.4 l -407.1,-563.7 72.3,-1595.6 c 1367.3,1186.5 1688.8,2736.6 1136.5,2736.6 m 0.1,0 v -117.4 c 39.4,0 83.8,-10.7 113.4,-90.1 32.6,-87.2 34.1,-224.7 4.3,-387.4 -33.6,-183.1 -105.6,-394.3 -208.4,-610.9 -212,-446.4 -541.4,-892.1 -939.9,-1275.1 l -59.1,1304.4 347.9,481.8 h 293.4 c 111.6,0 202.4,90.8 202.4,202.4 v 274.7 c 1.8,2.7 9,12.1 31.5,25.2 106.6,62 175.5,75 214.5,75 v 117.4"
         style="fill:#fbc343;fill-opacity:1;fill-rule:nonzero;stroke:none"
         id="path24" /><path
         d="m 13637.7,14669.3 c -552.3,0 -230.8,-1550.1 1136.5,-2736.6 l 72.3,1595.6 -407.1,563.7 H 14086 c -46.9,0 -85,38.1 -85,85 v 276 c 0,56.7 -40.8,96.9 -89.9,125.4 -107,62.2 -198.3,90.9 -273.4,90.9 m 0,0 v -117.4 c 38.9,0 107.8,-13 214.4,-75 22.5,-13.1 29.8,-22.5 31.5,-25.2 V 14177 c 0,-111.6 90.8,-202.4 202.4,-202.4 h 293.4 l 347.9,-481.8 -59.1,-1304.4 c -398.5,383 -727.9,828.7 -939.9,1275.1 -102.8,216.6 -174.8,427.8 -208.4,610.9 -29.8,162.7 -28.3,300.2 4.3,387.4 29.6,79.4 74,90.1 113.5,90.1 v 117.4"
         style="fill:#fbc343;fill-opacity:1;fill-rule:nonzero;stroke:none"
         id="path26" /><path
         d="m 16892.5,7906.7 h -2301.6 v 1194.4 h 2301.6 V 7906.7"
         style="fill:#6f3428;fill-opacity:1;fill-rule:nonzero;stroke:none"
         id="path28" /><path
         d="m 16540.2,9101.1 h -1597.1 v 389.7 c 0,174.1 141.1,315.2 315.2,315.2 h 966.7 c 174.1,0 315.2,-141.1 315.2,-315.2 v -389.7"
         style="fill:#fbc343;fill-opacity:1;fill-rule:nonzero;stroke:none"
         id="path30" /><path
         d="m 16238.8,9806 h -994.2 v 242.6 c 0,108.3 87.8,196.2 196.1,196.2 h 601.9 c 108.3,0 196.2,-87.9 196.2,-196.2 V 9806"
         style="fill:#fbc343;fill-opacity:1;fill-rule:nonzero;stroke:none"
         id="path32" /><path
         d="m 16019,10367.5 31,-122.7 h -616.5 l 30.7,122.7 c 41.1,163 41.1,327.3 0,490.3 l -30.7,122.7 h 616.5 l -31,-122.7 c -13.5,-53.8 -22.5,-107.5 -27,-161.5 -9.5,-109.8 -0.5,-219.5 27,-328.8"
         style="fill:#fbc343;fill-opacity:1;fill-rule:nonzero;stroke:none"
         id="path34" /><path
         d="m 15992,10696.3 c -33.7,224.5 -558.5,284.2 -558.5,284.2 h 7.3 v 0 h 601.7 v 0 h 7.5 l -31,-122.7 c -13.5,-53.8 -22.5,-107.5 -27,-161.5 v 0"
         style="fill:#d1983b;fill-opacity:1;fill-rule:nonzero;stroke:none"
         id="path36" /><path
         d="m 16238.7,11419.3 v -242.5 c 0,-20 -2.9,-39.3 -8.4,-57.5 -24.6,-80.3 -99.3,-138.8 -187.8,-138.8 h -601.7 c -108.3,0 -196.3,87.8 -196.3,196.3 v 242.5 h 994.2"
         style="fill:#fbc343;fill-opacity:1;fill-rule:nonzero;stroke:none"
         id="path38" /><path
         d="m 16230.3,11119.3 c -265.6,244 -939.8,251.2 -985.8,251.5 h 994.2 v -194 c 0,-20 -2.9,-39.3 -8.4,-57.5 v 0"
         style="fill:#d1983b;fill-opacity:1;fill-rule:nonzero;stroke:none"
         id="path40" /><path
         d="m 17285.7,14349.8 -284.9,-1244.5 -316.3,-1381.3 c -47.3,-206.7 -231.2,-353.2 -443.3,-353.2 H 15242 c -211.2,0 -394.5,145.5 -442.8,351.2 l -0.4,2 -601.3,2625.8 c -12.2,53.5 21.7,107 75.8,117.5 978.9,193.5 1957.9,193.5 2936.7,0 54,-10.5 88,-64 75.7,-117.5"
         style="fill:#fbc343;fill-opacity:1;fill-rule:nonzero;stroke:none"
         id="path42" /><path
         d="m 15001.1,13260.4 c -64.5,0 -132.4,136.1 -153.7,310.4 -21.9,179.4 13.9,331.2 80,339.3 1.8,0.2 3.7,0.3 5.5,0.3 64.5,0 132.5,-136 153.7,-310.4 21.9,-179.3 -13.9,-331.2 -80,-339.3 -1.8,-0.2 -3.7,-0.3 -5.5,-0.3"
         style="fill:#fde7b4;fill-opacity:1;fill-rule:nonzero;stroke:none"
         id="path44" /><path
         d="M 16241.2,11370.8 H 15242 c -211.2,0 -394.5,145.5 -442.8,351.2 1098.3,69.3 1828.8,765.5 2201.6,1383.3 L 16684.5,11724 c -47.3,-206.7 -231.2,-353.2 -443.3,-353.2"
         style="fill:#edb440;fill-opacity:1;fill-rule:nonzero;stroke:none"
         id="path46" /><path
         d="m 15434.8,10244.7 c -0.4,0 -0.9,0 -1.3,0.1 v 0 h 4.1 c -1,-0.1 -1.9,-0.1 -2.8,-0.1 m 613.3,0 c -0.8,0 -1.6,0 -2.4,0.1 h 4.3 v 0 c -0.6,-0.1 -1.3,-0.1 -1.9,-0.1"
         style="fill:#d4c2be;fill-opacity:1;fill-rule:nonzero;stroke:none"
         id="path48" /><path
         d="m 15611.1,10241.1 c -58.5,0 -117.1,0.7 -176.3,3.6 0.9,0 1.8,0 2.8,0.1 h 608.1 c 0.8,-0.1 1.6,-0.1 2.4,-0.1 -51.4,-1.4 -102,-1.3 -152.6,-1.5 l -153.5,-1.5 c -43.6,-0.2 -87.2,-0.6 -130.9,-0.6"
         style="fill:#d1983b;fill-opacity:1;fill-rule:nonzero;stroke:none"
         id="path50" /><path
         d="m 16050,10244.8 h -616.5 c 50.5,12.6 101.8,20.1 153.3,25.5 51.4,5.6 103.1,8 154.9,8.9 1.8,0 3.7,0 5.5,0 101.5,0 204.1,-7.3 302.8,-34.4"
         style="fill:#d1983b;fill-opacity:1;fill-rule:nonzero;stroke:none"
         id="path52" /><path
         d="m 15248.3,9805.8 c -1.3,0.1 -2.5,0.1 -3.7,0.2 v 0 h 13.7 c -3.4,0 -6.7,-0.1 -10,-0.2"
         style="fill:#d4c2be;fill-opacity:1;fill-rule:nonzero;stroke:none"
         id="path54" /><path
         d="m 15523.3,9800.8 c -91.5,0 -183.2,1.2 -275,5 3.3,0.1 6.6,0.2 10,0.2 h 743.4 c -3.8,-0.1 -7.6,-0.1 -11.4,-0.1 l -248.3,-3.7 c -72.8,-0.6 -145.7,-1.4 -218.7,-1.4"
         style="fill:#d1983b;fill-opacity:1;fill-rule:nonzero;stroke:none"
         id="path56" /><path
         d="m 16238.8,9806 v 0 c -30.7,1 -61.4,1.4 -92,1.4 -48.4,0 -96.7,-0.9 -145.1,-1.4 h -743.4 -13.7 c 165,22.3 330.9,31 497,33.7 17.7,0.2 35.5,0.3 53.3,0.3 65.3,0 130.6,-1.3 195.9,-4.9 83,-4.1 166.4,-11.8 248,-29.1"
         style="fill:#d1983b;fill-opacity:1;fill-rule:nonzero;stroke:none"
         id="path58" /><path
         d="m 15294.8,16333.6 102.9,-740.8 c 6,-43 -51.6,-62.7 -73.3,-25.2 l -373.9,647.7 c -23,39.8 -3.8,90.4 39.6,105.3 l 208.8,71.7 c 43.3,14.9 89.6,-13.3 95.9,-58.7"
         style="fill:#fbc343;fill-opacity:1;fill-rule:nonzero;stroke:none"
         id="path60" /><path
         d="M 16328.8,16777.1 15924,15505.4 c -23.4,-73.7 -131.3,-61.2 -137.3,15.9 l -103.1,1330.6 c -6.4,81.6 63.4,148.4 144.7,139 l 391.3,-45.4 c 81.4,-9.4 134,-90.4 109.2,-168.4"
         style="fill:#fbc343;fill-opacity:1;fill-rule:nonzero;stroke:none"
         id="path62" /><path
         d="m 16801.4,15998.1 -482.9,-460.6 c -27.9,-26.7 -72.2,4.7 -56.4,40 l 274.3,608.3 c 16.8,37.3 63.5,49.8 96.9,26.2 l 160.7,-113.9 c 33.4,-23.6 37.1,-71.8 7.4,-100"
         style="fill:#fbc343;fill-opacity:1;fill-rule:nonzero;stroke:none"
         id="path64" /><path
         d="m 5939.77,12236.6 c 216.7,-135 446.71,39.6 471.91,188 37.5,220.8 -163.55,475 -471.91,286.4 0,0 -267.23,312.5 -526.83,3.1 0,0 -442.93,-222.9 -197.1,-610.4 245.1,-386.3 554.31,139.9 554.31,139.9 l 169.62,-7"
         style="fill:#102048;fill-opacity:1;fill-rule:nonzero;stroke:none"
         id="path66" /><path
         d="m 6097.2,12139.8 c 118.75,-159.4 170.95,-222.2 154.23,-272 -16.73,-49.9 -135.48,-53.9 -135.48,-53.9 l -18.75,325.9"
         style="fill:#e28b6d;fill-opacity:1;fill-rule:nonzero;stroke:none"
         id="path68" /><path
         d="m 5912.85,11647.4 -68.01,-170 -262.99,-657.8 -424.26,502.3 400.51,592.2 238.99,-179.7 115.76,-87"
         style="fill:#f9b384;fill-opacity:1;fill-rule:nonzero;stroke:none"
         id="path70" /><path
         d="m 5912.85,11647.4 -68.01,-170 c -92.75,91.7 -182.99,211.5 -219.75,264.5 l 172,-7.5 115.76,-87"
         style="fill:#102048;fill-opacity:1;fill-rule:nonzero;stroke:none"
         id="path72" /><path
         d="m 6159.1,11732.6 c -3.75,-89.5 -21.51,-159.2 -65.26,-190.2 -125.74,-89 -587.5,290.5 -587.5,290.5 l -31.5,534.2 649.26,-46.2 c 1.25,-85.8 10.49,-182.3 19.24,-277.5 10,-111.3 19.76,-221 15.76,-310.8"
         style="fill:#f9b384;fill-opacity:1;fill-rule:nonzero;stroke:none"
         id="path74" /><path
         d="m 5535.11,12104.8 c 158.86,-29.7 199.69,145.8 199.69,145.8 170.11,104.2 310.73,-136.5 463.71,-46.8 l 23.58,307.2 -672.99,34.4 -242.63,-156.3 68.75,-187.5 159.89,-96.8"
         style="fill:#102048;fill-opacity:1;fill-rule:nonzero;stroke:none"
         id="path76" /><path
         d="m 5634.59,12101.4 c -85.49,97.1 -223.63,55.5 -236.82,-48.7 -13.18,-104.2 72.91,-279.9 212.68,-178 l 24.14,226.7"
         style="fill:#f9b384;fill-opacity:1;fill-rule:nonzero;stroke:none"
         id="path78" /><path
         d="m 6159.1,11732.6 c -13.5,-4 -28.01,-6 -43.01,-6 -88.24,0 -159.75,71.5 -159.75,159.8 0,88 71.51,159.5 159.75,159.5 9.26,0 18.5,-0.8 27.25,-2.5 10,-111.3 19.76,-221 15.76,-310.8"
         style="fill:#fc8879;fill-opacity:1;fill-rule:nonzero;stroke:none"
         id="path80" /><path
         d="m 5576.31,12032.2 c -5,11.4 -13.9,20.8 -23.77,28.4 -10.06,7.4 -21.02,14 -32.75,16.8 -11.49,3.4 -23.33,3.6 -33.54,-1 -10.45,-4.2 -18.82,-13.7 -26.39,-24.6 l -6.78,2.8 c 3.45,13.8 11.56,28 25.67,36.4 14.14,8.2 31.55,8.4 46.07,4.3 14.54,-4.7 27.77,-12.2 38.21,-22.8 10.31,-10.4 19.22,-23.5 20.48,-38.9 l -7.2,-1.4"
         style="fill:#102048;fill-opacity:1;fill-rule:nonzero;stroke:none"
         id="path82" /><path
         d="m 6198.52,10419.5 c 140.26,163 154.2,395.8 207.34,443.6 98.96,89 53.77,-182.9 53.77,-182.9 0,0 64.37,183.1 219.06,224.5 101.3,27.2 119.38,-67 110.61,-145.9 -14.57,-130.9 -57.63,-280.7 -163.45,-367.7 -45.04,-37 -102.6,-65.2 -135.05,-115.2 -18.44,-28.4 -34.43,-60.5 -43.36,-93.4 l -248.92,237"
         style="fill:#f9b384;fill-opacity:1;fill-rule:nonzero;stroke:none"
         id="path84" /><path
         d="m 6176.26,10414.1 65.2,87.8 265.15,-235.7 -74.1,-107 -256.25,254.9"
         style="fill:#708cd5;fill-opacity:1;fill-rule:nonzero;stroke:none"
         id="path86" /><path
         d="m 5338.05,9549.5 843.62,940.4 313.21,-307.4 C 6270.9,9673.2 5974.18,9346.4 5498.5,9096.4 l -160.45,453.1"
         style="fill:#102048;fill-opacity:1;fill-rule:nonzero;stroke:none"
         id="path88" /><path
         d="m 6538.49,10687.8 c 16.67,3.3 32.82,-0.6 47.7,-5.2 15.03,-4.7 28.88,-11.8 42.28,-19.4 13.36,-7.7 25.94,-16.6 37.64,-26.7 11.54,-10.7 22.96,-19.8 30.31,-37.7 l -9.14,-3.5 c -8.33,7.8 -22.75,15.9 -34.31,23.6 -12.3,7.8 -24.65,15.5 -37.13,22.9 -12.42,7.5 -25.06,14.5 -37.68,21.3 -12.77,6.3 -25.69,12.2 -39.13,14.9 l -0.54,9.8"
         style="fill:#e28b6d;fill-opacity:1;fill-rule:nonzero;stroke:none"
         id="path90" /><path
         d="m 6457.72,10630.7 c 17.03,-6.6 34.15,-16.4 46.13,-32.9 12.19,-16.2 16.7,-38 14.27,-57.7 -2.38,-19.9 -10.42,-38 -21.43,-53.5 -11.22,-15.2 -24.57,-29.4 -44.88,-35.3 l -3.11,9.3 c 12.09,8.8 21.6,23.8 29.43,37.7 7.66,14.4 13.37,29.6 15.28,44.7 2.07,15.2 -0.5,29.9 -7.34,43.5 -7.25,13.5 -19.8,24.4 -32.92,35.6 l 4.57,8.6"
         style="fill:#e28b6d;fill-opacity:1;fill-rule:nonzero;stroke:none"
         id="path92" /><path
         d="m 3534.58,9549.5 -898.47,244.9 c 18.16,66.6 86.88,105.9 153.48,87.7 l 657.27,-179.2 c 66.6,-18.1 105.87,-86.8 87.72,-153.4"
         style="fill:#708cd5;fill-opacity:1;fill-rule:nonzero;stroke:none"
         id="path94" /><path
         d="m 3187.69,4639.2 c 0,0 183.71,-390.9 712.18,-265.2 l -254.86,338.1 -457.32,-72.9"
         style="fill:#1f3c88;fill-opacity:1;fill-rule:nonzero;stroke:none"
         id="path96" /><path
         d="m 3367.02,4687.3 -188.15,-423.2 205.36,-323.7 253.97,206.6 112.27,465.7 -383.45,74.6"
         style="fill:#f9b384;fill-opacity:1;fill-rule:nonzero;stroke:none"
         id="path98" /><path
         d="M 3178.87,4264.1 3638.2,4147 3898.75,3502.3 c 24.39,-60.4 -38.34,-119.1 -96.94,-90.7 l -814.93,394 c -58.99,28.5 -84.42,98.9 -57.28,158.5 l 7.19,15.8 c 52.56,115.5 136.42,214 242.08,284.2"
         style="fill:#1f3c88;fill-opacity:1;fill-rule:nonzero;stroke:none"
         id="path100" /><path
         d="M 3178.87,4264.1 3638.2,4147 3898.75,3502.3 c 24.39,-60.4 -38.34,-119.1 -96.94,-90.7 l -814.93,394 c -58.99,28.5 -84.42,98.9 -57.28,158.5 l 7.19,15.8 c 52.56,115.5 136.42,214 242.08,284.2"
         style="fill:#1f3c88;fill-opacity:1;fill-rule:nonzero;stroke:none"
         id="path102" /><path
         d="m 3619.87,3851.2 -12.23,21.8 113.79,63.8 12.22,-21.8 -113.78,-63.8"
         style="fill:#acbfee;fill-opacity:1;fill-rule:nonzero;stroke:none"
         id="path104" /><path
         d="m 3676.77,3708.5 -12.23,21.8 113.78,63.8 12.23,-21.8 -113.78,-63.8"
         style="fill:#acbfee;fill-opacity:1;fill-rule:nonzero;stroke:none"
         id="path106" /><path
         d="m 3799.33,9002.1 c -88.88,-209.2 -209.47,-530.7 -7.35,-917 82.26,-157.2 109.93,-337.2 70.21,-510.1 L 3187.69,4639.2 3899.87,4374 5357.26,8625.3 3799.33,9002.1"
         style="fill:#102048;fill-opacity:1;fill-rule:nonzero;stroke:none"
         id="path108" /><path
         d="m 5704.75,11116.2 c 143.9,-413.1 147.96,-1118.5 -125.49,-1862.8 l -421.75,-120.4 169.51,1378.6 377.73,604.6"
         style="fill:#708cd5;fill-opacity:1;fill-rule:nonzero;stroke:none"
         id="path110" /><path
         d="m 5241.72,11471 115.54,255.6 c 0,0 327.33,-228.1 499.21,-500 l -200.49,-377.2 -414.26,621.6"
         style="fill:#708cd5;fill-opacity:1;fill-rule:nonzero;stroke:none"
         id="path112" /><path
         d="m 5326.85,9307.9 c -1120.51,36 -1707.01,-592 -1702.75,-567.5 180.25,611.5 350,1068.7 501.99,1410 275.51,619.2 492.01,858.2 604.51,948.2 55,44.3 85.24,52.8 85.24,52.8 l 510.25,427.2 c 44.26,-22.7 86.25,-55.2 124.26,-91 143.75,-135 225.99,-321.5 245.49,-517.5 76.5,-767.2 -368.99,-1662.2 -368.99,-1662.2"
         style="fill:#1f3c88;fill-opacity:1;fill-rule:nonzero;stroke:none"
         id="path114" /><path
         d="m 5003.34,11074.6 c -163.5,-86.8 -447.57,-540.2 -877.25,-924.2 275.51,619.2 492.01,858.2 604.51,948.2 l 272.74,-24"
         style="fill:#102048;fill-opacity:1;fill-rule:nonzero;stroke:none"
         id="path116" /><path
         d="m 3161.08,10122.8 -180.33,-256.1 c 0,0 -22.34,-104.7 -70.59,-146.3 0,0 21.61,-107.3 105.98,-145 96.33,-42.9 215.14,-40.6 292.19,69.3 77.04,110 87.06,436.1 87.06,436.1 l -234.31,42"
         style="fill:#f9b384;fill-opacity:1;fill-rule:nonzero;stroke:none"
         id="path118" /><path
         d="m 3036.68,10070.4 c 0,-16.7 -33.34,-108.3 -33.34,-108.3 l 392.05,-54.2 v 172.9 l -358.71,-10.4"
         style="fill:#708cd5;fill-opacity:1;fill-rule:nonzero;stroke:none"
         id="path120" /><path
         d="m 5326.2,11578.7 c 0,0 -746.42,111.9 -1352.78,-202.2 -85.51,-44.3 -163.53,-101.9 -232.7,-168.9 -292.74,-283.7 -554.24,-563 -752.07,-1156 l 466.12,-76.2 469.87,694.5 c 40.52,59.4 101.89,101.3 172.03,117.3 248.85,56.8 845.4,196.4 938.96,250.9 l 290.57,540.6"
         style="fill:#1f3c88;fill-opacity:1;fill-rule:nonzero;stroke:none"
         id="path122" /><path
         d="m 5980.32,7114.5 c 0,0 280.72,-374 745.62,-186.1 l -310.1,329.5 -435.52,-143.4"
         style="fill:#1f3c88;fill-opacity:1;fill-rule:nonzero;stroke:none"
         id="path124" /><path
         d="M 6152.15,7212.7 5964,6789.6 l 205.37,-323.8 253.97,206.6 112.27,465.7 -383.46,74.6"
         style="fill:#f9b384;fill-opacity:1;fill-rule:nonzero;stroke:none"
         id="path126" /><path
         d="m 5964,6789.6 459.34,-117.2 260.54,-644.7 c 24.39,-60.3 -38.34,-119 -96.94,-90.7 l -814.92,394 c -59,28.5 -84.43,98.9 -57.28,158.6 l 7.19,15.8 c 52.56,115.4 136.42,213.9 242.07,284.2"
         style="fill:#1f3c88;fill-opacity:1;fill-rule:nonzero;stroke:none"
         id="path128" /><path
         d="m 6403.21,6388.1 -12.23,21.8 113.78,63.9 12.23,-21.8 -113.78,-63.9"
         style="fill:#acbfee;fill-opacity:1;fill-rule:nonzero;stroke:none"
         id="path130" /><path
         d="m 6460.1,6245.4 -12.24,21.8 113.79,63.9 12.23,-21.8 -113.78,-63.9"
         style="fill:#acbfee;fill-opacity:1;fill-rule:nonzero;stroke:none"
         id="path132" /><path
         d="m 3799.33,9002.1 c 153.13,105.9 1129.78,362 1749.77,343.3 689.08,-20.8 1242.14,-99.1 1466.94,-603.7 224.8,-504.6 -290.1,-1813.3 -290.1,-1813.3 l -745.62,186.1 179.71,1213.3 c 0,0 -944.19,-119.1 -1394.19,-124.1 l -966.51,798.4"
         style="fill:#102048;fill-opacity:1;fill-rule:nonzero;stroke:none"
         id="path134" /><path
         d="m 5357.16,8235.9 c -76.79,-0.4 -150.54,-19.6 -226.46,-35.2 -76.01,-15.6 -154.27,-21.7 -231.79,-20.8 -77.61,1.5 -154.74,8.8 -231.31,19 -38.22,5.5 -76.25,12.2 -114.33,18.3 -37.8,7.8 -75.66,15.1 -113.31,23.4 l 1.77,9.6 c 38.21,-4.8 76.21,-10.5 114.27,-15.7 38.12,-4.7 76.16,-9.9 114.29,-13.9 76.23,-8.3 152.6,-14.6 228.95,-16 76.42,-2.1 152.32,4.4 227.67,16.9 37.76,6.1 75.51,13.9 114.02,19.3 38.63,5 77.67,6.3 116.42,4.9 l -0.19,-9.8"
         style="fill:#708cd5;fill-opacity:1;fill-rule:nonzero;stroke:none"
         id="path136" /><path
         d="m 3933.34,8961.6 -236.74,-868.7 -27.76,-101.3 c -29.24,-107 -139.74,-170.2 -246.99,-141 l -1550.76,422.8 c -107.25,29.2 -170.49,139.7 -141.24,247 l 155.99,571.7 108.5,398 c 29.25,107.3 139.75,170.5 246.75,141.3 l 1551,-422.8 c 107.25,-29.2 170.25,-139.7 141.25,-247"
         style="fill:#acbfee;fill-opacity:1;fill-rule:nonzero;stroke:none"
         id="path138" /><path
         d="m 2498.09,9287.7 137.59,504.7 c 18.16,66.6 86.88,105.9 153.48,87.8 l -170.47,-625.4 -120.6,32.9"
         style="fill:#708cd5;fill-opacity:1;fill-rule:nonzero;stroke:none"
         id="path140" /><path
         d="m 3284.59,9107.3 162.4,595.7 c 66.6,-18.2 105.88,-86.9 87.72,-153.5 l -129.52,-475.1 -120.6,32.9"
         style="fill:#708cd5;fill-opacity:1;fill-rule:nonzero;stroke:none"
         id="path142" /><path
         d="m 2657.15,9238.7 c 0,-59.4 -48.19,-107.6 -107.64,-107.6 -59.45,0 -107.64,48.2 -107.64,107.6 0,59.5 48.19,107.7 107.64,107.7 59.45,0 107.64,-48.2 107.64,-107.7"
         style="fill:#102048;fill-opacity:1;fill-rule:nonzero;stroke:none"
         id="path144" /><path
         d="m 3445.24,9064.1 c 0,-59.4 -48.19,-107.6 -107.64,-107.6 -59.45,0 -107.64,48.2 -107.64,107.6 0,59.5 48.19,107.7 107.64,107.7 59.45,0 107.64,-48.2 107.64,-107.7"
         style="fill:#102048;fill-opacity:1;fill-rule:nonzero;stroke:none"
         id="path146" /><path
         d="m 1729.85,8520.4 207.05,759 v 0 l -51.06,-187.3 -155.99,-571.7"
         style="fill:#dbdee4;fill-opacity:1;fill-rule:nonzero;stroke:none"
         id="path148" /><path
         d="m 3474.92,7843.5 c -17.53,0 -35.34,2.3 -53.07,7.1 l -1550.76,422.8 c -89.44,24.4 -148.28,105.3 -148.39,193.7 -0.02,17.6 2.29,35.5 7.15,53.3 v 0 l 155.99,571.7 51.06,187.3 c -52.3,-717.9 1066.44,-1184 1759.7,-1186.5 l -27.76,-101.3 c -24.41,-89.3 -105.44,-148.1 -193.92,-148.1"
         style="fill:#95a7d5;fill-opacity:1;fill-rule:nonzero;stroke:none"
         id="path150" /><path
         d="m 5559.72,2376.5 h -2735.5 v 1021 h 2711 l 3,562.5 3.25,564 h 2723.24 v 1126.2 h 2710.99 v 1098 H 13687 v 1126.5 l 3519.3,-1 V 6812.1 L 5559.72,2376.5"
         style="fill:#eef2fc;fill-opacity:1;fill-rule:nonzero;stroke:none"
         id="path152" /><path
         d="M 10946.4,5621 H 8272.6 c -29.93,0 -54.42,24.5 -54.42,54.5 0,29.9 24.49,54.4 54.42,54.4 h 2673.8 c 29.9,0 54.4,-24.5 54.4,-54.4 0,-30 -24.5,-54.5 -54.4,-54.5"
         style="fill:#acbfee;fill-opacity:1;fill-rule:nonzero;stroke:none"
         id="path154" /><path
         d="m 13663.1,6704.4 h -2673.8 c -30,0 -54.4,24.5 -54.4,54.4 0,29.9 24.4,54.4 54.4,54.4 h 2673.8 c 29.9,0 54.4,-24.5 54.4,-54.4 0,-29.9 -24.5,-54.4 -54.4,-54.4"
         style="fill:#acbfee;fill-opacity:1;fill-rule:nonzero;stroke:none"
         id="path156" /><path
         d="m 17208,7845.3 h -3526 c -29.9,0 -54.4,24.5 -54.4,54.4 0,30 24.5,54.5 54.4,54.5 h 3526 c 29.9,0 54.4,-24.5 54.4,-54.5 0,-29.9 -24.5,-54.4 -54.4,-54.4"
         style="fill:#acbfee;fill-opacity:1;fill-rule:nonzero;stroke:none"
         id="path158" /><path
         d="M 8233.12,4501.1 H 5559.33 c -29.93,0 -54.42,24.5 -54.42,54.5 0,29.9 24.49,54.4 54.42,54.4 h 2673.79 c 29.93,0 54.42,-24.5 54.42,-54.4 0,-30 -24.49,-54.5 -54.42,-54.5"
         style="fill:#acbfee;fill-opacity:1;fill-rule:nonzero;stroke:none"
         id="path160" /><path
         d="M 5509.37,3374.8 H 2835.58 c -29.93,0 -54.42,24.5 -54.42,54.4 0,30 24.49,54.4 54.42,54.4 h 2673.79 c 29.93,0 54.42,-24.4 54.42,-54.4 0,-29.9 -24.49,-54.4 -54.42,-54.4"
         style="fill:#acbfee;fill-opacity:1;fill-rule:nonzero;stroke:none"
         id="path162" /><path
         d="m 8494.96,9360.4 -14.88,168 267.98,23.7 c 1391.64,123.1 2562.34,1063.7 2982.44,2396.1 l 342.9,1087.6 160.9,-50.7 -342.9,-1087.6 C 11450.7,10499.8 10222.7,9513.3 8762.94,9384.1 l -267.98,-23.7"
         style="fill:#dee5f8;fill-opacity:1;fill-rule:nonzero;stroke:none"
         id="path164" /><path
         d="m 12158.2,12004.1 -73.3,800.6 -544.1,-630.6 -127.8,110.2 803.7,931.3 109.5,-1196.1 -168,-15.4"
         style="fill:#dee5f8;fill-opacity:1;fill-rule:nonzero;stroke:none"
         id="path166" /><path
         d="m 5918.94,15196.4 c 0,-28.8 -10.85,-56.5 -31.17,-82.5 H 2830.66 c -11.7,26 -17.9,53.7 -17.9,82.5 0,153.4 178.2,277.7 398.06,277.7 69.73,0 135.16,-12.6 192.14,-34.6 29.96,217.8 328.51,388.9 692.31,388.9 379.31,0 687.49,-185.7 694.9,-416.5 118.97,38.8 271,62.2 436.46,62.2 382.39,0 692.31,-124.3 692.31,-277.7"
         style="fill:#dee5f8;fill-opacity:1;fill-rule:nonzero;stroke:none"
         id="path168" /><path
         d="m 11247.1,17252.7 c 0,-34.4 -13,-67.6 -37.3,-98.7 H 7550.97 c -14.01,31.1 -21.43,64.3 -21.43,98.7 0,183.6 213.28,332.4 476.42,332.4 83.45,0 161.75,-15 229.96,-41.4 35.85,260.7 393.16,465.5 828.57,465.5 453.95,0 822.8,-222.4 831.66,-498.5 142.35,46.4 324.35,74.4 522.35,74.4 457.7,0 828.6,-148.8 828.6,-332.4"
         style="fill:#dee5f8;fill-opacity:1;fill-rule:nonzero;stroke:none"
         id="path170" /></g></g></svg>
