<?xml version="1.0" encoding="UTF-8" standalone="no"?>
<!-- Created with Inkscape (http://www.inkscape.org/) -->

<svg
   version="1.1"
   id="svg2"
   xml:space="preserve"
   width="4000"
   height="2666.6667"
   viewBox="0 0 4000 2666.6667"
   sodipodi:docname="Work_6.eps"
   xmlns:inkscape="http://www.inkscape.org/namespaces/inkscape"
   xmlns:sodipodi="http://sodipodi.sourceforge.net/DTD/sodipodi-0.dtd"
   xmlns="http://www.w3.org/2000/svg"
   xmlns:svg="http://www.w3.org/2000/svg"><defs
     id="defs6" /><sodipodi:namedview
     id="namedview4"
     pagecolor="#ffffff"
     bordercolor="#666666"
     borderopacity="1.0"
     inkscape:pageshadow="2"
     inkscape:pageopacity="0.0"
     inkscape:pagecheckerboard="0" /><g
     id="g8"
     inkscape:groupmode="layer"
     inkscape:label="ink_ext_XXXXXX"
     transform="matrix(1.3333333,0,0,-1.3333333,0,2666.6667)"><g
       id="g10"
       transform="scale(0.1)"><path
         d="M 0,0 H 30000 V 20000 H 0 Z"
         style="fill:#ffffff;fill-opacity:1;fill-rule:nonzero;stroke:none"
         id="path12" /><path
         d="m 10521.3,11432.6 c -86.1,177 -179.2,347.9 -277.2,506.5 124.5,112.9 253.4,242.7 383.8,385.9 409.7,450.1 833.5,1031.7 1182.9,1629.9 194.8,-156.9 348.2,-360.5 421.8,-602.7 328.7,-1081.5 -718.1,-1777.2 -1711.3,-1919.6 m -809.45,1430.2 c 3.37,116.9 5.2,240 3.17,344.6 164.78,30.5 300.58,152.5 360.48,334.8 v 0 c 21.3,64.2 32.8,135.9 32.9,213.7 0,12.7 -0.3,25.6 -0.9,38.7 -0.8,29.2 -4,58.8 -8.4,89.6 l 42.8,283.3 c 203,101.5 425,149.8 647.1,149.8 116.1,0 232.2,-13.2 345.7,-38.8 L 10946.3,13967 9711.85,12862.8"
         style="fill:#f4f7ff;fill-opacity:1;fill-rule:nonzero;stroke:none"
         id="path14" /><path
         d="M 18333.6,2192.2 H 7238.8 c -124.4,130.4 -245.19,264 -361.6,400 C 5797.2,3854.6 5102,5350.6 5526,7076.6 c 16.08,65.5 33.67,130.3 52.81,194.8 1044.96,738.1 2008.82,1483.9 2788.7,2247.1 l 33.96,-301.9 v 0 l 67.2,-596.8 c 206.67,78.8 399.49,169.5 576.92,279.3 355.08,-200.4 971.41,-390.3 2032.71,-390.3 91.1,0 185.9,1.4 283.7,4.3 l -830.1,-1727.9 1305.9,-407.2 899.8,1952.9 c 223.4,484.8 60.8,1156.6 -428.9,1368.9 -418.7,181.4 -861.2,317 -1313.9,417.3 -50.9,223.1 -123.4,462.2 -212.4,703.2 782.6,44.7 1564.5,77.4 2290,361.1 1372.8,536.8 2237.6,1840.4 3342.4,2801.2 1146,996.4 2626.8,1648.8 4150,1722.4 93.7,4.6 187.7,6.9 281.5,6.9 1430.8,0 2857,-527 3840.1,-1511.3 736,-736.4 1207.6,-1700.4 1427.6,-2709.2 370.8,-1701.2 18.4,-3564.4 -1005.6,-5024 C 24072,4990.6 22444.8,3999.4 20788,3221.8 c -474.4,-222.4 -954.4,-431.2 -1438.8,-629.6 -336.8,-138 -675.2,-270.8 -1015.6,-400 M 14366.7,9702.6 V 8517.5 h 1751.7 v 1185.1 h -1751.7 m 5260.9,16 V 8607.8 h 551.5 v 780.7 330.1 h 2851.8 V 13581 H 16886.1 V 9718.6 h 2741.5 m -11320.84,287.5 -314.49,80.5 -62.18,41.9 c 113.92,63.7 230.22,123.1 348.76,178.1 l 32.99,-293.3 c -1.65,-2.3 -3.43,-4.9 -5.08,-7.2"
         style="fill:#f4f7ff;fill-opacity:1;fill-rule:nonzero;stroke:none"
         id="path16" /><path
         d="m 12299.1,15385.8 c -4,-17.2 -8,-34.4 -11.6,-50.8 l -0.8,-1.6 c -67.2,-280 -126.4,-470.8 -236.8,-651.6 l -385.6,366.4 210.8,398.8 13.6,25.2 v 0.4 l 0.4,0.8 2.8,-0.8 44,-9.2 363.2,-77.6"
         style="fill:#f9b384;fill-opacity:1;fill-rule:nonzero;stroke:none"
         id="path18" /><path
         d="m 12371.1,15681 c -0.8,-12.4 -2,-24.8 -3.6,-37.2 -4.8,-38 -12.4,-77.2 -21.6,-115.6 -6,-25.6 -12.8,-51.2 -20,-75.6 -8.4,-29.2 -17.6,-57.2 -26.4,-82.8 -2.4,-6.4 -4.4,-12.8 -6.4,-18.8 -1.6,-5.6 -3.6,-10.8 -5.6,-16 l -0.8,-1.6 c -2.8,-7.6 -5.2,-14.8 -8,-22 l -0.8,-2.4 c -2,-6 -4.4,-11.6 -6.4,-17.2 -14,-37.2 -24,-60 -24,-60 -149.2,24.4 -257.6,104 -334.8,206.8 -8,10.4 -15.6,20.8 -22.8,31.6 l -1.2,2 v 0.4 c -99.2,147.2 -144,331.2 -164.4,469.2 -0.4,1.6 -0.4,2.8 -0.8,4.4 -7.2,50 -11.2,94 -13.6,127.2 -2.4,37.6 27.6,69.2 65.2,68.8 l 58.4,-0.8 64,108 450.4,-200.8 c 0,0 20,-94 25.2,-221.6 2,-45.2 1.6,-94.8 -2,-146"
         style="fill:#f9b384;fill-opacity:1;fill-rule:nonzero;stroke:none"
         id="path20" /><path
         d="m 12083.9,15619.8 -148,-156.4 -47.2,8.8 v 0.4 c -99.2,147.2 -144,331.2 -164.4,469.2 l 114.4,-26.8 c 5.2,-75.2 67.6,-229.2 67.6,-229.2 l 177.6,-66"
         style="fill:#e28b6d;fill-opacity:1;fill-rule:nonzero;stroke:none"
         id="path22" /><path
         d="m 11883.9,15919.8 c -46.8,-38.8 -123.6,2.4 -160.4,26.4 -7.2,50 -11.2,94 -13.6,127.2 -2.4,37.6 27.6,69.2 65.2,68.8 l 58.4,-0.8 c 0,0 108.4,-173.2 50.4,-221.6"
         style="fill:#e28b6d;fill-opacity:1;fill-rule:nonzero;stroke:none"
         id="path24" /><path
         d="m 12117,15622.8 c 9.6,32 9.2,82.7 -66.1,115.7 l 98.6,-7.1 13.2,-106.8 c 0,0 -17.2,3 -45.7,-1.8 z m 256.1,204.2 -19.6,2.5 -338.3,77.7 -108.8,-221.5 161.8,-75.2 c -49.6,-17.3 -113.8,-56.6 -178.3,-140.4 78.9,-117.7 193.3,-211.4 357.5,-238.3 0,0 109.8,252.9 123.7,449 3.7,51.5 3.8,101.1 2,146.2"
         style="fill:#f9b384;fill-opacity:1;fill-rule:nonzero;stroke:none"
         id="path26" /><path
         d="m 12343.1,15031.8 c -364.8,-924.8 -1058,-1984.8 -1715.2,-2706.8 -241.2,-264.8 -477.2,-484 -690.43,-634.8 l -351.6,906.8 -44,113.6 110.4,98.8 20,18 1274.03,1139.6 828.4,1369.2 568.4,-304.4"
         style="fill:#1f3c88;fill-opacity:1;fill-rule:nonzero;stroke:none"
         id="path28" /><path
         d="m 10476.6,3655.2 -830.18,-33.6 -130.59,-581.4 778.87,-121.8 181.9,736.8"
         style="fill:#f9b384;fill-opacity:1;fill-rule:nonzero;stroke:none"
         id="path30" /><path
         d="m 11011.7,2192.2 -717,726.2 -778.87,121.8 -189.09,-841.7 1684.96,-6.3"
         style="fill:#d3dfff;fill-opacity:1;fill-rule:nonzero;stroke:none"
         id="path32" /><path
         d="m 9849.84,2715.1 -385,75 7.66,39.3 385,-75 -7.66,-39.3"
         style="fill:#708cd5;fill-opacity:1;fill-rule:nonzero;stroke:none"
         id="path34" /><path
         d="m 10291.5,2531.4 -15.7,36.8 245,105 15.7,-36.8 -245,-105"
         style="fill:#708cd5;fill-opacity:1;fill-rule:nonzero;stroke:none"
         id="path36" /><path
         d="m 10446.5,2391.4 -15.7,36.8 245,105 15.7,-36.8 -245,-105"
         style="fill:#708cd5;fill-opacity:1;fill-rule:nonzero;stroke:none"
         id="path38" /><path
         d="m 8636.4,9382.7 1452.3,-2702.9 -761.78,-3244.3 1415.58,7.9 784.9,2560 c 129.6,422.6 98.5,878.2 -87.4,1279.3 l -851.3,1837.1 -1952.3,262.9"
         style="fill:#102048;fill-opacity:1;fill-rule:nonzero;stroke:none"
         id="path40" /><path
         d="m 8448.67,9969.8 c -937.2,-1250.4 -2170.8,-1954 -3545.6,-2396.4 27.6,49.6 50.8,99.6 67.61,149.6 51.59,152 46,307.6 -67.61,468.4 l -42,435.2 2527.2,1867.2 604,-407.2 456.4,-116.8"
         style="fill:#a11c20;fill-opacity:1;fill-rule:nonzero;stroke:none"
         id="path42" /><path
         d="M 3527.17,10522 C 4018.61,9567.2 4044.9,8242.5 4903.19,8191.2 L 8902,10769.8 7725.44,12810.7 4524.08,11547 3527.17,10522"
         style="fill:#a11c20;fill-opacity:1;fill-rule:nonzero;stroke:none"
         id="path44" /><path
         d="m 4989.61,7790.5 c 7.98,36.3 12.31,72.8 12.33,109.6 0.04,95.3 -28.93,192.2 -98.74,291.1 l 1.83,1.2 c 752.65,380.4 1647.36,983.3 2599.75,1676.4 l 8.27,5.3 C 6781.49,9133.9 6010.04,8441.6 5155.64,7848.8 c -54.89,-19.6 -110.25,-39.1 -166.03,-58.3"
         style="fill:#8e191c;fill-opacity:1;fill-rule:nonzero;stroke:none"
         id="path46" /><path
         d="m 4903.2,8191.2 c -0.04,0 -0.09,0.1 -0.13,0.2 0.65,0.3 1.31,0.6 1.96,1 l -1.84,-1.2 m 2601.59,1677.6 c 3.57,2.6 7.13,5.2 10.69,7.8 -0.81,-0.9 -1.6,-1.7 -2.42,-2.5 l -8.27,-5.3"
         style="fill:#8e191c;fill-opacity:1;fill-rule:nonzero;stroke:none"
         id="path48" /><path
         d="M 8553.86,10395.6 C 7655.23,8823 6141.49,8111.3 4173.06,7531.2 l 592.36,-391.8 c 194.03,-128.4 447.03,-124.9 637.65,8.4 1237.98,866.3 2371.97,1742.4 3235.03,2644 l -84.24,603.8"
         style="fill:#e1272c;fill-opacity:1;fill-rule:nonzero;stroke:none"
         id="path50" /><path
         d="M 8904.89,12824.7 C 7749.77,13342 5869.42,12461.5 4006.49,11614.6 3580.67,11421 3279.22,11028.1 3202.32,10566.7 l -166.58,-999.5 c 1095.2,1670.9 3389.89,2795.6 5869.15,3257.5"
         style="fill:#e1272c;fill-opacity:1;fill-rule:nonzero;stroke:none"
         id="path52" /><path
         d="m 9709.47,12787.8 c -5.2,-174 -12.39,-320 -10.8,-348 l -669.19,-103.6 -383.6,280.8 c 182.39,208.4 267.19,684 372.8,1096 l 420.39,-250.8 272.8,-162.4 c 7.21,-138.4 3.6,-338.8 -2.4,-512"
         style="fill:#f9b384;fill-opacity:1;fill-rule:nonzero;stroke:none"
         id="path54" /><path
         d="m 9709.47,12787.8 c -200.4,120.4 -460,304 -578.4,719.6 l 308,-45.2 272.81,-162.4 c 7.19,-138.4 3.59,-338.8 -2.41,-512"
         style="fill:#e28b6d;fill-opacity:1;fill-rule:nonzero;stroke:none"
         id="path56" /><path
         d="m 10107.5,13794.6 c 4.4,-92.8 -7.2,-177.6 -32,-252.4 -131.63,-400.4 -629.22,-510 -996.43,2.4 l -30.8,791.2 259.6,223.6 844.03,-326 -52.8,-349.2 c 4.4,-30.8 7.6,-60.4 8.4,-89.6"
         style="fill:#f9b384;fill-opacity:1;fill-rule:nonzero;stroke:none"
         id="path58" /><path
         d="m 11051.5,9818 c -131.1,898.6 -720.8,2237.2 -1347.99,2801.2 l -294.86,-589.7 856.45,-2415.1 786.4,203.6"
         style="fill:#708cd5;fill-opacity:1;fill-rule:nonzero;stroke:none"
         id="path60" /><path
         d="m 10630.2,9818 c -198.7,918.4 -468,1881.5 -926.69,2801.2 -231.68,-266.8 -912.66,252.7 -912.66,252.7 l -351.03,-301.8 926.7,-3154.6 1263.68,402.5"
         style="fill:#ffffff;fill-opacity:1;fill-rule:nonzero;stroke:none"
         id="path62" /><path
         d="m 11491.4,6635.4 -720.8,243.4 -174.9,-424 689.8,-371.7 205.9,552.3"
         style="fill:#f9b384;fill-opacity:1;fill-rule:nonzero;stroke:none"
         id="path64" /><path
         d="m 11706.7,5175.1 -421.2,908 -689.8,371.7 -311.8,-755.5 1422.8,-524.2"
         style="fill:#d3dfff;fill-opacity:1;fill-rule:nonzero;stroke:none"
         id="path66" /><path
         d="m 11167.4,5740.5 -10.7,38.5 240,66.7 10.7,-38.5 -240,-66.7"
         style="fill:#708cd5;fill-opacity:1;fill-rule:nonzero;stroke:none"
         id="path68" /><path
         d="m 11254,5560.5 -10.7,38.5 240,66.7 10.7,-38.5 -240,-66.7"
         style="fill:#708cd5;fill-opacity:1;fill-rule:nonzero;stroke:none"
         id="path70" /><path
         d="m 10906.4,6008.6 -413.3,206.6 17.9,35.8 413.3,-206.7 -17.9,-35.7"
         style="fill:#708cd5;fill-opacity:1;fill-rule:nonzero;stroke:none"
         id="path72" /><path
         d="m 9385.25,10342.2 c 993.35,-71.1 2014.65,-248.5 2923.45,-642.4 489.7,-212.3 652.3,-884.1 428.9,-1368.9 L 11837.8,6378 10531.9,6785.2 11362,8513.1 c -2508.65,-74.9 -2783.33,846.7 -2783.33,846.7 l 806.58,982.4"
         style="fill:#1f3c88;fill-opacity:1;fill-rule:nonzero;stroke:none"
         id="path74" /><path
         d="m 9862.67,9752.6 c -327.2,-586 -804.4,-908 -1394,-1132.8 l -67.2,596.8 -123.2,1095.2 -189.6,1688 126.4,598.4 575.6,273.6 c 632,-666.8 836.8,-2156.8 1072,-3119.2"
         style="fill:#708cd5;fill-opacity:1;fill-rule:nonzero;stroke:none"
         id="path76" /><path
         d="m 9106.52,13900.7 c 11.01,216.4 70.99,332.1 232.15,399.1 306.02,-278.8 870.83,-268.8 1153.33,-11.7 -102,35.6 -176.5,61.6 -250,138.3 -42.1,44 -63.3,73.4 -117.9,182.2 -196.18,391.2 -928.76,417.8 -1032.09,41.2 -453.34,-220 -234.33,-553.6 -160.35,-756.4 l 174.86,7.3"
         style="fill:#102048;fill-opacity:1;fill-rule:nonzero;stroke:none"
         id="path78" /><path
         d="m 9258.78,11363.8 51.61,376.8 231.66,119.3 c 0,0 114.87,-19.4 66.51,-167.9 -48.36,-148.5 -349.78,-328.2 -349.78,-328.2"
         style="fill:#e28b6d;fill-opacity:1;fill-rule:nonzero;stroke:none"
         id="path80" /><path
         d="m 9112.73,11275.1 146.05,88.7 188.17,313.3 252.4,126.3 c 14.91,7.5 33.02,0.7 39.38,-14.7 31.94,-27.2 49.54,-66.5 49.79,-120.7 56.83,-47.5 67.61,-100.7 42.05,-158.4 78.29,-33.3 107.67,-74.1 84.58,-123.2 35.18,-57.6 55.89,-112.9 41.9,-180.4 l -388.36,-280.7 -381.49,-141.2 -74.47,491"
         style="fill:#f9b384;fill-opacity:1;fill-rule:nonzero;stroke:none"
         id="path82" /><path
         d="m 8401.47,9216.6 v 0 l -33.96,301.9 -55.67,494.8 -33.57,298.5 957.2,395.6 c -158,-644.8 -429.99,-1149.2 -834,-1490.8"
         style="fill:#5874be;fill-opacity:1;fill-rule:nonzero;stroke:none"
         id="path84" /><path
         d="m 8790.84,12871.9 -795.58,-94.9 c -278.37,-33.2 -513.45,-220.8 -609.82,-484 -243.72,-665.8 -408.87,-1379.2 -448.39,-1991.7 -25.06,-388.4 333.43,-690.5 713.37,-606.1 623.33,138.5 1132.72,541.5 1585.06,1012.1 l -74.89,645.9 -1273.05,-608.5 903.3,2127.2"
         style="fill:#708cd5;fill-opacity:1;fill-rule:nonzero;stroke:none"
         id="path86" /><path
         d="m 9224.12,13757.7 c -48.32,-105.4 -127.25,-176.8 -229.46,-129.9 -102.2,46.9 -228.43,196.5 -162.89,341 47.9,105.5 193.25,111.8 295.47,64.9 102.21,-46.8 145.2,-170.7 96.88,-276"
         style="fill:#f9b384;fill-opacity:1;fill-rule:nonzero;stroke:none"
         id="path88" /><path
         d="m 8295.92,11723.5 c -28.69,-83.4 -59.58,-165.9 -90.97,-248.2 -30.98,-82.5 -64.53,-163.9 -96.67,-245.9 l -101.54,-243.9 c -35.06,-80.8 -70.3,-161.6 -108.32,-241.2 l -14.49,5.9 c 28.22,83.6 59.24,166 90.43,248.4 l 97.2,245.7 c 34.12,81.2 66.81,163 102.09,243.7 34.85,80.9 70.21,161.6 107.78,241.4 l 14.49,-5.9"
         style="fill:#1f3c88;fill-opacity:1;fill-rule:nonzero;stroke:none"
         id="path90" /><path
         d="m 7890.31,10756.8 c 103.77,54.1 207.92,107.4 312.83,159.1 104.58,52.3 210.36,102.2 315.47,153.5 l 317.74,148.7 c 106.47,48.4 213.03,96.6 320.88,142.1 l 6.73,-14.1 c -103.31,-55 -207.91,-107.4 -312.58,-159.6 l -315.73,-152.9 c -106.03,-49.3 -211.41,-100 -317.98,-148.2 -106.24,-48.9 -213.25,-96.2 -320.63,-142.7 l -6.73,14.1"
         style="fill:#1f3c88;fill-opacity:1;fill-rule:nonzero;stroke:none"
         id="path92" /><path
         d="m 9451.35,12300.4 c -85.72,0 -170.73,38.3 -223.1,103.3 l 11.09,11 c 59.76,-47.9 133.16,-74.7 206.47,-74.7 6.56,0 13.12,0.2 19.67,0.6 79.71,5.4 156.38,42.3 215.23,101.5 l 12.36,-9.5 c -46.04,-76.2 -133.89,-126.5 -225.12,-131.7 -5.53,-0.3 -11.07,-0.5 -16.6,-0.5"
         style="fill:#bbc4db;fill-opacity:1;fill-rule:nonzero;stroke:none"
         id="path94" /><path
         d="m 9831.73,10465.2 -10.28,11.8 c 50.26,50.2 95.05,105.1 132.93,164.3 37.47,59.3 69.92,121.9 93.22,188.1 24.4,65.6 41.5,134 50.7,203.6 9.9,69.5 11.4,140.3 6.2,211.2 l 15.5,2.3 c 15.8,-70.9 19.1,-144.6 13.1,-217.4 -6.7,-72.7 -23.1,-144.7 -48.3,-213.5 -26.3,-68.2 -59.5,-134.1 -102.46,-193.3 -42.5,-59.4 -92.9,-113.1 -150.61,-157.1"
         style="fill:#bbc4db;fill-opacity:1;fill-rule:nonzero;stroke:none"
         id="path96" /><path
         d="m 9925.05,10443.7 -7.22,13.9 c 56.93,39.9 111.57,80.4 162.37,125.8 51.1,45 98.1,94 145.8,144.7 l 12.8,-9 c -32.1,-63.4 -78.8,-118.8 -132.3,-165.6 -53.9,-46.5 -114.86,-85.4 -181.45,-109.8"
         style="fill:#bbc4db;fill-opacity:1;fill-rule:nonzero;stroke:none"
         id="path98" /><path
         d="m 9081.99,13821.8 c -6.15,18.7 -14.4,36 -25.15,51.3 -11.01,15.1 -23.29,29.1 -38.58,39.2 -29.56,21.9 -66.66,31.6 -105.93,32.4 l -2.14,11.5 c 20.16,7.8 42.66,9.1 64.45,5.7 21.72,-3.8 42.83,-12.4 61.06,-25.5 17.62,-13.7 33.08,-30.5 42.88,-50.3 10.08,-19.5 15.8,-41.3 15.03,-62.8 l -11.62,-1.5"
         style="fill:#e28b6d;fill-opacity:1;fill-rule:nonzero;stroke:none"
         id="path100" /><path
         d="m 9534.67,14078.2 c -67.94,18.6 -85.47,-99.5 -75.06,-142.6 9.77,-40.4 42.61,-52.1 70.74,-19.7 25.85,29.7 63.88,145.9 4.32,162.3"
         style="fill:#102048;fill-opacity:1;fill-rule:nonzero;stroke:none"
         id="path102" /><path
         d="m 9971.18,14003 c -8.81,37.1 -50.85,50.6 -74.24,20.7 -10.18,-13 -14.8,-30.2 -17.38,-47.1 -3.93,-25.8 -10.96,-58 -2.1,-84.5 11.11,-33.2 41.46,-48.2 63.93,-16.7 21.8,31.2 38.87,88.4 29.79,127.6"
         style="fill:#102048;fill-opacity:1;fill-rule:nonzero;stroke:none"
         id="path104" /><path
         d="m 9735.08,13947.7 c -0.66,-31.2 -2.4,-62.6 -1.53,-92.6 0.95,-14.8 1.53,-30.3 5.83,-40.3 4.38,-10.9 12.41,-21.7 22.57,-32.9 10.03,-11.2 21.4,-23.3 31.23,-38.7 4.96,-7.5 8.66,-16.4 11.67,-25.9 2.61,-9.7 4.06,-23.1 -2.44,-35.2 -6.48,-12 -16.61,-17.8 -24.62,-21.6 -8.33,-3.9 -16.27,-6.5 -23.73,-8.9 -15.4,-4 -29.04,-8.3 -41.28,-15.3 l -9.88,10.9 c 11.65,13.7 27.71,21.4 41.33,28.9 13.66,6.2 28.29,14.8 28.5,20.2 1.37,3.5 -2.22,16.3 -10.4,27 -7.23,11.1 -17.95,21.6 -28.56,33.9 -10.43,12.4 -22.34,26.7 -28.36,45.7 -6.15,19.9 -4.83,36.5 -3.65,52.9 2.75,32.7 9.14,63.8 18.84,94.5 l 14.48,-2.6"
         style="fill:#102048;fill-opacity:1;fill-rule:nonzero;stroke:none"
         id="path106" /><path
         d="m 9506.17,13661.4 277.5,-135 c -47.5,-92.5 -260,-82.5 -277.5,135"
         style="fill:#ffffff;fill-opacity:1;fill-rule:nonzero;stroke:none"
         id="path108" /><path
         d="m 10051.9,13539.8 c -73.63,0 -133.23,59.6 -133.23,133.2 0,73.6 59.6,133.6 133.23,133.6 20,0 38.8,-4.4 55.6,-12 0.6,-13.1 0.9,-26 0.9,-38.7 -0.1,-77.8 -11.6,-149.5 -32.9,-213.7 v 0 c -7.6,-1.6 -15.6,-2.4 -23.6,-2.4"
         style="fill:#faa280;fill-opacity:1;fill-rule:nonzero;stroke:none"
         id="path110" /><path
         d="m 9328.67,13623.1 c -59.27,0 -109.51,38.7 -126.85,92.2 8.03,13.3 15.47,27.5 22.3,42.4 15.13,33 21.3,67.7 19.52,101.4 23.08,19.2 52.71,30.7 85.03,30.7 73.64,0 133.34,-59.7 133.34,-133.4 0,-73.6 -59.7,-133.3 -133.34,-133.3"
         style="fill:#faa280;fill-opacity:1;fill-rule:nonzero;stroke:none"
         id="path112" /><path
         d="m 9201.82,13715.3 c -4.2,12.9 -6.48,26.8 -6.48,41.1 0,41.4 18.79,78.3 48.3,102.7 1.78,-33.7 -4.39,-68.4 -19.52,-101.4 -6.83,-14.9 -14.27,-29.1 -22.3,-42.4"
         style="fill:#faa280;fill-opacity:1;fill-rule:nonzero;stroke:none"
         id="path114" /><path
         d="m 12828.7,17364.2 c -95.1,83 -199.3,221.8 -305.9,374.7 68.6,10.2 126.9,26.7 158.3,59.4 74.6,-160.3 153.6,-260.5 271.6,-388.7 -48.1,15.9 -78.8,-30.2 -124,-45.4"
         style="fill:#c6eae9;fill-opacity:1;fill-rule:nonzero;stroke:none"
         id="path116" /><path
         d="m 7287.99,13860.5 c -85.65,74.8 -179.53,199.8 -275.49,337.4 61.76,9.3 114.28,24.1 142.56,53.5 67.19,-144.3 138.3,-234.5 244.62,-350 -43.4,14.3 -71.04,-27.2 -111.69,-40.9"
         style="fill:#fbd682;fill-opacity:1;fill-rule:nonzero;stroke:none"
         id="path118" /><path
         d="m 8850.33,15040.6 c 37.44,85.9 107.3,186.4 185.31,290.6 15.25,-52.7 32.86,-96.5 56.68,-116.9 -86.69,-80 -136.59,-155.5 -198.25,-265.5 3.2,40.1 -28.62,58.2 -43.74,91.8"
         style="fill:#fbd682;fill-opacity:1;fill-rule:nonzero;stroke:none"
         id="path120" /><path
         d="m 12795.1,12079.1 c 41.6,95.5 119.2,207.1 205.8,322.8 16.9,-58.6 36.5,-107.2 63,-129.9 -96.3,-88.8 -151.7,-172.6 -220.2,-294.8 3.6,44.6 -31.8,64.7 -48.6,101.9"
         style="fill:#ee6f57;fill-opacity:1;fill-rule:nonzero;stroke:none"
         id="path122" /><path
         d="m 14670.2,17330.6 c 41.6,95.5 119.2,207.1 205.8,322.7 17,-58.5 36.5,-107.1 63,-129.8 -96.3,-88.8 -151.7,-172.6 -220.2,-294.8 3.6,44.5 -31.8,64.6 -48.6,101.9"
         style="fill:#708cd5;fill-opacity:1;fill-rule:nonzero;stroke:none"
         id="path124" /><path
         d="m 5654.47,14289.8 c -37.44,85.9 -107.3,186.4 -185.31,290.6 -15.25,-52.7 -32.86,-96.5 -56.68,-117 86.68,-79.9 136.59,-155.4 198.25,-265.4 -3.2,40.1 28.62,58.2 43.74,91.8"
         style="fill:#708cd5;fill-opacity:1;fill-rule:nonzero;stroke:none"
         id="path126" /><path
         d="m 10399.1,15768 c -41.6,95.4 -119.1,207 -205.8,322.7 -16.9,-58.5 -36.4,-107.2 -62.9,-129.9 96.3,-88.8 151.7,-172.6 220.1,-294.7 -3.5,44.5 31.8,64.6 48.6,101.9"
         style="fill:#d3dfff;fill-opacity:1;fill-rule:nonzero;stroke:none"
         id="path128" /><path
         d="m 14106.2,15809.9 c -119.1,-28.6 -285.5,-41.3 -463.8,-49.9 33.2,48 55.7,91.8 50,124.7 164.8,-14.8 287.1,-3.2 453.8,22.4 -40.7,-24.7 -24.5,-62.4 -40,-97.2"
         style="fill:#f5c7be;fill-opacity:1;fill-rule:nonzero;stroke:none"
         id="path130" /><path
         d="m 6967.67,16693.7 c 107.24,-39.4 257.1,-56.9 417.68,-68.8 -29.97,66.2 -50.23,126.5 -45.08,171.9 -148.38,-20.3 -258.52,-4.4 -408.66,30.9 36.66,-34 22.04,-86 36.06,-134"
         style="fill:#c6eae9;fill-opacity:1;fill-rule:nonzero;stroke:none"
         id="path132" /><path
         d="m 10626.1,17196.3 c -120.6,-71.5 -295.7,-126.7 -484.5,-177.7 24,85.5 37.5,162 23.4,214.7 180,9.9 308.1,54.1 480.4,130.6 -37.6,-48.9 -11.1,-107.2 -19.3,-167.6"
         style="fill:#ee6f57;fill-opacity:1;fill-rule:nonzero;stroke:none"
         id="path134" /><path
         d="m 13101.7,13899.2 c 90.2,-60.5 193.3,-168.1 299.8,-287.7 -58.4,-17.2 -107.5,-38.6 -131.7,-70.7 -79.4,129.9 -157.2,207.1 -271.3,304 43.2,-7.9 65.5,35.7 103.2,54.4"
         style="fill:#c6eae9;fill-opacity:1;fill-rule:nonzero;stroke:none"
         id="path136" /><path
         d="m 11552.8,13804.6 c 90.1,-60.4 193.3,-168.1 299.7,-287.7 -58.4,-17.2 -107.5,-38.5 -131.7,-70.6 -79.4,129.9 -157.1,207.1 -271.3,303.9 43.2,-7.9 65.5,35.8 103.3,54.4"
         style="fill:#fbd682;fill-opacity:1;fill-rule:nonzero;stroke:none"
         id="path138" /><path
         d="m 7607.7,15656.3 c 101.44,-68.1 217.6,-189.3 337.47,-323.9 -65.83,-19.4 -121.01,-43.4 -148.25,-79.5 -89.47,146.2 -176.95,233.1 -305.48,342.1 48.66,-8.9 73.8,40.3 116.26,61.3"
         style="fill:#f5c7be;fill-opacity:1;fill-rule:nonzero;stroke:none"
         id="path140" /><path
         d="m 14172.8,14482.9 c 74.9,69.4 152.3,190.8 230.3,325.4 -61.1,16.6 -113.8,38.1 -144.6,72.3 -49.3,-144.8 -108.4,-232 -199,-342 40.7,10.2 72.2,-36.7 113.3,-55.7"
         style="fill:#f5c7be;fill-opacity:1;fill-rule:nonzero;stroke:none"
         id="path142" /><path
         d="m 16732.5,14695.8 c 37.5,86 107.4,186.5 185.4,290.7 15.2,-52.7 32.8,-96.5 56.6,-117 -86.6,-79.9 -136.6,-155.4 -198.2,-265.4 3.2,40.1 -28.6,58.2 -43.8,91.7"
         style="fill:#ee6f57;fill-opacity:1;fill-rule:nonzero;stroke:none"
         id="path144" /><path
         d="m 15807.9,16264.8 c -31.1,-123.8 -102,-275.9 -182.8,-435.1 -31.3,65.3 -63.8,118.2 -99.6,138.6 97.4,129.6 147.2,243.1 205.2,405.5 4.3,-53.8 50.1,-68.9 77.2,-109"
         style="fill:#d3dfff;fill-opacity:1;fill-rule:nonzero;stroke:none"
         id="path146" /><path
         d="m 14860.1,13585.4 c 22.8,-90.7 74.7,-202 133.9,-318.6 22.9,47.8 46.8,86.6 73,101.5 -71.4,94.9 -107.9,178 -150.4,296.9 -3.1,-39.4 -36.7,-50.4 -56.5,-79.8"
         style="fill:#d3dfff;fill-opacity:1;fill-rule:nonzero;stroke:none"
         id="path148" /><path
         d="m 17677.8,16470.4 c -101.5,-68 -217.6,-189.3 -337.5,-323.9 65.8,-19.3 121,-43.4 148.3,-79.5 89.4,146.2 176.9,233.1 305.4,342.2 -48.6,-9 -73.8,40.2 -116.2,61.2"
         style="fill:#fbd682;fill-opacity:1;fill-rule:nonzero;stroke:none"
         id="path150" /><path
         d="M 27116,2192.2 H 4195.35 v 40 H 27116 v -40"
         style="fill:#102048;fill-opacity:1;fill-rule:nonzero;stroke:none"
         id="path152" /><path
         d="m 24099.5,8524.3 h -1364.1 c 0,0 116.2,546.7 682,546.7 614.6,0 682.1,-546.7 682.1,-546.7"
         style="fill:#d3dfff;fill-opacity:1;fill-rule:nonzero;stroke:none"
         id="path154" /><path
         d="m 23387.5,8517.5 -203.2,506.1 37.1,14.9 203.2,-506.1 -37.1,-14.9"
         style="fill:#102048;fill-opacity:1;fill-rule:nonzero;stroke:none"
         id="path156" /><path
         d="m 19627.6,8607.8 h 551.5 v 1472.49 h -551.5 z"
         style="fill:#f5c7be;fill-opacity:1;fill-rule:nonzero;stroke:none"
         id="path158" /><path
         d="m 19627.6,9388.5 h 551.5 v 330.102 h -551.5 z"
         style="fill:#f19280;fill-opacity:1;fill-rule:nonzero;stroke:none"
         id="path160" /><path
         d="m 20943.3,8526.4 h -2079.8 v 30.1 c 0,178.8 145,323.8 323.8,323.8 h 1432.1 c 178.9,0 323.9,-145 323.9,-323.8 v -30.1"
         style="fill:#ee6f57;fill-opacity:1;fill-rule:nonzero;stroke:none"
         id="path162" /><path
         d="m 16886.1,9718.6 h 6144.8 v 3862.41 h -6144.8 z"
         style="fill:#f5c7be;fill-opacity:1;fill-rule:nonzero;stroke:none"
         id="path164" /><path
         d="m 17077,10022.7 h 5763 v 3369.78 h -5763 z"
         style="fill:#ffffff;fill-opacity:1;fill-rule:nonzero;stroke:none"
         id="path166" /><path
         d="m 20003.9,10486.7 h -218 v 537.2 h 218 v -537.2"
         style="fill:#d3dfff;fill-opacity:1;fill-rule:nonzero;stroke:none"
         id="path168" /><path
         d="m 20391.3,10486.7 h -217.9 v 677.6 h 217.9 v -677.6"
         style="fill:#d3dfff;fill-opacity:1;fill-rule:nonzero;stroke:none"
         id="path170" /><path
         d="m 20778.7,10486.7 h -217.9 v 1004.9 h 217.9 v -1004.9"
         style="fill:#d3dfff;fill-opacity:1;fill-rule:nonzero;stroke:none"
         id="path172" /><path
         d="m 21166.2,10486.7 h -217.9 v 1168.4 h 217.9 v -1168.4"
         style="fill:#d3dfff;fill-opacity:1;fill-rule:nonzero;stroke:none"
         id="path174" /><path
         d="m 21553.6,10486.7 h -217.9 v 899.9 h 217.9 v -899.9"
         style="fill:#d3dfff;fill-opacity:1;fill-rule:nonzero;stroke:none"
         id="path176" /><path
         d="m 21941.1,10486.7 h -218 v 1212 h 218 v -1212"
         style="fill:#d3dfff;fill-opacity:1;fill-rule:nonzero;stroke:none"
         id="path178" /><path
         d="m 22328.5,10486.7 h -217.9 v 1501.9 h 217.9 v -1501.9"
         style="fill:#d3dfff;fill-opacity:1;fill-rule:nonzero;stroke:none"
         id="path180" /><path
         d="m 19869.1,11382.2 -6.1,39.5 390,60 398.2,469.7 402.1,21.1 390.4,-240.2 335.4,286.1 517.7,589 30,-26.4 -519.7,-591 -359.6,-307 -404.5,248.9 -372.4,-19.6 -396.7,-467.9 -404.8,-62.2"
         style="fill:#d3dfff;fill-opacity:1;fill-rule:nonzero;stroke:none"
         id="path182" /><path
         d="m 19176.9,12757.8 h -1588.4 v 107.9 h 1588.4 v -107.9"
         style="fill:#d3dfff;fill-opacity:1;fill-rule:nonzero;stroke:none"
         id="path184" /><path
         d="m 18976.2,12503.7 h -1387.7 v 107.8 h 1387.7 v -107.8"
         style="fill:#d3dfff;fill-opacity:1;fill-rule:nonzero;stroke:none"
         id="path186" /><path
         d="m 17588.5,12249.5 h 1499.1 v 107.871 h -1499.1 z"
         style="fill:#e5ecff;fill-opacity:1;fill-rule:nonzero;stroke:none"
         id="path188" /><path
         d="m 17588.5,11995.4 h 1343.9 v 107.879 h -1343.9 z"
         style="fill:#e5ecff;fill-opacity:1;fill-rule:nonzero;stroke:none"
         id="path190" /><path
         d="m 17588.5,11741.2 h 943.398 v 107.879 H 17588.5 Z"
         style="fill:#e5ecff;fill-opacity:1;fill-rule:nonzero;stroke:none"
         id="path192" /><path
         d="m 19183.9,10486.7 h -1595.4 v 1016.5 h 1595.4 v -1016.5"
         style="fill:#d3dfff;fill-opacity:1;fill-rule:nonzero;stroke:none"
         id="path194" /><path
         d="m 14384.1,8534.9 h 1716.8 v 1150.3 h -1716.8 z"
         style="fill:#ffffff;fill-opacity:1;fill-rule:nonzero;stroke:none"
         id="path196" /><path
         d="m 14401.5,8552.3 h 1682 v 1115.5 h -1682 V 8552.3 m 1716.9,-34.8 h -1751.7 v 1185.1 h 1751.7 V 8517.5"
         style="fill:#102048;fill-opacity:1;fill-rule:nonzero;stroke:none"
         id="path198" /><path
         d="m 14401.5,9202.3 h 1680.9 v 465.5 h -1680.9 z"
         style="fill:#e5ecff;fill-opacity:1;fill-rule:nonzero;stroke:none"
         id="path200" /><path
         d="m 14401.5,9202.3 h -2 v 482.9 h 1682.9 v -17.4 h -1680.9 v -465.5"
         style="fill:#8593b6;fill-opacity:1;fill-rule:nonzero;stroke:none"
         id="path202" /><path
         d="m 16307.6,9428.2 h -2130.2 v 459.4 h 2130.2 v -459.4"
         style="fill:#ffffff;fill-opacity:1;fill-rule:nonzero;stroke:none"
         id="path204" /><path
         d="m 14194.8,9445.7 h 2095.4 v 424.5 H 14194.8 Z M 16325,9410.8 H 14160 V 9905 h 2165 v -494.2"
         style="fill:#102048;fill-opacity:1;fill-rule:nonzero;stroke:none"
         id="path206" /><path
         d="M 24851.3,8090.9 H 13574 v 432.2 h 11277.3 v -432.2"
         style="fill:#d3dfff;fill-opacity:1;fill-rule:nonzero;stroke:none"
         id="path208" /><path
         d="m 24871.1,2199.5 h -40 V 8517.2 H 13592.5 V 2199.5 h -40 V 8557.2 H 24871.1 V 2199.5"
         style="fill:#102048;fill-opacity:1;fill-rule:nonzero;stroke:none"
         id="path210" /><path
         d="m 17701.3,2216.2 -230.8,3084.2 39.9,2.9 230.8,-3084.1 -39.9,-3"
         style="fill:#102048;fill-opacity:1;fill-rule:nonzero;stroke:none"
         id="path212" /><path
         d="m 15352.6,2198.9 -37.2,14.4 1274.1,3288.5 37.2,-14.5 -1274.1,-3288.4"
         style="fill:#102048;fill-opacity:1;fill-rule:nonzero;stroke:none"
         id="path214" /><path
         d="m 19754.2,2193.4 -1276.2,3293.9 37.3,14.5 1276.2,-3293.9 -37.3,-14.5"
         style="fill:#102048;fill-opacity:1;fill-rule:nonzero;stroke:none"
         id="path216" /><path
         d="m 20236.6,5746.1 -2747,474.4 -465.6,-789.2 1707.1,-177.8 1510.1,400.3 c 51.8,13.7 48.3,83.1 -4.6,92.3"
         style="fill:#89a6a5;fill-opacity:1;fill-rule:nonzero;stroke:none"
         id="path218" /><path
         d="m 20233.8,5650.1 c -485.2,-335.7 -1704.7,-782.9 -2823.2,-811.4 -966.8,-24.6 -1886.3,449.8 -2096.9,1587.1 -154.8,835.8 -283.6,1761.6 -267.4,2230.1 4.2,121.2 106.9,215.6 228.1,212.5 l 1139.6,-28.8 c 346.3,-8.8 663.7,-192.5 845.7,-487.1 616.9,-998.5 584.4,-3391.5 2974.1,-2702.4"
         style="fill:#c6eae9;fill-opacity:1;fill-rule:nonzero;stroke:none"
         id="path220" /><path
         d="M 23555.8,2210.5 H 21646.2 V 6391 h 1909.6 V 2210.5"
         style="fill:#ffffff;fill-opacity:1;fill-rule:nonzero;stroke:none"
         id="path222" /><path
         d="m 21664.5,2228.8 h 1873 v 4143.9 h -1873 z m 1909.6,-36.6 h -1946.2 v 4217.1 h 1946.2 V 2192.2"
         style="fill:#102048;fill-opacity:1;fill-rule:nonzero;stroke:none"
         id="path224" /><path
         d="m 22831,5516.8 c 0,-127.1 -103,-230 -230,-230 -127,0 -230,102.9 -230,230 0,127 103,230 230,230 127,0 230,-103 230,-230"
         style="fill:#fbd682;fill-opacity:1;fill-rule:nonzero;stroke:none"
         id="path226" /><path
         d="m 22951,2786.8 h -700 v 1700 h 700 v -1700"
         style="fill:#fbd682;fill-opacity:1;fill-rule:nonzero;stroke:none"
         id="path228" /></g></g></svg>
