<?xml version="1.0" encoding="UTF-8" standalone="no"?>
<!-- Created with Inkscape (http://www.inkscape.org/) -->

<svg
   version="1.1"
   id="svg2"
   xml:space="preserve"
   width="2666.6667"
   height="2666.6667"
   viewBox="0 0 2666.6667 2666.6667"
   sodipodi:docname="Idea_1.eps"
   xmlns:inkscape="http://www.inkscape.org/namespaces/inkscape"
   xmlns:sodipodi="http://sodipodi.sourceforge.net/DTD/sodipodi-0.dtd"
   xmlns="http://www.w3.org/2000/svg"
   xmlns:svg="http://www.w3.org/2000/svg"><defs
     id="defs6"><clipPath
       clipPathUnits="userSpaceOnUse"
       id="clipPath118"><path
         d="m 8841.64,8286.3 93.51,-97.1 -123.36,-118.8 -89.32,92.7 c -92.54,-79 -200.07,-137.1 -283.77,-155.2 l -78.45,214.4 c 90.62,21.5 188.6,73.7 255.99,138.6 58.61,56.5 67.82,89 47.58,110 -31.9,33.1 -101.62,-19.8 -188.22,-72.7 -114.78,-70.2 -259.2,-140.3 -384.51,-10.2 -95.22,98.8 -103.57,251 20.53,409.3 l -91.86,95.4 123.35,118.8 90.15,-93.6 c 70.57,56.2 149.65,100.2 226.47,120.2 l 81.96,-209.4 c -89.89,-27.5 -161.06,-67.4 -214.41,-118.7 -60.4,-58.2 -62.75,-94.3 -42.51,-115.3 30.35,-31.5 99.16,21.8 185,75.2 114.21,70.9 258.58,141.8 382.66,13 90.96,-94.4 101.97,-242.4 -10.79,-396.6"
         id="path116" /></clipPath></defs><sodipodi:namedview
     id="namedview4"
     pagecolor="#ffffff"
     bordercolor="#666666"
     borderopacity="1.0"
     inkscape:pageshadow="2"
     inkscape:pageopacity="0.0"
     inkscape:pagecheckerboard="0" /><g
     id="g8"
     inkscape:groupmode="layer"
     inkscape:label="ink_ext_XXXXXX"
     transform="matrix(1.3333333,0,0,-1.3333333,0,2666.6667)"><g
       id="g10"
       transform="scale(0.1)"><path
         d="M 0,0 H 20000 V 20000 H 0 Z"
         style="fill:#ffffff;fill-opacity:1;fill-rule:nonzero;stroke:none"
         id="path12" /><path
         d="m 3591.22,5148.5 12.49,0.4 c -0.9,30.7 -1.35,61.5 -1.35,92.3 0,462.3 102.88,928.3 354.19,1336.2 267.96,434.9 715.57,799.3 1262.5,952.9 244.75,68.7 496.86,94 752.74,94 475.41,0.1 963.69,-87.5 1440.72,-145.7 305.36,-37.3 619.09,-60.5 931.31,-60.5 678.38,0 1349.82,109.6 1912.28,424.4 319.9,179.1 585.5,414 847.6,651.8 262.1,237.8 520.7,478.5 826.2,670.2 521.2,327 1159.7,481.7 1806,481.7 726.3,0 1462.3,-195.4 2051.6,-559.7 1114.1,-688.6 1712.1,-1887.5 1713.3,-3061.4 0,-1.2 0,-2.4 0,-3.5 0.1,-1303.1 -726.5,-2582.4 -1881.7,-3431 l 7.4,-10.1 V 2593 H 4751.32 v -12.5 l 9.03,8.7 c -693.6,725.4 -1129.4,1627.7 -1156.64,2559.7 l -12.49,-0.4 -12.5,-0.3 c 27.52,-939.5 466.5,-1847.3 1163.56,-2576.3 l 3.69,-3.9 H 15630.6 l 3.3,2.5 c 1160.6,852.7 1891.8,2138.5 1891.9,3451.1 0,1.1 0,2.3 0,3.5 -1.2,1182.2 -603.3,2389.2 -1725.1,3082.6 -593.9,367.1 -1334,563.4 -2064.8,563.5 -650.2,0 -1293.2,-155.5 -1819.3,-485.5 -308,-193.4 -567.7,-435.3 -829.7,-672.9 -261.9,-237.7 -526.2,-471.1 -843.1,-648.5 -557,-311.8 -1224.21,-421.3 -1899.98,-421.3 -310.98,0 -623.73,23.2 -928.28,60.4 -476.1,58 -965.29,145.9 -1443.75,145.9 -257.52,0 -511.97,-25.5 -759.5,-95 -553.47,-155.4 -1005.81,-523.7 -1277.02,-963.8 -254.21,-412.6 -357.92,-883.3 -357.92,-1349.3 0,-31 0.46,-62.1 1.37,-93 l 12.5,0.3"
         style="fill:#d3dfff;fill-opacity:1;fill-rule:nonzero;stroke:none"
         id="path14" /><path
         d="m 17512.9,5504.8 c 14.1,562.3 -82.6,1135.4 -344.4,1633.2 -261.8,497.8 -698.7,914.6 -1233,1090.4 -683.1,224.7 -1422.9,43.4 -2134.7,-58.4 -939.6,-134.4 -1960.2,-108.2 -2753.9,412.4 -618.3,405.5 -1029,1065.7 -1624.87,1503.7 -1079.92,794 -2673.15,697.5 -3758.76,-88.7 C 4577.65,9211.3 3995.01,7842.5 3993.87,6502.2 3992.6,5012.7 4700.63,3551.7 5826.02,2583 H 16386.4 c 675.2,827.4 1099.9,1857.2 1126.5,2921.8"
         style="fill:#edf2ff;fill-opacity:1;fill-rule:nonzero;stroke:none"
         id="path16" /><path
         d="M 9448.25,3641.1 C 9318.64,3547.5 9184.74,3480 9003.91,3448 l 42.59,-128.7 c -315.41,-370.9 -370.12,-599.6 -323.03,-732.2 l 972.05,571.4 -247.27,482.6"
         style="fill:#102048;fill-opacity:1;fill-rule:nonzero;stroke:none"
         id="path18" /><path
         d="M 9215.57,4195.8 8815.16,4017.9 9003.91,3448 c 180.83,32 314.73,99.5 444.34,193.1 l -232.68,554.7"
         style="fill:#f9b384;fill-opacity:1;fill-rule:nonzero;stroke:none"
         id="path20" /><path
         d="M 6946.55,3122.3 V 3742 l -427.11,8.9 -87.03,-623.7 c 188.44,-34.3 358.94,-34.2 514.14,-4.9"
         style="fill:#f9b384;fill-opacity:1;fill-rule:nonzero;stroke:none"
         id="path22" /><path
         d="m 6432.41,3127.2 -19.75,-141.5 C 5949.04,2836.9 5801.92,2722.7 5772,2585.2 h 1174.55 v 537.1 c -155.2,-29.3 -325.7,-29.4 -514.14,4.9"
         style="fill:#102048;fill-opacity:1;fill-rule:nonzero;stroke:none"
         id="path24" /><path
         d="m 8352.45,8698.3 -822.99,-1005.6 -57.92,-71 -93.17,-995.7 -302.71,-3239.9 -783.22,17.9 c -69.67,2103 -171.11,4289.2 57.94,5766 l 80.08,524.8 1868.6,-133.5 53.39,-863"
         style="fill:#1f3c88;fill-opacity:1;fill-rule:nonzero;stroke:none"
         id="path26" /><path
         d="m 4851.04,11939.4 -59.39,67.4 c -35.6,40.4 -87.54,62.5 -141.33,60.3 l -743.51,-31.5 c -4.16,-0.2 -5.91,-5.6 -2.61,-8.2 161.34,-124.9 361.8,-190.5 590.91,-212.6 l 229.13,-313.6 126.8,438.2"
         style="fill:#f9b384;fill-opacity:1;fill-rule:nonzero;stroke:none"
         id="path28" /><path
         d="m 7529.46,7692.7 -57.92,-71 -93.17,-995.7 C 7091.14,7247.2 7177.9,8137.7 7177.9,8137.7 l 351.56,-445"
         style="fill:#102048;fill-opacity:1;fill-rule:nonzero;stroke:none"
         id="path30" /><path
         d="M 8352.45,8698.3 C 8556.41,7158.8 8970.7,5503.6 9478.07,3888.8 l -734.1,-253.6 C 7845.26,5561.7 7484.88,6602.8 7177.9,8137.7 l 1174.55,560.6"
         style="fill:#1f3c88;fill-opacity:1;fill-rule:nonzero;stroke:none"
         id="path32" /><path
         d="m 7477.63,12297.6 -126.25,-542.8 273.55,-275.9 332.46,66.8 75.75,778.6 -555.51,-26.7"
         style="fill:#f9b384;fill-opacity:1;fill-rule:nonzero;stroke:none"
         id="path34" /><path
         d="m 7513.95,9066.7 c -396.4,0 -726.47,124.3 -990.06,185.5 l 44.99,169.9 c 298.85,-129.3 601.36,-204.7 909.11,-204.7 39.95,0 79.94,1.3 120.06,3.8 1.35,-18.9 2.82,-37.8 4.42,-56.7 -23.66,-31.6 -45.38,-64.2 -65.15,-97.7 -7.81,-0.1 -15.62,-0.1 -23.37,-0.1"
         style="fill:#162b62;fill-opacity:1;fill-rule:nonzero;stroke:none"
         id="path36" /><path
         d="m 7364.76,11861.6 c 0,0 240.25,-360.4 613.97,-120.2 l 333.68,-580.6 -153.49,-1815.2 C 7599.21,9131 7059.17,9201.9 6530.56,9439 l 400.42,2122.2 433.78,300.4"
         style="fill:#ffffff;fill-opacity:1;fill-rule:nonzero;stroke:none"
         id="path38" /><path
         d="m 7683.83,11380.8 c -23.64,0 -47.31,2.2 -70.55,6.5 -65.22,12.8 -127.29,41.9 -177.05,85 -49.94,42.6 -87.74,99 -104.84,160.1 37.08,-51.3 80.39,-94.3 129.96,-127 49.65,-32.3 104.59,-55.3 161.92,-65.7 25.85,-5.1 52.14,-7.6 78.5,-7.6 31.93,0 63.97,3.7 95.48,10.8 33.4,7.7 65.97,19.6 97.78,35 -3.57,-12.2 -7.1,-24.3 -10.62,-36.4 -23.15,-15.8 -48.44,-28.8 -75.14,-38.5 -39.85,-15 -82.59,-22.2 -125.44,-22.2"
         style="fill:#bbc4db;fill-opacity:1;fill-rule:nonzero;stroke:none"
         id="path40" /><path
         d="m 7374.77,11854.9 -509.12,2.2 c -162.78,-1.5 -322.41,-45 -463.37,-126.5 l -685.9,-396.3 -865.34,605.1 -353.7,-387.1 881.97,-755.3 c 139.88,-114.7 327.49,-152.8 501,-101.6 l 536.8,158.4 -540.56,-1955.3 c 379.39,-106.8 671.56,-177.3 1027.73,-46.7 193.54,440.4 532.28,1493.4 470.49,3003.1"
         style="fill:#708cd5;fill-opacity:1;fill-rule:nonzero;stroke:none"
         id="path42" /><path
         d="m 7458.19,12842.6 c 0,0 -144.98,-20.7 -280.29,190.2 -126.32,196.8 85.64,652.6 453.8,463.8 233.58,226.9 567.87,125.1 797.96,-204.8 0,0 85.69,10.3 169.72,-95.5 113.28,-142.7 65.24,-609.4 -283,-794 l -858.19,440.3"
         style="fill:#102048;fill-opacity:1;fill-rule:nonzero;stroke:none"
         id="path44" /><path
         d="m 7450.5,12181.2 c 0,0 66.81,-217.7 227.92,-246.2 206.88,-36.7 307.82,207.3 307.82,207.3 l -535.74,38.9"
         style="fill:#e28b6d;fill-opacity:1;fill-rule:nonzero;stroke:none"
         id="path46" /><path
         d="m 8320.69,12926.7 -42.18,-398.6 c 0,0 -71.27,-243.2 -314.46,-436.2 -243.45,-193 -568.59,12.6 -585.41,289.4 -0.27,2.9 -0.27,6.1 -0.53,9.1 -4.27,75 -4.54,144.9 -2.14,209 9.35,265 63.53,428.2 63.53,428.2 l 432.19,184.4 449,-285.3"
         style="fill:#f9b384;fill-opacity:1;fill-rule:nonzero;stroke:none"
         id="path48" /><path
         d="m 8264.98,12581.7 c -115.35,50 -159.97,166.3 -163.63,320.9 -246.46,-57 -474.89,-33.5 -689.14,53.5 l -116.42,214 490.88,185.7 560.13,-147.9 122.72,-371.3 -204.54,-254.9"
         style="fill:#102048;fill-opacity:1;fill-rule:nonzero;stroke:none"
         id="path50" /><path
         d="m 7900.95,12631.5 c -8.09,-29.5 -31.48,-48.8 -52.22,-43.1 -20.75,5.7 -31,34.2 -22.9,63.7 8.1,29.5 31.48,48.8 52.22,43.1 20.75,-5.7 31,-34.2 22.9,-63.7"
         style="fill:#102048;fill-opacity:1;fill-rule:nonzero;stroke:none"
         id="path52" /><path
         d="m 7565.03,12691.5 c -5.41,-30.1 -26.95,-51.4 -48.13,-47.6 -21.17,3.8 -33.96,31.3 -28.55,61.4 5.4,30.1 26.95,51.5 48.12,47.6 21.18,-3.7 33.96,-31.2 28.56,-61.4"
         style="fill:#102048;fill-opacity:1;fill-rule:nonzero;stroke:none"
         id="path54" /><path
         d="m 7664.53,12716.3 c 8.85,-29 5.26,-62.2 -9.59,-90.1 -7.32,-14 -17.51,-26.8 -29.84,-37.2 -12.06,-10.3 -24.51,-17.3 -33.86,-25.4 -9.13,-7.7 -16.43,-16.9 -18.3,-25.6 -2.4,-8.1 0.76,-17.3 7.69,-28.5 15.26,-22.5 31.36,-46.9 45.44,-71.6 l -9.81,-7.8 c -20.59,20.3 -40.03,40.3 -58.73,63.3 -9.31,11.5 -19.35,30.5 -15.18,51 4.19,19.3 15.99,33.4 28.54,43.7 12.56,10 24.92,17.3 35.04,24.8 9.93,7.3 18.23,16.7 25.43,27.1 13.86,21.1 21.85,47 20.84,74.1 l 12.33,2.2"
         style="fill:#e28b6d;fill-opacity:1;fill-rule:nonzero;stroke:none"
         id="path56" /><path
         d="m 7787.5,12761 c 29.38,21.2 67.12,35.8 107.14,30.5 19.76,-2.7 38.74,-11.3 53.79,-23.7 15.27,-12.2 26.49,-28 34.46,-44.7 l -8.52,-6 c -25.54,24.5 -52.26,43.7 -83.61,48.2 -31.33,4.8 -64.64,-3.8 -98.62,-13.7 l -4.64,9.4"
         style="fill:#102048;fill-opacity:1;fill-rule:nonzero;stroke:none"
         id="path58" /><path
         d="m 7472.41,12814.2 c 12.03,10.9 25.7,20.4 41.31,26.9 15.47,6.6 33.22,10.5 51.42,8.6 18.2,-2 35.61,-10.3 48.46,-22.2 13.13,-11.7 21.98,-26.4 28.01,-41.6 l -8.81,-5.6 c -22.1,22.1 -44.3,40.1 -70.63,43 -26.43,3.2 -54.98,-7.3 -84.28,-17.9 l -5.48,8.8"
         style="fill:#102048;fill-opacity:1;fill-rule:nonzero;stroke:none"
         id="path60" /><path
         d="m 7555.65,12357.5 203.15,-5.8 c -5.65,-40.2 -21.61,-73 -49.61,-97.1 -37.13,-32 -94.69,-28.1 -126.14,9.5 -21.55,25.7 -31.15,56.7 -27.4,93.4"
         style="fill:#ffffff;fill-opacity:1;fill-rule:nonzero;stroke:none"
         id="path62" /><path
         d="m 7948.74,12326.8 c -59.97,0 -108.57,48.6 -108.57,108.5 0,60 48.6,108.6 108.57,108.6 59.95,0 108.55,-48.6 108.55,-108.6 0,-59.9 -48.6,-108.5 -108.55,-108.5"
         style="fill:#faa280;fill-opacity:1;fill-rule:nonzero;stroke:none"
         id="path64" /><path
         d="m 7378.11,12390.4 v 0 c -2.54,44.5 -3.66,87.3 -3.66,128 0.01,28 0.54,55 1.52,81 46.45,-12 80.62,-54.5 80.62,-104.9 0,-49.4 -33.1,-91.3 -78.48,-104.1"
         style="fill:#faa280;fill-opacity:1;fill-rule:nonzero;stroke:none"
         id="path66" /><path
         d="m 8779.56,9812.8 -240.25,-1167.9 551.68,17.8 215.65,856.5 c 102.95,409 72.6,840.8 -90.8,1229.5 -79.84,190 -181.48,391.5 -299.92,602 -56.89,101.1 -151.41,175.7 -263.29,206.3 l -676.4,184.4 C 7644.74,10712.4 7489.74,9720.5 7649.5,8796.1 l 763.01,95.7 c 9.95,509.4 -2.62,1077.2 180.19,1761.8 0,0 213.55,-293.6 186.86,-840.8"
         style="fill:#708cd5;fill-opacity:1;fill-rule:nonzero;stroke:none"
         id="path68" /><path
         d="m 8173.73,12593 c 91.25,67.6 138.45,73.4 198.24,20.6 72.24,-63.9 53.49,-340.9 -226.56,-241 l 28.32,220.4"
         style="fill:#f9b384;fill-opacity:1;fill-rule:nonzero;stroke:none"
         id="path70" /><path
         d="m 8220.43,12498.9 c -2.77,15.5 -0.98,32.7 6.27,47.9 6.99,15.3 18.93,28.3 33.25,37.4 14.36,8.9 31.42,14.1 48.95,12.8 17.31,-0.8 35.67,-10.9 42.78,-26.7 l -8.47,-6.1 c -10.52,8.5 -22.53,10.2 -34.49,9.3 -12.03,-1.1 -24.13,-5.4 -34.82,-12 -21.81,-13.1 -36.53,-34.8 -43.03,-62.6 h -10.44"
         style="fill:#e28b6d;fill-opacity:1;fill-rule:nonzero;stroke:none"
         id="path72" /><path
         d="m 6326.68,10469 -25.7,7.2 190.16,680.9 25.71,-7.2 -190.17,-680.9"
         style="fill:#102048;fill-opacity:1;fill-rule:nonzero;stroke:none"
         id="path74" /><path
         d="m 8519.14,10284.6 -26.39,4 c 19.9,132.6 141.93,589.3 147.12,608.7 l 25.78,-6.9 c -1.26,-4.7 -126.83,-474.6 -146.51,-605.8"
         style="fill:#102048;fill-opacity:1;fill-rule:nonzero;stroke:none"
         id="path76" /><path
         d="m 9226.45,7732.6 c -98.89,-95.5 -211.42,-168.1 -330.93,-218.4 -98.6,-41.9 -202.37,-68.3 -307.59,-79.4 -138.35,-14.8 -278.7,-2.8 -413.44,35.6 -122,34.8 -239.29,91.1 -345.17,169.3 -48.8,36 -95.27,76.4 -138.69,121.5 -202.75,210.7 -303.77,482.1 -303.65,753.4 -0.17,284.7 111.04,569 332.4,782.2 45.63,43.7 93.7,82.9 143.97,116.9 52.2,35.6 106.58,66 162.82,91.3 38.45,17.4 77.58,32.1 117.4,44.8 53.72,17 108.59,29.9 163.99,38.5 139.39,21.4 281.86,15.4 419.3,-17.6 68.18,-16 135.07,-39.1 199.84,-68.9 79.6,-36.6 155.59,-83.5 226.19,-140.1 35.66,-28.5 69.72,-59.8 102.32,-93.5 415.98,-432.1 403.21,-1119.4 -28.76,-1535.6"
         style="fill:#fbc343;fill-opacity:1;fill-rule:nonzero;stroke:none"
         id="path78" /><path
         d="m 8445.59,7672.1 c -86.4,0 -172.78,12.9 -256.04,38.4 -70.55,21.5 -138.85,52.3 -203.02,92.3 -37.46,23.3 -73.5,49.8 -107.73,79.3 -0.01,0 -0.02,0.1 -0.04,0.1 -283.15,346.9 -258.13,858 68.99,1173.1 167.72,161.5 383.88,241.8 600.08,241.8 213.45,0 426.97,-78.3 593.67,-233.9 259.94,-346.1 226.99,-839.7 -92.77,-1147.7 -34.64,-33.4 -71.28,-63.3 -109.63,-89.7 -95.05,-65.7 -200.13,-110.4 -308.92,-133.9 -60.77,-13.2 -122.69,-19.8 -184.59,-19.8 m -74.91,521.7 c -0.4,-0.1 -0.81,-0.2 -1.21,-0.3 L 8448.3,7978 c 84.13,18.2 192.2,76.7 285.21,156 l 89.77,-93.2 133.84,125.5 -22.03,22.9 h 0.06 l -71.96,74.7 c 93.76,128.3 95.56,248.1 41.57,339.4 -12.06,29.4 -29.72,56.1 -52.33,79.6 -50.15,52.1 -103.59,71.5 -157.02,71.5 -78.8,0 -157.58,-42.3 -225.64,-84.5 -68.06,-42.3 -125.41,-84.6 -161.38,-84.6 -9.39,0 -17.33,2.9 -23.62,9.4 -0.92,1 -1.79,2 -2.61,3 0.78,21 15.86,49 54.18,85.9 53.61,51.7 125.14,91.7 215.48,119.4 l -82.37,210.4 c -0.01,0 -0.03,0 -0.05,0 l -9.67,24.7 c -76.82,-20 -155.9,-64 -226.47,-120.2 l -90.15,93.6 -8.18,-7.9 -0.21,0.2 -123.98,-119.4 93.35,-96.9 c -58.49,-77.9 -85.01,-154.1 -85.04,-222.9 -0.01,-28.4 4.5,-55.6 13.15,-81.1 9.96,-46.5 32.89,-88.3 66.76,-123.5 51.41,-53.3 105.99,-73.2 160.47,-73.2 78.97,0 157.69,41.7 225.95,83.5 68.28,41.7 126.11,83.4 163.34,83.4 9.69,0 17.99,-2.8 24.71,-9.2 -1.64,-19.9 -18.84,-46.6 -57.19,-83.6 -67.39,-64.9 -165.37,-117.1 -255.99,-138.6 l 10.43,-28.5 m -517.05,-289.4 c -2.4,2.3 -4.8,4.6 -7.2,6.9 -146.9,166.4 -218.99,374.9 -217.1,582.7 -1.55,-210.5 72.99,-421.9 224.3,-589.6 m 1281.74,1166.9 c -4.53,4.9 -9.16,9.8 -13.83,14.6 -171.04,177.6 -399.14,267 -627.28,267 -215.75,0 -431.52,-79.9 -599.1,-240.8 0.17,0.1 0.34,0.3 0.5,0.5 31.02,29.8 63.76,57.1 97.68,81.4 0.01,0 0.03,0 0.04,0 v 0 c 0.48,0.3 0.97,0.7 1.46,1.1 6.34,4.5 12.73,8.9 19.16,13.2 1.11,0.8 2.21,1.5 3.32,2.3 1.09,0.7 2.18,1.4 3.27,2.1 0.65,0.5 1.3,0.9 1.97,1.3 0.25,0.2 0.5,0.4 0.75,0.5 0.76,0.5 1.54,1 2.31,1.5 0.25,0.2 0.51,0.3 0.79,0.4 8.56,5.7 17.23,11 25.77,16 1.81,1.2 3.62,2.4 5.54,3.3 0.61,0.5 1.22,0.9 1.83,1.3 6.33,3.7 12.72,7.3 19.12,10.9 2.61,1.4 5.24,2.8 7.87,4.3 14.29,7.7 28.75,14.9 43.35,21.8 24.24,11.3 48.82,21.4 73.74,30.3 l 1.8,0.6 c 3.24,1.3 6.6,2.3 9.6,3.4 3.84,1.3 7.44,2.5 11.27,3.7 21.47,7.1 43.06,13.4 65.1,18.7 v 0.1 c 68.19,16.7 137.98,25 207.73,25 133.47,0 266.82,-30.5 388.72,-91.3 v 0 c 75.29,-37.6 146.24,-87 210.12,-147.7 6.17,-7 12.08,-13.9 17.84,-21 v 0 c 6.69,-8.1 13.21,-16.3 19.56,-24.5"
         style="fill:#e1af3c;fill-opacity:1;fill-rule:nonzero;stroke:none"
         id="path80" /><path
         d="m 7856.82,7900.9 c -1.08,1.2 -2.12,2.4 -3.19,3.5 1.1,-1 2.2,-2 3.31,-2.9 v 0 0 l -0.12,-0.6 M 7629.33,8494 c 1.66,225 90.2,448.9 264.73,617 0.36,0.4 0.74,0.7 1.1,1.1 -174.83,-168.7 -263.78,-392.9 -265.83,-618.1 m 1518.42,563.3 c -2.08,2 -4.15,3.9 -6.25,5.9 -2.03,2.7 -4.06,5.4 -6.13,8.1 4.23,-4.6 8.37,-9.3 12.38,-14"
         style="fill:#e1af3c;fill-opacity:1;fill-rule:nonzero;stroke:none"
         id="path82" /><path
         d="m 7878.76,7882.2 c -7.41,6.3 -14.69,12.7 -21.82,19.3 v 0 c -1.11,0.9 -2.21,1.9 -3.31,2.9 -151.31,167.7 -225.85,379.1 -224.3,589.6 2.05,225.2 91,449.4 265.83,618.1 167.58,160.9 383.35,240.8 599.1,240.8 228.14,0 456.24,-89.4 627.28,-267 4.67,-4.8 9.3,-9.7 13.83,-14.6 2.07,-2.7 4.1,-5.4 6.13,-8.1 -166.7,155.6 -380.22,233.9 -593.67,233.9 -216.2,0 -432.36,-80.3 -600.08,-241.8 -327.12,-315.1 -352.14,-826.2 -68.99,-1173.1"
         style="fill:#d2a338;fill-opacity:1;fill-rule:nonzero;stroke:none"
         id="path84" /><path
         d="m 7993.38,9194 32.79,311 c 38.45,17.4 77.58,32.1 117.4,44.8 53.72,17 108.59,29.9 163.99,38.5 l -16.15,-257 -0.01,-0.5 c -0.01,0 -0.04,0 -0.05,0 -55.17,-13.4 -109.26,-32.4 -161.46,-56.8 -3.77,-1.8 -7.54,-3.6 -11.29,-5.4 -6.01,-2.9 -12.26,-5.9 -18.4,-9.1 -3.97,-2.3 -8.3,-4.3 -12.27,-6.6 -0.46,-0.2 -0.93,-0.5 -1.39,-0.7 -2.63,-1.4 -5.25,-2.9 -7.87,-4.3 -5.03,-2.8 -10.04,-5.5 -15.05,-8.5 -1.4,-0.8 -2.74,-1.6 -4.07,-2.4 -11.44,-6.7 -22.74,-13.7 -33.93,-21 -0.82,-0.4 -1.54,-0.9 -2.31,-1.5 -0.91,-0.6 -1.82,-1.2 -2.72,-1.8 -1.11,-0.7 -2.19,-1.4 -3.27,-2.1 -1.11,-0.8 -2.21,-1.5 -3.32,-2.3 -1.11,-0.7 -2.23,-1.4 -3.38,-2.1 -5.29,-3.7 -10.57,-7.3 -15.78,-11.1 -0.49,-0.4 -0.97,-0.7 -1.46,-1.1"
         style="fill:#fcd57c;fill-opacity:1;fill-rule:nonzero;stroke:none"
         id="path86" /><path
         d="m 7993.38,9194 v 0 c 0.49,0.4 0.97,0.7 1.46,1.1 -0.49,-0.4 -0.98,-0.8 -1.46,-1.1 m 20.62,14.3 c 1.11,0.8 2.21,1.5 3.32,2.3 -1.11,-0.8 -2.21,-1.5 -3.32,-2.3 m 6.59,4.4 c 0.9,0.6 1.81,1.2 2.72,1.8 -0.25,-0.1 -0.5,-0.3 -0.75,-0.5 -0.67,-0.4 -1.32,-0.8 -1.97,-1.3 m 5.03,3.3 c 11.19,7.3 22.49,14.3 33.93,21 -0.61,-0.4 -1.22,-0.8 -1.83,-1.3 -1.92,-0.9 -3.73,-2.1 -5.54,-3.3 -8.54,-5 -17.21,-10.3 -25.77,-16 -0.28,-0.1 -0.54,-0.2 -0.79,-0.4 m 53.05,31.9 c 2.62,1.4 5.24,2.9 7.87,4.3 -2.63,-1.5 -5.26,-2.9 -7.87,-4.3 m 51.22,26.1 c 52.2,24.4 106.29,43.4 161.46,56.8 0.01,0 0.04,0 0.05,0 v -0.1 c -22.04,-5.3 -43.63,-11.6 -65.1,-18.7 -3.83,-1.2 -7.43,-2.4 -11.27,-3.7 -3,-1.1 -6.36,-2.1 -9.6,-3.4 l -1.8,-0.6 c -24.92,-8.9 -49.5,-19 -73.74,-30.3"
         style="fill:#eac777;fill-opacity:1;fill-rule:nonzero;stroke:none"
         id="path88" /><path
         d="m 8174.49,7470.3 c -62.52,17.8 -123.75,41.3 -182.84,70.5 59.12,-29.1 120.36,-52.6 182.84,-70.4 v -0.1"
         style="fill:#40599a;fill-opacity:1;fill-rule:nonzero;stroke:none"
         id="path90" /><path
         d="m 8174.49,7470.4 c -62.48,17.8 -123.72,41.3 -182.84,70.4 -56.31,27.8 -110.69,60.8 -162.38,98.9 l 27.52,261.1 0.03,0.1 c 5.36,-5.8 10.83,-11.7 16.38,-17.4 9.02,-9.4 18.17,-18.6 27.61,-27.3 v 0 0 c -7.41,8.4 -14.63,16.9 -21.66,25.5 34.15,-29.4 70.07,-55.7 107.38,-78.9 64.16,-40 132.49,-70.8 203.02,-92.3 l -15.06,-240.1"
         style="fill:#fccc5f;fill-opacity:1;fill-rule:nonzero;stroke:none"
         id="path92" /><path
         d="m 7986.53,7802.8 c -37.31,23.2 -73.23,49.5 -107.38,78.9 -0.14,0.2 -0.24,0.3 -0.39,0.5 0.02,0 0.03,-0.1 0.04,-0.1 34.23,-29.5 70.27,-56 107.73,-79.3"
         style="fill:#e5bb59;fill-opacity:1;fill-rule:nonzero;stroke:none"
         id="path94" /><path
         d="m 7900.81,7856.2 c -9.44,8.7 -18.59,17.9 -27.61,27.3 -5.55,5.7 -11.02,11.6 -16.38,17.4 l 0.12,0.6 v 0 c 7.31,-6.8 14.72,-13.4 22.21,-19.8 7.03,-8.6 14.25,-17.1 21.66,-25.5"
         style="fill:#e5bb59;fill-opacity:1;fill-rule:nonzero;stroke:none"
         id="path96" /><path
         d="m 7879.15,7881.7 c -7.49,6.4 -14.9,13 -22.21,19.8 7.13,-6.6 14.41,-13 21.82,-19.3 0.15,-0.2 0.25,-0.3 0.39,-0.5"
         style="fill:#d9b156;fill-opacity:1;fill-rule:nonzero;stroke:none"
         id="path98" /><path
         d="m 9152.89,9361.7 c -59.38,47.6 -122.55,88.3 -188.5,121.9 65.94,-33.5 129.18,-74.2 188.5,-121.9 h -0.01"
         style="fill:#859ddb;fill-opacity:1;fill-rule:nonzero;stroke:none"
         id="path100" /><path
         d="m 9115.81,9095.8 v 0 c -5.76,7.1 -11.67,14 -17.84,21 -63.88,60.7 -134.83,110.1 -210.12,147.7 l 0.16,0.9 38.71,236.3 c 12.65,-5.8 25.21,-11.8 37.67,-18.1 65.95,-33.6 129.12,-74.3 188.5,-121.9 l -36.45,-261.6 -0.63,-4.3"
         style="fill:#fccc5f;fill-opacity:1;fill-rule:nonzero;stroke:none"
         id="path102" /><path
         d="m 8707.01,7454.1 c 64.23,14.1 127.37,34.1 188.51,60.1 0.06,0 0.13,0.1 0.19,0.1 l -0.02,-0.1 c -61.32,-26 -124.47,-46 -188.68,-60.1"
         style="fill:#f2f6ff;fill-opacity:1;fill-rule:nonzero;stroke:none"
         id="path104" /><path
         d="m 8588.06,7434.9 42.12,257 c 108.79,23.5 213.87,68.2 308.92,133.9 l -43.39,-311.5 c -0.06,0 -0.13,-0.1 -0.19,-0.1 -61.14,-26 -124.28,-46 -188.51,-60.1 -39.32,-8.6 -79.02,-15 -118.95,-19.2"
         style="fill:#fcd57c;fill-opacity:1;fill-rule:nonzero;stroke:none"
         id="path106" /><path
         d="m 8448.3,7978 -78.83,215.5 c 0.4,0.1 0.81,0.2 1.21,0.3 l 68.02,-185.9 c 80.33,17.4 182.61,71.6 272.52,145.8 v 0 c 3.78,3.1 7.52,6.2 11.25,9.4 l 89.32,-92.7 123.3,118.8 22.03,-22.9 -133.84,-125.5 -89.77,93.2 c -93.01,-79.3 -201.08,-137.8 -285.21,-156 m 414.89,285.9 -21.55,22.4 c 56.38,77.1 81.82,152.6 81.79,220.7 -0.01,34.3 -6.47,66.6 -18.67,96.3 53.99,-91.3 52.19,-211.1 -41.57,-339.4 m -603.76,22.9 c -54.48,0 -109.06,19.9 -160.47,73.2 -33.87,35.2 -56.8,77 -66.76,123.5 12,-35.4 31.97,-67.6 58.89,-95.5 21.81,-22.7 44.21,-39.2 66.92,-50.8 v 0 c 30.55,-15.6 61.66,-22.1 92.75,-22.1 78.59,0.1 156.91,41.6 224.84,83.1 67.93,41.5 125.46,83 162.51,83 10.19,0 18.83,-3.2 25.71,-10.3 7,-7.3 10.47,-15.9 9.61,-26.4 -6.72,6.4 -15.02,9.2 -24.71,9.2 -37.23,0 -95.06,-41.7 -163.34,-83.4 -68.26,-41.8 -146.98,-83.5 -225.95,-83.5 m 22.73,310.9 c -17.3,21.4 -12.54,56.7 45.12,112.3 53.35,51.3 124.52,91.2 214.41,118.7 l -72.29,184.7 c 0.02,0 0.04,0 0.05,0 l 82.37,-210.4 c -90.34,-27.7 -161.87,-67.7 -215.48,-119.4 -38.32,-36.9 -53.4,-64.9 -54.18,-85.9 m -178.07,189.8 -93.35,96.9 123.98,119.4 0.21,-0.2 -115.17,-110.9 91.86,-95.4 c -2.57,-3.3 -5.08,-6.6 -7.53,-9.8"
         style="fill:#d2a338;fill-opacity:1;fill-rule:nonzero;stroke:none"
         id="path108" /><path
         d="m 8841.64,8286.3 93.51,-97.1 -123.36,-118.8 -89.32,92.7 c -92.54,-79 -200.07,-137.1 -283.77,-155.2 l -78.45,214.4 c 90.62,21.5 188.6,73.7 255.99,138.6 58.61,56.5 67.82,89 47.58,110 -31.9,33.1 -101.62,-19.8 -188.22,-72.7 -114.78,-70.2 -259.2,-140.3 -384.51,-10.2 -95.22,98.8 -103.57,251 20.53,409.3 l -91.86,95.4 123.35,118.8 90.15,-93.6 c 70.57,56.2 149.65,100.2 226.47,120.2 l 81.96,-209.4 c -89.89,-27.5 -161.06,-67.4 -214.41,-118.7 -60.4,-58.2 -62.75,-94.3 -42.51,-115.3 30.35,-31.5 99.16,21.8 185,75.2 114.21,70.9 258.58,141.8 382.66,13 90.96,-94.4 101.97,-242.4 -10.79,-396.6"
         style="fill:#fbc343;fill-opacity:1;fill-rule:nonzero;stroke:none"
         id="path110" /><g
         id="g112"><g
           id="g114"
           clip-path="url(#clipPath118)"><path
             d="m 8158.01,8337.2 c -22.71,11.6 -45.11,28.1 -66.92,50.8 -46.31,48.1 -72.07,108.7 -72.04,176.6 0.03,71.7 28.83,151.4 92.57,232.7 v 0 0 l -91.86,95.4 123.35,118.8 53.75,-55.8 -38.85,-618.5"
             style="fill:#fcd57c;fill-opacity:1;fill-rule:nonzero;stroke:none"
             id="path120" /><path
             d="m 8811.79,8070.4 -89.32,92.7 c -3.73,-3.2 -7.47,-6.3 -11.25,-9.4 l 93.21,568.9 c 16.26,-10.3 32.29,-23.4 48,-39.7 45.48,-47.2 70.98,-107.8 71,-175.9 0.03,-68.1 -25.41,-143.6 -81.79,-220.7 v 0 0 l 93.51,-97.1 -123.36,-118.8"
             style="fill:#fcd57c;fill-opacity:1;fill-rule:nonzero;stroke:none"
             id="path122" /></g></g><path
         d="m 8637.95,8716.6 -69.58,-206.5 c 0,0 -193.02,-238.6 -165.87,-269 56.73,-63.4 205.21,90.1 205.21,90.1 l -119.79,-305.3 c -6.57,-20.3 5.54,-41.7 26.3,-46.4 64.7,-14.5 201.4,-28.5 324.09,68 159.51,125.4 122.41,426.9 122.41,426.9 l 68.34,223.5 -391.11,18.7"
         style="fill:#f9b384;fill-opacity:1;fill-rule:nonzero;stroke:none"
         id="path124" /><path
         d="m 9280.08,9413.7 -65.13,-258.7 -1.34,-5.3 -10.41,-40.9 -112.12,-446 -144.14,-4.9 -37.64,-1 -369.99,-12 5.88,29.1 5.87,28.3 18.69,89.9 5.6,28.3 42.44,205.6 5.34,26.9 56.87,276.3 14.41,70.2 0.53,1.4 v 0.2 l 60.33,284.7 c 55.79,-8 110.78,-20.3 164.44,-36.6 134.8,-41.3 337.01,-76.7 360.37,-235.5"
         style="fill:#708cd5;fill-opacity:1;fill-rule:nonzero;stroke:none"
         id="path126" /><path
         d="m 4815.57,14221.1 c -102.45,469.7 -569.39,766 -1039.2,656.7 -446.07,-103.8 -736.16,-546.2 -653.02,-996.6 39.63,-214.7 154.72,-395 312.14,-519.8 124.23,-98.5 211.59,-236 245.38,-391 l 1000.52,218.3 c -33.75,154.7 -11.85,316 60.08,457.1 87.35,171.3 118.28,372.7 74.1,575.3"
         style="fill:#fbc343;fill-opacity:1;fill-rule:nonzero;stroke:none"
         id="path128" /><path
         d="m 3744.6,14033.5 10.37,22.7 -33.15,15.1 c -10.22,4.7 -21.02,6.9 -31.49,6.9 -19.64,-0.1 -38.04,-7.5 -52.01,-20.3 -6.98,-6.4 -12.85,-14.2 -16.99,-23.1 -4.14,-9 -6.49,-19.2 -6.48,-29.7 0,-2 0.08,-3.9 0.23,-5.9 0.74,-9.2 3.1,-18.5 7.17,-27.4 l 455.14,-994.4 247.84,54.1 -0.23,1093.5 c 0,3.2 -0.19,6.4 -0.55,9.6 -1.14,9.8 -4.21,19.1 -8.79,27.1 -6.87,12.2 -16.98,21.5 -28.33,27.6 -11.38,6.1 -24.05,9.3 -36.93,9.3 -10.64,0 -21.47,-2.2 -31.68,-6.8 -10.2,-4.6 -19.73,-11.8 -27.4,-21.2 l -12.36,-15.2 c -69.32,-85.2 -171.65,-131.3 -276.34,-131.3 -49.8,0 -100.08,10.4 -147.65,32.1 l -10.37,-22.7 -10.38,-22.8 c 54.18,-24.7 111.61,-36.6 168.4,-36.6 119.34,0 236.08,52.6 315.12,149.8 l 12.36,15.1 c 2.79,3.4 5.86,5.7 9.26,7.3 3.4,1.5 7.19,2.3 11.04,2.3 6.23,0 12.42,-2.2 16.64,-5.6 2.13,-1.7 3.83,-3.6 5.12,-5.9 1.28,-2.3 2.22,-4.9 2.62,-8.3 0.15,-1.3 0.22,-2.5 0.22,-3.8 l 0.22,-1053.3 -169.13,-36.9 -438.37,957.8 c -1.63,3.5 -2.51,7.1 -2.8,10.6 l -0.07,1.9 c 0.01,3.3 0.68,6.1 1.89,8.7 1.81,4 5.03,7.6 9.27,10.3 4.22,2.6 9.3,4.1 14.32,4.1 3.58,0 7.14,-0.7 10.74,-2.4 l 33.16,-15.1 10.37,22.8"
         style="fill:#ffffff;fill-opacity:1;fill-rule:nonzero;stroke:none"
         id="path130" /><path
         d="m 4490.88,12448.4 c 11.48,-52.7 -52.76,-111.4 -143.5,-131.2 -90.72,-19.8 -173.58,6.9 -185.06,59.5 -11.48,52.6 52.77,111.3 143.5,131.1 90.73,19.8 173.59,-6.8 185.06,-59.4"
         style="fill:#102048;fill-opacity:1;fill-rule:nonzero;stroke:none"
         id="path132" /><path
         d="m 3680.87,12970.4 1000.52,218.3 90.94,-417 -999.87,-220.5 -91.59,419.2"
         style="fill:#1f3c88;fill-opacity:1;fill-rule:nonzero;stroke:none"
         id="path134" /><path
         d="m 3770.23,12560.7 1000.52,218.2 -67.34,-158.1 c -32.29,-75.9 -99.28,-131.5 -179.8,-149.2 l -399.41,-88 c -81.07,-17.8 -165.74,4.9 -226.98,60.9 -60.6,55.5 -126.99,116.2 -126.99,116.2"
         style="fill:#1f3c88;fill-opacity:1;fill-rule:nonzero;stroke:none"
         id="path136" /><path
         d="m 4782.78,12969.6 -1098.02,-239.4 c -16.45,-3.6 -32.86,6.9 -36.44,23.4 -3.59,16.4 6.93,32.8 23.39,36.4 l 1098.02,239.5 c 16.46,3.6 32.86,-6.9 36.45,-23.4 3.59,-16.5 -6.94,-32.9 -23.4,-36.5"
         style="fill:#708cd5;fill-opacity:1;fill-rule:nonzero;stroke:none"
         id="path138" /><path
         d="m 4831.1,12748.1 -1098.02,-239.5 c -16.46,-3.6 -32.86,7 -36.45,23.4 -3.59,16.5 6.94,32.9 23.4,36.5 l 1098.02,239.4 c 16.46,3.6 32.86,-6.9 36.45,-23.3 3.59,-16.5 -6.94,-32.9 -23.4,-36.5"
         style="fill:#708cd5;fill-opacity:1;fill-rule:nonzero;stroke:none"
         id="path140" /><path
         d="m 2812,15258.2 462,-275.4 c 34.03,-20.3 78.05,-9.1 98.32,24.9 20.28,34 9.14,78.1 -24.89,98.3 l -462,275.4 c -34.02,20.2 -78.04,9.1 -98.32,-24.9 -20.28,-34.1 -9.13,-78.1 24.89,-98.3"
         style="fill:#fbc343;fill-opacity:1;fill-rule:nonzero;stroke:none"
         id="path142" /><path
         d="m 4184.02,15865 -237.66,-554.9 c -15.59,-36.5 1.28,-78.6 37.69,-94.2 36.41,-15.6 78.57,1.3 94.16,37.7 l 237.66,554.9 c 15.59,36.4 -1.28,78.6 -37.69,94.2 -36.41,15.5 -78.56,-1.3 -94.16,-37.7"
         style="fill:#fbc343;fill-opacity:1;fill-rule:nonzero;stroke:none"
         id="path144" /><path
         d="m 3362.6,15833.8 202.24,-592.3 c 12.79,-37.4 53.56,-57.5 91.04,-44.7 37.48,12.8 57.49,53.6 44.69,91.1 l -202.24,592.3 c -12.8,37.5 -53.56,57.5 -91.04,44.7 -37.48,-12.8 -57.49,-53.6 -44.69,-91.1"
         style="fill:#fbc343;fill-opacity:1;fill-rule:nonzero;stroke:none"
         id="path146" /><path
         d="m 10931,7142.1 h 2173.2 v 269.199 H 10931 Z"
         style="fill:#fbc343;fill-opacity:1;fill-rule:nonzero;stroke:none"
         id="path148" /><path
         d="m 11498.1,7142.6 h 891.801 v 268.699 H 11498.1 Z"
         style="fill:#e1af3c;fill-opacity:1;fill-rule:nonzero;stroke:none"
         id="path150" /><path
         d="m 11099,7142.6 h 205.902 v 268.699 H 11099 Z"
         style="fill:#fddb8e;fill-opacity:1;fill-rule:nonzero;stroke:none"
         id="path152" /><path
         d="m 12682.2,7142.6 h 205.801 v 268.699 H 12682.2 Z"
         style="fill:#fddb8e;fill-opacity:1;fill-rule:nonzero;stroke:none"
         id="path154" /><path
         d="m 10931,6604.3 h 2173.2 v 269.199 H 10931 Z"
         style="fill:#fbc343;fill-opacity:1;fill-rule:nonzero;stroke:none"
         id="path156" /><path
         d="m 12389.9,6604.8 h -891.8 v 268.7 h 891.8 v -268.7"
         style="fill:#e1af3c;fill-opacity:1;fill-rule:nonzero;stroke:none"
         id="path158" /><path
         d="M 11304.9,6604.8 H 11099 v 268.7 h 205.9 v -268.7"
         style="fill:#fddb8e;fill-opacity:1;fill-rule:nonzero;stroke:none"
         id="path160" /><path
         d="m 12888,6604.8 h -205.8 v 268.7 h 205.8 v -268.7"
         style="fill:#fddb8e;fill-opacity:1;fill-rule:nonzero;stroke:none"
         id="path162" /><path
         d="m 10854.2,6873.5 h 2173.2 v 269.102 h -2173.2 z"
         style="fill:#fbc343;fill-opacity:1;fill-rule:nonzero;stroke:none"
         id="path164" /><path
         d="m 11421.3,6873.5 h 891.801 v 269.102 H 11421.3 Z"
         style="fill:#e1af3c;fill-opacity:1;fill-rule:nonzero;stroke:none"
         id="path166" /><path
         d="m 11022.2,6873.5 h 205.801 v 269.102 H 11022.2 Z"
         style="fill:#fddb8e;fill-opacity:1;fill-rule:nonzero;stroke:none"
         id="path168" /><path
         d="m 12605.4,6873.5 h 205.797 v 269.102 H 12605.4 Z"
         style="fill:#fddb8e;fill-opacity:1;fill-rule:nonzero;stroke:none"
         id="path170" /><path
         d="m 10931,6066.5 h 2173.2 v 269.199 H 10931 Z"
         style="fill:#fbc343;fill-opacity:1;fill-rule:nonzero;stroke:none"
         id="path172" /><path
         d="m 12389.9,6067 h -891.8 v 268.6 h 891.8 V 6067"
         style="fill:#e1af3c;fill-opacity:1;fill-rule:nonzero;stroke:none"
         id="path174" /><path
         d="M 11304.9,6067 H 11099 v 268.6 h 205.9 V 6067"
         style="fill:#fddb8e;fill-opacity:1;fill-rule:nonzero;stroke:none"
         id="path176" /><path
         d="m 12888,6067 h -205.8 v 268.6 H 12888 V 6067"
         style="fill:#fddb8e;fill-opacity:1;fill-rule:nonzero;stroke:none"
         id="path178" /><path
         d="M 11040.8,6335.6 H 13214 v 269.199 h -2173.2 z"
         style="fill:#fbc343;fill-opacity:1;fill-rule:nonzero;stroke:none"
         id="path180" /><path
         d="m 12499.7,6335.6 h -891.8 v 269.2 h 891.8 v -269.2"
         style="fill:#e1af3c;fill-opacity:1;fill-rule:nonzero;stroke:none"
         id="path182" /><path
         d="m 11414.6,6335.6 h -205.8 v 269.2 h 205.8 v -269.2"
         style="fill:#fddb8e;fill-opacity:1;fill-rule:nonzero;stroke:none"
         id="path184" /><path
         d="M 12997.8,6335.6 H 12792 v 269.2 h 205.8 v -269.2"
         style="fill:#fddb8e;fill-opacity:1;fill-rule:nonzero;stroke:none"
         id="path186" /><path
         d="m 10931,5528.7 h 2173.2 v 269.203 H 10931 Z"
         style="fill:#fbc343;fill-opacity:1;fill-rule:nonzero;stroke:none"
         id="path188" /><path
         d="m 12389.9,5529.2 h -891.8 v 268.6 h 891.8 v -268.6"
         style="fill:#e1af3c;fill-opacity:1;fill-rule:nonzero;stroke:none"
         id="path190" /><path
         d="M 11304.9,5529.2 H 11099 v 268.6 h 205.9 v -268.6"
         style="fill:#fddb8e;fill-opacity:1;fill-rule:nonzero;stroke:none"
         id="path192" /><path
         d="m 12888,5529.2 h -205.8 v 268.6 h 205.8 v -268.6"
         style="fill:#fddb8e;fill-opacity:1;fill-rule:nonzero;stroke:none"
         id="path194" /><path
         d="m 10832.2,5797.8 h 2173.3 v 269.199 h -2173.3 z"
         style="fill:#fbc343;fill-opacity:1;fill-rule:nonzero;stroke:none"
         id="path196" /><path
         d="m 11399.3,5797.8 h 891.801 v 269.199 H 11399.3 Z"
         style="fill:#e1af3c;fill-opacity:1;fill-rule:nonzero;stroke:none"
         id="path198" /><path
         d="m 11000.2,5797.8 h 205.902 v 269.199 H 11000.2 Z"
         style="fill:#fddb8e;fill-opacity:1;fill-rule:nonzero;stroke:none"
         id="path200" /><path
         d="m 12583.4,5797.8 h 205.902 v 269.199 H 12583.4 Z"
         style="fill:#fddb8e;fill-opacity:1;fill-rule:nonzero;stroke:none"
         id="path202" /><path
         d="m 10931,4990.9 h 2173.2 v 269.102 H 10931 Z"
         style="fill:#fbc343;fill-opacity:1;fill-rule:nonzero;stroke:none"
         id="path204" /><path
         d="m 11498.1,4990.9 h 891.801 v 269.102 H 11498.1 Z"
         style="fill:#e1af3c;fill-opacity:1;fill-rule:nonzero;stroke:none"
         id="path206" /><path
         d="m 11099,4990.9 h 205.902 v 269.102 H 11099 Z"
         style="fill:#fddb8e;fill-opacity:1;fill-rule:nonzero;stroke:none"
         id="path208" /><path
         d="m 12682.2,4990.9 h 205.801 v 269.102 H 12682.2 Z"
         style="fill:#fddb8e;fill-opacity:1;fill-rule:nonzero;stroke:none"
         id="path210" /><path
         d="m 10931,5260 h 2173.2 v 269.199 H 10931 Z"
         style="fill:#fbc343;fill-opacity:1;fill-rule:nonzero;stroke:none"
         id="path212" /><path
         d="m 11498.1,5260 h 891.801 v 269.199 H 11498.1 Z"
         style="fill:#e1af3c;fill-opacity:1;fill-rule:nonzero;stroke:none"
         id="path214" /><path
         d="m 11099,5260 h 205.902 v 269.199 H 11099 Z"
         style="fill:#fddb8e;fill-opacity:1;fill-rule:nonzero;stroke:none"
         id="path216" /><path
         d="m 12682.2,5260 h 205.801 v 269.199 H 12682.2 Z"
         style="fill:#fddb8e;fill-opacity:1;fill-rule:nonzero;stroke:none"
         id="path218" /><path
         d="m 10770.9,4452.5 h 2173.2 v 269.199 h -2173.2 z"
         style="fill:#fbc343;fill-opacity:1;fill-rule:nonzero;stroke:none"
         id="path220" /><path
         d="m 12229.7,4452.5 h -891.8 v 269.2 h 891.8 v -269.2"
         style="fill:#e1af3c;fill-opacity:1;fill-rule:nonzero;stroke:none"
         id="path222" /><path
         d="m 11144.7,4452.5 h -205.8 v 269.2 h 205.8 v -269.2"
         style="fill:#fddb8e;fill-opacity:1;fill-rule:nonzero;stroke:none"
         id="path224" /><path
         d="M 12727.9,4452.5 H 12522 v 269.2 h 205.9 v -269.2"
         style="fill:#fddb8e;fill-opacity:1;fill-rule:nonzero;stroke:none"
         id="path226" /><path
         d="m 10931,4721.7 h 2173.2 v 269.102 H 10931 Z"
         style="fill:#fbc343;fill-opacity:1;fill-rule:nonzero;stroke:none"
         id="path228" /><path
         d="m 12389.9,4721.7 h -891.8 v 269.1 h 891.8 v -269.1"
         style="fill:#e1af3c;fill-opacity:1;fill-rule:nonzero;stroke:none"
         id="path230" /><path
         d="M 11304.9,4721.7 H 11099 v 269.1 h 205.9 v -269.1"
         style="fill:#fddb8e;fill-opacity:1;fill-rule:nonzero;stroke:none"
         id="path232" /><path
         d="m 12888,4721.7 h -205.8 v 269.1 h 205.8 v -269.1"
         style="fill:#fddb8e;fill-opacity:1;fill-rule:nonzero;stroke:none"
         id="path234" /><path
         d="m 10931,3914.2 h 2173.2 v 269.199 H 10931 Z"
         style="fill:#fbc343;fill-opacity:1;fill-rule:nonzero;stroke:none"
         id="path236" /><path
         d="m 11498.1,3914.2 h 891.801 v 269.102 H 11498.1 Z"
         style="fill:#e1af3c;fill-opacity:1;fill-rule:nonzero;stroke:none"
         id="path238" /><path
         d="m 11099,3914.2 h 205.902 v 269.102 H 11099 Z"
         style="fill:#fddb8e;fill-opacity:1;fill-rule:nonzero;stroke:none"
         id="path240" /><path
         d="m 12682.2,3914.2 h 205.801 v 269.102 H 12682.2 Z"
         style="fill:#fddb8e;fill-opacity:1;fill-rule:nonzero;stroke:none"
         id="path242" /><path
         d="m 10931,4183.3 h 2173.2 v 269.199 H 10931 Z"
         style="fill:#fbc343;fill-opacity:1;fill-rule:nonzero;stroke:none"
         id="path244" /><path
         d="m 11498.1,4183.3 h 891.801 v 269.199 H 11498.1 Z"
         style="fill:#e1af3c;fill-opacity:1;fill-rule:nonzero;stroke:none"
         id="path246" /><path
         d="m 11099,4183.3 h 205.902 v 269.199 H 11099 Z"
         style="fill:#fddb8e;fill-opacity:1;fill-rule:nonzero;stroke:none"
         id="path248" /><path
         d="m 12682.2,4183.3 h 205.801 v 269.199 H 12682.2 Z"
         style="fill:#fddb8e;fill-opacity:1;fill-rule:nonzero;stroke:none"
         id="path250" /><path
         d="m 10931,3375.9 h 2173.2 v 269.098 H 10931 Z"
         style="fill:#fbc343;fill-opacity:1;fill-rule:nonzero;stroke:none"
         id="path252" /><path
         d="m 11498.1,3375.9 h 891.801 v 269.098 H 11498.1 Z"
         style="fill:#e1af3c;fill-opacity:1;fill-rule:nonzero;stroke:none"
         id="path254" /><path
         d="m 11099,3375.9 h 205.902 v 269.098 H 11099 Z"
         style="fill:#fddb8e;fill-opacity:1;fill-rule:nonzero;stroke:none"
         id="path256" /><path
         d="m 12682.2,3375.9 h 205.801 v 269.098 H 12682.2 Z"
         style="fill:#fddb8e;fill-opacity:1;fill-rule:nonzero;stroke:none"
         id="path258" /><path
         d="m 10931,3645 h 2173.2 v 269.199 H 10931 Z"
         style="fill:#fbc343;fill-opacity:1;fill-rule:nonzero;stroke:none"
         id="path260" /><path
         d="m 11498.1,3645 h 891.801 v 269.199 H 11498.1 Z"
         style="fill:#e1af3c;fill-opacity:1;fill-rule:nonzero;stroke:none"
         id="path262" /><path
         d="m 11099,3645 h 205.902 v 269.199 H 11099 Z"
         style="fill:#fddb8e;fill-opacity:1;fill-rule:nonzero;stroke:none"
         id="path264" /><path
         d="m 12682.2,3645 h 205.801 v 269.199 H 12682.2 Z"
         style="fill:#fddb8e;fill-opacity:1;fill-rule:nonzero;stroke:none"
         id="path266" /><path
         d="m 10931,2837.5 h 2173.2 v 269.203 H 10931 Z"
         style="fill:#fbc343;fill-opacity:1;fill-rule:nonzero;stroke:none"
         id="path268" /><path
         d="m 11498.1,2837.5 h 891.801 v 269.203 H 11498.1 Z"
         style="fill:#e1af3c;fill-opacity:1;fill-rule:nonzero;stroke:none"
         id="path270" /><path
         d="m 11099,2837.5 h 205.902 v 269.203 H 11099 Z"
         style="fill:#fddb8e;fill-opacity:1;fill-rule:nonzero;stroke:none"
         id="path272" /><path
         d="m 12682.2,2837.5 h 205.801 v 269.203 H 12682.2 Z"
         style="fill:#fddb8e;fill-opacity:1;fill-rule:nonzero;stroke:none"
         id="path274" /><path
         d="m 10931,3106.7 h 2173.2 v 269.098 H 10931 Z"
         style="fill:#fbc343;fill-opacity:1;fill-rule:nonzero;stroke:none"
         id="path276" /><path
         d="m 11498.1,3106.7 h 891.801 v 269.098 H 11498.1 Z"
         style="fill:#e1af3c;fill-opacity:1;fill-rule:nonzero;stroke:none"
         id="path278" /><path
         d="m 11099,3106.7 h 205.902 v 269.098 H 11099 Z"
         style="fill:#fddb8e;fill-opacity:1;fill-rule:nonzero;stroke:none"
         id="path280" /><path
         d="m 12682.2,3106.7 h 205.801 v 269.098 H 12682.2 Z"
         style="fill:#fddb8e;fill-opacity:1;fill-rule:nonzero;stroke:none"
         id="path282" /><path
         d="m 10931,2568.3 h 2173.2 v 269.199 H 10931 Z"
         style="fill:#fbc343;fill-opacity:1;fill-rule:nonzero;stroke:none"
         id="path284" /><path
         d="m 11498.1,2568.3 h 891.801 v 269.199 H 11498.1 Z"
         style="fill:#e1af3c;fill-opacity:1;fill-rule:nonzero;stroke:none"
         id="path286" /><path
         d="m 11099,2568.3 h 205.902 v 269.199 H 11099 Z"
         style="fill:#fddb8e;fill-opacity:1;fill-rule:nonzero;stroke:none"
         id="path288" /><path
         d="m 12682.2,2568.3 h 205.801 v 269.199 H 12682.2 Z"
         style="fill:#fddb8e;fill-opacity:1;fill-rule:nonzero;stroke:none"
         id="path290" /><path
         d="m 13772.7,6066.5 h 2173.2 v 269.199 h -2173.2 z"
         style="fill:#fbc343;fill-opacity:1;fill-rule:nonzero;stroke:none"
         id="path292" /><path
         d="m 15231.6,6067 h -891.8 v 268.7 h 171.7 l 6.1,-4.6 3.4,4.6 h 710.6 V 6067"
         style="fill:#e1af3c;fill-opacity:1;fill-rule:nonzero;stroke:none"
         id="path294" /><path
         d="m 13940.7,6067 h 205.801 v 268.699 H 13940.7 Z"
         style="fill:#fddb8e;fill-opacity:1;fill-rule:nonzero;stroke:none"
         id="path296" /><path
         d="m 15729.7,6066.5 h -149.5 v 0.5 h -56.4 v 268.7 h 205.9 v -269.2"
         style="fill:#fddb8e;fill-opacity:1;fill-rule:nonzero;stroke:none"
         id="path298" /><path
         d="m 13505.7,5528.7 h 2173.2 v 269.203 h -2173.2 z"
         style="fill:#fbc343;fill-opacity:1;fill-rule:nonzero;stroke:none"
         id="path300" /><path
         d="m 14964.6,5529.2 h -891.8 v 268.6 h 891.8 v -268.6"
         style="fill:#e1af3c;fill-opacity:1;fill-rule:nonzero;stroke:none"
         id="path302" /><path
         d="m 13879.6,5529.2 h -205.9 v 268.6 h 205.9 v -268.6"
         style="fill:#fddb8e;fill-opacity:1;fill-rule:nonzero;stroke:none"
         id="path304" /><path
         d="m 15462.7,5529.2 h -205.8 v 268.6 h 205.8 v -268.6"
         style="fill:#fddb8e;fill-opacity:1;fill-rule:nonzero;stroke:none"
         id="path306" /><path
         d="m 13406.9,5797.8 h 2173.3 v 269.199 h -2173.3 z"
         style="fill:#fbc343;fill-opacity:1;fill-rule:nonzero;stroke:none"
         id="path308" /><path
         d="m 13974,5797.8 h 891.801 v 269.199 H 13974 Z"
         style="fill:#e1af3c;fill-opacity:1;fill-rule:nonzero;stroke:none"
         id="path310" /><path
         d="m 13574.9,5797.8 h 205.898 v 269.199 H 13574.9 Z"
         style="fill:#fddb8e;fill-opacity:1;fill-rule:nonzero;stroke:none"
         id="path312" /><path
         d="m 15158.1,5797.8 h 205.898 v 269.199 H 15158.1 Z"
         style="fill:#fddb8e;fill-opacity:1;fill-rule:nonzero;stroke:none"
         id="path314" /><path
         d="m 13505.7,4990.9 h 2173.2 v 269.102 h -2173.2 z"
         style="fill:#fbc343;fill-opacity:1;fill-rule:nonzero;stroke:none"
         id="path316" /><path
         d="m 14964.6,4990.9 h -891.8 V 5260 h 891.8 v -269.1"
         style="fill:#e1af3c;fill-opacity:1;fill-rule:nonzero;stroke:none"
         id="path318" /><path
         d="m 13879.6,4990.9 h -205.9 V 5260 h 205.9 v -269.1"
         style="fill:#fddb8e;fill-opacity:1;fill-rule:nonzero;stroke:none"
         id="path320" /><path
         d="m 15462.7,4990.9 h -205.8 V 5260 h 205.8 v -269.1"
         style="fill:#fddb8e;fill-opacity:1;fill-rule:nonzero;stroke:none"
         id="path322" /><path
         d="m 13396,5260 h 2173.2 v 269.199 H 13396 Z"
         style="fill:#fbc343;fill-opacity:1;fill-rule:nonzero;stroke:none"
         id="path324" /><path
         d="m 13963.1,5260 h 891.801 v 269.199 H 13963.1 Z"
         style="fill:#e1af3c;fill-opacity:1;fill-rule:nonzero;stroke:none"
         id="path326" /><path
         d="m 13564,5260 h 205.801 v 269.199 H 13564 Z"
         style="fill:#fddb8e;fill-opacity:1;fill-rule:nonzero;stroke:none"
         id="path328" /><path
         d="m 15147.1,5260 h 205.898 v 269.199 H 15147.1 Z"
         style="fill:#fddb8e;fill-opacity:1;fill-rule:nonzero;stroke:none"
         id="path330" /><path
         d="m 13505.7,4452.5 h 2173.2 v 269.199 h -2173.2 z"
         style="fill:#fbc343;fill-opacity:1;fill-rule:nonzero;stroke:none"
         id="path332" /><path
         d="m 14072.8,4452.5 h 891.801 v 269.199 H 14072.8 Z"
         style="fill:#e1af3c;fill-opacity:1;fill-rule:nonzero;stroke:none"
         id="path334" /><path
         d="m 13673.7,4452.5 h 205.902 v 269.199 H 13673.7 Z"
         style="fill:#fddb8e;fill-opacity:1;fill-rule:nonzero;stroke:none"
         id="path336" /><path
         d="m 15256.9,4452.5 h 205.801 v 269.199 H 15256.9 Z"
         style="fill:#fddb8e;fill-opacity:1;fill-rule:nonzero;stroke:none"
         id="path338" /><path
         d="m 13505.7,4721.7 h 2173.2 v 269.102 h -2173.2 z"
         style="fill:#fbc343;fill-opacity:1;fill-rule:nonzero;stroke:none"
         id="path340" /><path
         d="m 14072.8,4721.7 h 891.801 v 269.102 H 14072.8 Z"
         style="fill:#e1af3c;fill-opacity:1;fill-rule:nonzero;stroke:none"
         id="path342" /><path
         d="m 13673.7,4721.7 h 205.902 v 269.102 H 13673.7 Z"
         style="fill:#fddb8e;fill-opacity:1;fill-rule:nonzero;stroke:none"
         id="path344" /><path
         d="m 15256.9,4721.7 h 205.801 v 269.102 H 15256.9 Z"
         style="fill:#fddb8e;fill-opacity:1;fill-rule:nonzero;stroke:none"
         id="path346" /><path
         d="m 13719.3,3914.2 h 2173.2 v 269.199 h -2173.2 z"
         style="fill:#fbc343;fill-opacity:1;fill-rule:nonzero;stroke:none"
         id="path348" /><path
         d="m 15178.2,3914.2 h -891.8 v 269.1 h 891.8 v -269.1"
         style="fill:#e1af3c;fill-opacity:1;fill-rule:nonzero;stroke:none"
         id="path350" /><path
         d="m 14093.1,3914.2 h -205.8 v 269.1 h 205.8 v -269.1"
         style="fill:#fddb8e;fill-opacity:1;fill-rule:nonzero;stroke:none"
         id="path352" /><path
         d="m 15470.4,3914.2 h 205.898 v 269.102 H 15470.4 Z"
         style="fill:#fddb8e;fill-opacity:1;fill-rule:nonzero;stroke:none"
         id="path354" /><path
         d="m 13505.7,4183.3 h 2173.2 v 269.199 h -2173.2 z"
         style="fill:#fbc343;fill-opacity:1;fill-rule:nonzero;stroke:none"
         id="path356" /><path
         d="m 14964.6,4183.3 h -891.8 v 269.2 h 891.8 v -269.2"
         style="fill:#e1af3c;fill-opacity:1;fill-rule:nonzero;stroke:none"
         id="path358" /><path
         d="m 13673.7,4183.3 h 205.902 v 269.199 H 13673.7 Z"
         style="fill:#fddb8e;fill-opacity:1;fill-rule:nonzero;stroke:none"
         id="path360" /><path
         d="m 15256.9,4183.3 h 205.801 v 269.199 H 15256.9 Z"
         style="fill:#fddb8e;fill-opacity:1;fill-rule:nonzero;stroke:none"
         id="path362" /><path
         d="m 13505.7,3375.9 h 2173.2 v 269.098 h -2173.2 z"
         style="fill:#fbc343;fill-opacity:1;fill-rule:nonzero;stroke:none"
         id="path364" /><path
         d="m 14072.8,3375.9 h 891.801 v 269.098 H 14072.8 Z"
         style="fill:#e1af3c;fill-opacity:1;fill-rule:nonzero;stroke:none"
         id="path366" /><path
         d="m 13673.7,3375.9 h 205.902 v 269.098 H 13673.7 Z"
         style="fill:#fddb8e;fill-opacity:1;fill-rule:nonzero;stroke:none"
         id="path368" /><path
         d="m 15256.9,3375.9 h 205.801 v 269.098 H 15256.9 Z"
         style="fill:#fddb8e;fill-opacity:1;fill-rule:nonzero;stroke:none"
         id="path370" /><path
         d="m 13505.7,3645 h 2173.2 v 269.199 h -2173.2 z"
         style="fill:#fbc343;fill-opacity:1;fill-rule:nonzero;stroke:none"
         id="path372" /><path
         d="m 14072.8,3645 h 891.801 v 269.199 H 14072.8 Z"
         style="fill:#e1af3c;fill-opacity:1;fill-rule:nonzero;stroke:none"
         id="path374" /><path
         d="m 13673.7,3645 h 205.902 v 269.199 H 13673.7 Z"
         style="fill:#fddb8e;fill-opacity:1;fill-rule:nonzero;stroke:none"
         id="path376" /><path
         d="m 15256.9,3645 h 205.801 v 269.199 H 15256.9 Z"
         style="fill:#fddb8e;fill-opacity:1;fill-rule:nonzero;stroke:none"
         id="path378" /><path
         d="m 13505.7,2837.5 h 2173.2 v 269.203 h -2173.2 z"
         style="fill:#fbc343;fill-opacity:1;fill-rule:nonzero;stroke:none"
         id="path380" /><path
         d="m 14072.8,2837.5 h 891.801 v 269.203 H 14072.8 Z"
         style="fill:#e1af3c;fill-opacity:1;fill-rule:nonzero;stroke:none"
         id="path382" /><path
         d="m 13673.7,2837.5 h 205.902 v 269.203 H 13673.7 Z"
         style="fill:#fddb8e;fill-opacity:1;fill-rule:nonzero;stroke:none"
         id="path384" /><path
         d="m 15256.9,2837.5 h 205.801 v 269.203 H 15256.9 Z"
         style="fill:#fddb8e;fill-opacity:1;fill-rule:nonzero;stroke:none"
         id="path386" /><path
         d="m 13505.7,3106.7 h 2173.2 v 269.098 h -2173.2 z"
         style="fill:#fbc343;fill-opacity:1;fill-rule:nonzero;stroke:none"
         id="path388" /><path
         d="m 14072.8,3106.7 h 891.801 v 269.098 H 14072.8 Z"
         style="fill:#e1af3c;fill-opacity:1;fill-rule:nonzero;stroke:none"
         id="path390" /><path
         d="m 13673.7,3106.7 h 205.902 v 269.098 H 13673.7 Z"
         style="fill:#fddb8e;fill-opacity:1;fill-rule:nonzero;stroke:none"
         id="path392" /><path
         d="m 15256.9,3106.7 h 205.801 v 269.098 H 15256.9 Z"
         style="fill:#fddb8e;fill-opacity:1;fill-rule:nonzero;stroke:none"
         id="path394" /><path
         d="m 13505.7,2568.3 h 2173.2 v 269.199 h -2173.2 z"
         style="fill:#fbc343;fill-opacity:1;fill-rule:nonzero;stroke:none"
         id="path396" /><path
         d="m 14072.8,2568.3 h 891.801 v 269.199 H 14072.8 Z"
         style="fill:#e1af3c;fill-opacity:1;fill-rule:nonzero;stroke:none"
         id="path398" /><path
         d="m 13673.7,2568.3 h 205.902 v 269.199 H 13673.7 Z"
         style="fill:#fddb8e;fill-opacity:1;fill-rule:nonzero;stroke:none"
         id="path400" /><path
         d="m 15256.9,2568.3 h 205.801 v 269.199 H 15256.9 Z"
         style="fill:#fddb8e;fill-opacity:1;fill-rule:nonzero;stroke:none"
         id="path402" /><path
         d="m 14517.6,6331.1 -1738.3,1304.3 161.5,215.3 1738.3,-1304.3 -161.5,-215.3"
         style="fill:#fbc343;fill-opacity:1;fill-rule:nonzero;stroke:none"
         id="path404" /><path
         d="m 13946.2,6759.8 -713.3,535.2 713.3,-535.2 v 0"
         style="fill:#d9cbad;fill-opacity:1;fill-rule:nonzero;stroke:none"
         id="path406" /><path
         d="m 13946.2,6759.8 -713.3,535.2 161.5,215.3 713.4,-535.2 -161.6,-215.3"
         style="fill:#e1af3c;fill-opacity:1;fill-rule:nonzero;stroke:none"
         id="path408" /><path
         d="m 13077.9,7411.3 v 0 l -38,28.5 38,-28.5"
         style="fill:#f4f7ff;fill-opacity:1;fill-rule:nonzero;stroke:none"
         id="path410" /><path
         d="m 13078.3,7411 -0.4,0.3 v 0 l 0.4,-0.3 v 0"
         style="fill:#fddb8e;fill-opacity:1;fill-rule:nonzero;stroke:none"
         id="path412" /><path
         d="m 13078.3,7411 -0.4,0.3 -38,28.5 -126.2,94.8 161.5,215.3 164.7,-123.6 -161.6,-215.3"
         style="fill:#fddb8e;fill-opacity:1;fill-rule:nonzero;stroke:none"
         id="path414" /><path
         d="m 14344.7,6460.9 -126.6,95 -38.1,28.5 161.6,215.3 164.6,-123.5 -161.5,-215.3"
         style="fill:#fddb8e;fill-opacity:1;fill-rule:nonzero;stroke:none"
         id="path416" /><path
         d="m 2855.63,2566.5 h 14646.8 V 2604 H 2855.63 Z"
         style="fill:#102048;fill-opacity:1;fill-rule:nonzero;stroke:none"
         id="path418" /><path
         d="M 13847.7,14974.2 H 9965.63 c 63.57,290.5 350.57,509.4 694.67,509.4 102.9,0 200.9,-19.6 289.1,-55.1 128.3,345.5 424,587.6 768.4,587.6 338.3,0 629.5,-232.9 761.1,-568 135.7,59.9 293.6,94.2 461.7,94.2 450.3,0 825.1,-244.6 907.1,-568.1"
         style="fill:#edf2ff;fill-opacity:1;fill-rule:nonzero;stroke:none"
         id="path420" /><path
         d="m 14011.5,11294.7 h 3036.1 c -49.7,227.1 -274.2,398.3 -543.3,398.3 -80.5,0 -157.1,-15.3 -226.1,-43 -100.3,270.2 -331.6,459.6 -601,459.6 -264.5,0 -492.2,-182.2 -595.2,-444.3 -106.1,46.9 -229.6,73.6 -361.1,73.6 -352.1,0 -645.3,-191.2 -709.4,-444.2"
         style="fill:#edf2ff;fill-opacity:1;fill-rule:nonzero;stroke:none"
         id="path422" /></g></g></svg>
