<svg width="71" height="78" viewBox="0 0 71 78" fill="none" xmlns="http://www.w3.org/2000/svg">
<path d="M66.3838 63.9307C63.6322 56.5316 46.8019 52.9979 43.8547 50.8536C40.0711 48.1005 41.2751 38.9808 41.2751 38.9808L35.0836 39.1438L28.8924 38.9808C28.8924 38.9808 30.0963 48.1005 26.3128 50.8536C23.3656 52.9979 6.53527 56.5316 3.78355 63.9307C1.03184 71.3298 0 77.8687 0 77.8687H34.7398H35.4277H70.1675C70.1675 77.8687 69.1355 71.3298 66.3838 63.9307Z" fill="#F78E92"/>
<path d="M27.7454 49.1543C30.6437 48.858 33.5572 48.2699 36.0806 46.8577C37.9199 45.8284 39.5763 44.613 41.1136 43.2447C41.0227 40.9014 41.2751 38.9808 41.2751 38.9808L35.0836 39.1438L28.8924 38.9808C28.8924 38.9808 29.7493 45.4714 27.7454 49.1543" fill="#E07375"/>
<path d="M66.8721 63.8284C64.729 58.0661 54.1152 54.6323 48.0352 52.3718C45.3915 55.425 40.6964 57.4577 35.3418 57.4577C29.9871 57.4577 25.2921 55.425 22.6482 52.3718C16.5679 54.6323 5.95407 58.0666 3.81139 63.8284C1.03944 71.2817 0 77.8687 0 77.8687H34.9952H35.6882H70.6835C70.6835 77.8687 69.6441 71.2817 66.8721 63.8284" fill="#5B94C0"/>
<path d="M35.3192 59.8186C42.1117 59.8186 47.9404 57.1123 50.4394 53.2539C49.5865 52.9409 48.7771 52.6478 48.0352 52.3718C45.3914 55.425 40.6964 57.4577 35.3418 57.4577C29.9871 57.4577 25.2921 55.425 22.6482 52.3718C21.8962 52.6515 21.0744 52.9492 20.2083 53.2669C22.712 57.1187 28.5347 59.8186 35.3192 59.8186" fill="#6CBCE4"/>
<path d="M24.6877 24.7637C23.6878 21.6596 21.32 22.3782 21.0982 22.4532C20.866 22.48 18.4183 22.844 18.8413 26.0773C19.2665 29.3305 21.153 31.0932 22.9217 30.5751C24.7421 30.2866 25.6936 27.8858 24.6877 24.7637" fill="#E07375"/>
<path d="M44.7065 24.7637C45.7063 21.6596 48.0741 22.3782 48.2958 22.4532C48.5285 22.48 50.9757 22.844 50.5532 26.0773C50.1274 29.3305 48.2412 31.0932 46.4724 30.5751C44.6522 30.2866 43.7006 27.8858 44.7065 24.7637" fill="#E07375"/>
<path d="M47.2342 19.8806C45.9949 6.27379 35.6558 7.03593 34.6807 7.13826C33.7058 7.03593 23.3667 6.27379 22.1276 19.8806C20.8811 33.569 26.9746 42.5086 34.6807 42.0168C42.387 42.5086 48.4804 33.569 47.2342 19.8806Z" fill="#F78E92"/>
<path d="M36.1581 24.5266C36.2323 24.7452 36.2883 24.9665 36.3492 25.1869C36.4127 25.4068 36.4637 25.6286 36.5157 25.8504C36.6169 26.2944 36.7041 26.7403 36.7829 27.1876C36.8567 27.6353 36.932 28.0826 36.9861 28.5336C37.0477 28.9832 37.0938 29.4346 37.1327 29.8875L37.1428 30.0046L37.0703 30.0667C36.7977 30.3005 36.5193 30.5278 36.2377 30.7519C35.9473 30.9668 35.669 31.1941 35.3671 31.3969C35.5858 31.1061 35.8277 30.8404 36.058 30.5621C36.2966 30.2926 36.5387 30.0268 36.7865 29.7671L36.7242 29.9458C36.6347 29.5004 36.5524 29.054 36.4855 28.6049C36.4114 28.1572 36.3584 27.7066 36.3037 27.2561C36.2541 26.8047 36.2129 26.3523 36.186 25.8976C36.1739 25.6703 36.1605 25.4429 36.1598 25.2137C36.1565 24.9855 36.1484 24.7572 36.1581 24.5266" fill="#E07375"/>
<path d="M28.6945 33.3995L40.964 33.2708C40.964 33.2708 36.0575 38.1019 28.6945 33.3995Z" fill="white"/>
<path d="M31.8408 35.8651C31.8408 35.8651 31.972 35.8933 32.1971 35.9544C32.4218 36.0067 32.7408 36.1327 33.1271 36.1915C33.3195 36.2253 33.5259 36.2619 33.7407 36.3073C33.952 36.3656 34.1943 36.3475 34.4312 36.3809C34.6709 36.4022 34.9175 36.435 35.1693 36.4133C35.4204 36.4031 35.6762 36.4045 35.9297 36.386C36.1811 36.3461 36.4328 36.3063 36.6802 36.267C36.9325 36.2452 37.1596 36.1387 37.3921 36.0808C37.62 36.0077 37.8525 35.9642 38.0471 35.8567C38.247 35.7637 38.4404 35.6808 38.6206 35.6044C38.8061 35.5368 38.9513 35.4312 39.0908 35.3534C39.2291 35.2719 39.3497 35.2006 39.4491 35.1418C39.6501 35.0251 39.7714 34.9626 39.7714 34.9626C39.7714 34.9626 39.6808 35.0589 39.5113 35.2205C39.4254 35.3011 39.3211 35.3988 39.2013 35.5109C39.0792 35.6211 38.9514 35.7632 38.7719 35.8591C38.6009 35.9683 38.4138 36.0864 38.2113 36.2054C38.0165 36.3411 37.781 36.4198 37.5405 36.5105C37.4201 36.5554 37.2975 36.6017 37.1734 36.648L36.9855 36.7175L36.7872 36.7541C36.521 36.8018 36.2503 36.8508 35.9799 36.8995C35.7061 36.9143 35.4309 36.9073 35.1614 36.9115C34.8902 36.9305 34.6295 36.868 34.3768 36.8309C34.125 36.7832 33.8786 36.7684 33.6557 36.6818C33.4305 36.611 33.221 36.5374 33.0294 36.4698C32.8325 36.4124 32.672 36.3253 32.5304 36.2457C32.3873 36.1693 32.2625 36.1021 32.1599 36.0475C31.9552 35.9354 31.8408 35.8651 31.8408 35.8651" fill="#E07375"/>
<path d="M28.2483 24.7317C28.2483 25.7564 28.6285 26.5875 29.0976 26.5875C29.5665 26.5875 29.9466 25.7564 29.9466 24.7317C29.9466 23.707 29.5665 22.8759 29.0976 22.8759C28.6285 22.8759 28.2483 23.707 28.2483 24.7317Z" fill="#29202E"/>
<path d="M39.9168 24.7317C39.9168 25.7564 40.2969 26.5875 40.7659 26.5875C41.2347 26.5875 41.6149 25.7564 41.6149 24.7317C41.6149 23.707 41.2347 22.8759 40.7659 22.8759C40.2969 22.8759 39.9168 23.707 39.9168 24.7317Z" fill="#29202E"/>
<path d="M26.1638 21.6952C26.1638 21.6952 26.3113 21.2507 26.7705 20.7344C26.8914 20.6136 27.0122 20.4659 27.172 20.3455C27.3238 20.2149 27.4966 20.0904 27.6915 19.9806C27.8766 19.857 28.1026 19.7802 28.3221 19.688C28.5569 19.6311 28.791 19.5472 29.0441 19.5417C29.1692 19.5352 29.2941 19.526 29.4184 19.5246C29.5432 19.5361 29.667 19.5551 29.7892 19.5718C30.0377 19.588 30.2587 19.7019 30.4761 19.7764C30.6927 19.8565 30.8657 20.0015 31.0399 20.108C31.2189 20.2117 31.3328 20.3761 31.4592 20.4951C31.5814 20.6191 31.6891 20.734 31.7571 20.8599C31.8341 20.9766 31.8923 21.0845 31.9409 21.1711C32.036 21.3456 32.0803 21.4484 32.0803 21.4484C32.0803 21.4484 31.9722 21.3993 31.8006 21.3081C31.7159 21.2614 31.6123 21.2076 31.5034 21.1391C31.3977 21.0655 31.2573 21.0169 31.1202 20.9484C30.976 20.8933 30.8418 20.7946 30.6761 20.7553C30.5135 20.7127 30.3586 20.6289 30.1856 20.6016C30.0122 20.5803 29.8456 20.5131 29.6657 20.521C29.5773 20.5159 29.4888 20.5131 29.4002 20.5025L29.1312 20.5242C28.9504 20.5173 28.7727 20.5863 28.5918 20.6048C28.4175 20.6664 28.2344 20.6942 28.0663 20.7682C27.894 20.8284 27.7272 20.8946 27.57 20.9687C27.4079 21.0326 27.2631 21.116 27.1181 21.178C26.9778 21.2526 26.8493 21.3202 26.7352 21.3804C26.619 21.4443 26.5178 21.4998 26.4342 21.5457C26.2621 21.641 26.1638 21.6952 26.1638 21.6952" fill="#29202E"/>
<path d="M37.9145 21.6952C37.9145 21.6952 38.0619 21.2507 38.521 20.7344C38.642 20.6136 38.7627 20.4659 38.9225 20.3455C39.0744 20.2149 39.2472 20.0904 39.442 19.9806C39.6272 19.857 39.8533 19.7802 40.0726 19.688C40.3076 19.6311 40.5415 19.5472 40.7948 19.5417C40.9197 19.5352 41.0448 19.526 41.1689 19.5246C41.2937 19.5361 41.4175 19.5551 41.5397 19.5718C41.7885 19.588 42.0094 19.7019 42.2267 19.7764C42.4434 19.8565 42.6162 20.0015 42.7906 20.108C42.9696 20.2117 43.0833 20.3761 43.2097 20.4951C43.3319 20.6191 43.4396 20.734 43.5076 20.8599C43.5846 20.9766 43.6428 21.0845 43.6914 21.1711C43.7867 21.3456 43.8308 21.4484 43.8308 21.4484C43.8308 21.4484 43.7227 21.3993 43.5512 21.3081C43.4664 21.2614 43.3628 21.2076 43.254 21.1391C43.1484 21.0655 43.0078 21.0169 42.8707 20.9484C42.7267 20.8933 42.5925 20.7946 42.4266 20.7553C42.2641 20.7127 42.1092 20.6289 41.9363 20.6016C41.763 20.5803 41.5961 20.5131 41.4162 20.521C41.3279 20.5159 41.2393 20.5131 41.1507 20.5025L40.8817 20.5242C40.7009 20.5173 40.5234 20.5863 40.3423 20.6048C40.168 20.6664 39.9849 20.6942 39.817 20.7682C39.6445 20.8284 39.4778 20.8946 39.3206 20.9687C39.1584 21.0326 39.0136 21.116 38.8686 21.178C38.7284 21.2526 38.5998 21.3202 38.4859 21.3804C38.3695 21.4443 38.2683 21.4998 38.1848 21.5457C38.0129 21.641 37.9145 21.6952 37.9145 21.6952" fill="#29202E"/>
<path d="M41.9251 14.7513C39.6297 14.5948 37.331 14.0873 35.4669 13.371C31.2947 11.768 27.7098 7.01324 27.4264 2.40663C25.6537 4.32076 24.79 6.6794 24.79 6.6794C24.79 6.6794 22.6303 5.44452 20.7792 9.30335C18.9281 13.1617 22.1675 26.5894 22.1675 26.5894L23.5558 25.9722L23.0931 18.8722C28.6464 15.631 27.258 10.5378 27.258 10.5378C33.3186 15.2541 38.7184 15.3481 41.9251 14.7513Z" fill="#7A3134"/>
<path d="M22.1675 26.5894C22.1675 26.5894 18.9281 13.1617 20.7792 9.30335C22.6303 5.44452 24.79 6.6794 24.79 6.6794C24.79 6.6794 27.7208 -1.34617 33.8913 0.197087C40.0616 1.74034 43.6096 4.51847 46.8491 1.74033C46.8491 1.74033 46.8491 4.2101 44.9979 5.29033C44.9979 5.29033 48.8544 5.29033 50.3968 1.58615C50.3968 1.58615 52.7009 9.50384 47.6104 12.282C47.6104 12.282 47.9922 22.1758 47.6206 25.8175L46.2318 25.6633C46.2318 25.6633 45.4607 20.4159 44.9979 13.7789C44.9979 13.7789 36.9763 18.1008 27.258 10.5378C27.258 10.5378 28.6464 15.631 23.0931 18.8722L23.5558 25.9722L22.1675 26.5894Z" fill="#A1444B"/>
</svg>
